<?xml version="1.0" encoding="UTF-8"?>
<!-- Do not edit this file with editors other than draw.io -->
<!DOCTYPE svg PUBLIC "-//W3C//DTD SVG 1.1//EN" "http://www.w3.org/Graphics/SVG/1.1/DTD/svg11.dtd">
<svg xmlns="http://www.w3.org/2000/svg" style="background: transparent; background-color: transparent; color-scheme: light dark;" xmlns:xlink="http://www.w3.org/1999/xlink" version="1.1" width="65px" height="51px" viewBox="0 0 65 51" content="&lt;mxfile host=&quot;Electron&quot; agent=&quot;Mozilla/5.0 (Windows NT 10.0; Win64; x64) AppleWebKit/537.36 (KHTML, like Gecko) draw.io/29.6.6 Chrome/144.0.7559.236 Electron/40.8.4 Safari/537.36&quot; version=&quot;29.6.6&quot; scale=&quot;1&quot; border=&quot;0&quot;&gt;&#10;  &lt;diagram name=&quot;Página-1&quot; id=&quot;58Q4iLej74Yhcoqce5W3&quot;&gt;&#10;    &lt;mxGraphModel dx=&quot;696&quot; dy=&quot;426&quot; grid=&quot;0&quot; gridSize=&quot;10&quot; guides=&quot;1&quot; tooltips=&quot;1&quot; connect=&quot;1&quot; arrows=&quot;1&quot; fold=&quot;1&quot; page=&quot;1&quot; pageScale=&quot;1&quot; pageWidth=&quot;10&quot; pageHeight=&quot;10&quot; background=&quot;none&quot; math=&quot;0&quot; shadow=&quot;0&quot;&gt;&#10;      &lt;root&gt;&#10;        &lt;mxCell id=&quot;0&quot; /&gt;&#10;        &lt;mxCell id=&quot;1&quot; parent=&quot;0&quot; /&gt;&#10;        &lt;mxCell id=&quot;XoGOKUBx0CQJ7Ejg3S-e-6&quot; parent=&quot;1&quot; style=&quot;sketch=0;points=[[0.015,0.015,0],[0.985,0.015,0],[0.985,0.985,0],[0.015,0.985,0],[0.25,0,0],[0.5,0,0],[0.75,0,0],[1,0.25,0],[1,0.5,0],[1,0.75,0],[0.75,1,0],[0.5,1,0],[0.25,1,0],[0,0.75,0],[0,0.5,0],[0,0.25,0]];verticalLabelPosition=bottom;html=1;verticalAlign=top;aspect=fixed;align=center;pointerEvents=1;shape=mxgraph.cisco19.rect;prIcon=dual_mode_access_point;fillColor=#FAFAFA;strokeColor=#005073;&quot; value=&quot;&quot; vertex=&quot;1&quot;&gt;&#10;          &lt;mxGeometry height=&quot;50&quot; width=&quot;64&quot; x=&quot;93&quot; y=&quot;95&quot; as=&quot;geometry&quot; /&gt;&#10;        &lt;/mxCell&gt;&#10;      &lt;/root&gt;&#10;    &lt;/mxGraphModel&gt;&#10;  &lt;/diagram&gt;&#10;&lt;/mxfile&gt;&#10;"><defs/><g><g data-cell-id="0"><g data-cell-id="1"><g data-cell-id="XoGOKUBx0CQJ7Ejg3S-e-6"><g id="cell-XoGOKUBx0CQJ7Ejg3S-e-6"><g transform="translate(0.5,0.5)"><rect x="0" y="0" width="64" height="50" fill="none" stroke="none" pointer-events="all"/><path d="M 3.93 0 C 1.77 0 0 1.37 0 3.05 L 0 46.95 C 0 48.63 1.77 50 3.93 50 L 60.07 50 C 62.23 50 64 48.63 64 46.95 L 64 3.05 C 64 1.37 62.23 0 60.07 0 Z" fill="#fafafa" stroke="none" pointer-events="all" style="fill: rgb(250, 250, 250);"/><rect x="0" y="0" width="64" height="50" fill="none" stroke="none" pointer-events="all"/><path d="M 15.8 29.86 C 14.64 29.86 13.73 30.55 13.09 31.29 C 12.76 31.68 12.49 32.09 12.24 32.5 C 12.08 32.22 11.89 31.95 11.69 31.7 C 11.11 30.98 10.32 30.38 9.32 30.38 C 8.3 30.38 7.4 31.01 6.72 31.76 C 6.08 32.47 5.61 33.3 5.57 34.11 L 5.05 34.11 C 5.05 35.19 5.61 36.1 6.34 36.92 C 7.08 37.74 8.08 38.46 9.32 38.46 C 10.53 38.46 11.46 37.74 12.09 36.96 C 12.38 36.59 12.63 36.2 12.85 35.82 C 13.04 36.12 13.24 36.42 13.48 36.69 C 14.06 37.38 14.84 37.94 15.8 37.94 C 16.78 37.94 17.53 37.33 18.1 36.64 C 18.36 36.33 18.58 35.99 18.79 35.66 C 19.07 36.09 19.39 36.53 19.74 36.94 C 20.38 37.69 21.12 38.46 22.28 38.46 C 23.31 38.46 24.1 37.84 24.73 37.13 C 25.11 36.72 25.45 36.23 25.78 35.72 C 26.02 36.12 26.27 36.5 26.55 36.83 C 27.11 37.47 27.84 37.94 28.76 37.94 C 29.72 37.94 30.46 37.35 31.02 36.67 C 31.27 36.36 31.5 36.01 31.72 35.67 C 31.97 36.09 32.24 36.52 32.56 36.94 C 33.16 37.7 34.05 38.46 35.24 38.46 C 36.39 38.46 37.29 37.76 37.89 37.01 C 38.21 36.6 38.49 36.16 38.75 35.72 C 38.96 36.08 39.18 36.42 39.44 36.73 C 39.98 37.41 40.73 37.94 41.72 37.94 C 42.71 37.94 43.46 37.39 44 36.72 C 44.25 36.4 44.47 36.05 44.69 35.7 C 44.94 36.13 45.22 36.58 45.54 36.99 C 46.14 37.74 47.03 38.46 48.2 38.46 C 49.35 38.46 50.26 37.76 50.87 37.01 C 51.19 36.61 51.47 36.18 51.71 35.75 C 51.88 36.06 52.06 36.36 52.27 36.64 C 52.79 37.34 53.57 37.94 54.68 37.94 C 55.83 37.94 56.76 37.23 57.4 36.45 C 58.03 35.66 58.43 34.84 58.43 34.11 L 58.95 34.11 C 58.95 31.93 57.17 29.86 54.68 29.86 C 53.41 29.86 52.41 30.52 51.83 31.29 C 51.51 31.71 51.27 32.15 51.05 32.58 C 50.87 32.28 50.68 31.99 50.46 31.72 C 49.91 31.01 49.18 30.38 48.2 30.38 C 47.23 30.38 46.5 30.97 45.95 31.66 C 45.71 31.96 45.5 32.29 45.29 32.63 C 45.03 32.17 44.75 31.71 44.4 31.28 C 43.81 30.54 42.88 29.86 41.72 29.86 C 40.56 29.86 39.63 30.52 39.04 31.26 C 38.69 31.69 38.41 32.15 38.15 32.61 C 37.94 32.27 37.72 31.94 37.49 31.64 C 36.93 30.95 36.2 30.38 35.24 30.38 C 34.26 30.38 33.52 31 32.97 31.71 C 32.73 32.01 32.52 32.33 32.33 32.65 C 32.06 32.21 31.77 31.75 31.42 31.32 C 30.81 30.58 29.92 29.86 28.76 29.86 C 27.68 29.86 26.78 30.44 26.16 31.16 C 25.78 31.6 25.47 32.09 25.17 32.61 C 24.91 32.22 24.64 31.86 24.35 31.54 C 23.76 30.88 23.08 30.38 22.28 30.38 C 21.41 30.38 20.74 31.02 20.13 31.72 C 19.87 32.02 19.63 32.35 19.4 32.68 C 19.15 32.25 18.85 31.78 18.5 31.35 C 17.89 30.6 16.99 29.86 15.8 29.86 Z M 9.32 31.43 C 9.93 31.43 10.42 31.77 10.89 32.35 C 11.17 32.71 11.43 33.14 11.67 33.59 C 11.66 33.61 11.65 33.63 11.64 33.65 C 11.3 34.36 10.91 35.12 10.49 35.64 C 10.07 36.16 9.73 36.38 9.32 36.38 C 8.97 36.38 8.35 36.05 7.87 35.52 C 7.39 34.98 7.12 34.24 7.12 34.11 L 6.61 34.11 C 6.66 33.72 6.99 33.01 7.49 32.46 C 8.03 31.85 8.75 31.43 9.32 31.43 Z M 22.28 31.43 C 22.64 31.43 23.09 31.69 23.59 32.24 C 23.92 32.61 24.26 33.1 24.6 33.65 C 24.13 34.49 23.65 35.24 23.21 35.73 C 22.76 36.23 22.41 36.38 22.28 36.38 C 22.29 36.38 21.79 36.15 21.3 35.58 C 20.83 35.03 20.35 34.29 19.98 33.67 C 20.27 33.23 20.59 32.78 20.91 32.41 C 21.44 31.79 22 31.43 22.28 31.43 Z M 35.24 31.43 C 35.82 31.43 36.23 31.73 36.68 32.29 C 36.98 32.66 37.26 33.14 37.55 33.65 C 37.08 34.44 36.67 35.21 36.28 35.7 C 35.88 36.21 35.62 36.38 35.24 36.38 C 34.89 36.38 34.6 36.18 34.18 35.64 C 33.78 35.13 33.38 34.38 32.93 33.66 C 33.21 33.19 33.48 32.73 33.78 32.36 C 34.24 31.76 34.68 31.43 35.24 31.43 Z M 48.2 31.43 C 48.75 31.43 49.19 31.77 49.65 32.36 C 49.94 32.74 50.22 33.2 50.5 33.67 C 50.08 34.44 49.68 35.19 49.28 35.69 C 48.86 36.19 48.57 36.38 48.2 36.38 C 47.82 36.38 47.56 36.2 47.16 35.69 C 46.76 35.19 46.36 34.43 45.89 33.65 C 46.18 33.15 46.46 32.68 46.75 32.31 C 47.21 31.73 47.63 31.43 48.2 31.43 Z M 15.8 31.95 C 16.15 31.95 16.48 32.16 16.91 32.68 C 17.34 33.2 17.75 33.96 18.16 34.65 C 18.16 34.66 18.17 34.67 18.17 34.67 C 17.9 35.14 17.62 35.6 17.31 35.98 C 16.83 36.55 16.36 36.9 15.8 36.9 C 15.23 36.9 14.74 36.57 14.26 36.01 C 13.95 35.64 13.66 35.19 13.41 34.73 C 13.44 34.68 13.47 34.62 13.49 34.57 C 13.82 33.89 14.22 33.15 14.65 32.66 C 15.07 32.16 15.43 31.95 15.8 31.95 Z M 28.76 31.95 C 29.11 31.95 29.4 32.14 29.82 32.65 C 30.24 33.16 30.66 33.92 31.12 34.66 C 30.83 35.15 30.53 35.63 30.22 36.01 C 29.76 36.58 29.31 36.9 28.76 36.9 C 28.16 36.9 27.77 36.65 27.33 36.14 C 27.01 35.78 26.71 35.28 26.38 34.69 C 26.4 34.67 26.41 34.64 26.42 34.62 C 26.91 33.72 27.33 32.97 27.72 32.53 C 28.1 32.08 28.32 31.95 28.76 31.95 Z M 41.72 31.95 C 42.18 31.95 42.41 32.11 42.8 32.59 C 43.18 33.07 43.58 33.84 44.08 34.66 C 44.08 34.66 44.08 34.67 44.08 34.67 C 43.78 35.19 43.5 35.68 43.2 36.06 C 42.76 36.6 42.36 36.9 41.72 36.9 C 41.07 36.9 40.67 36.61 40.23 36.08 C 39.93 35.71 39.65 35.21 39.35 34.68 C 39.35 34.67 39.36 34.66 39.36 34.65 C 39.85 33.82 40.25 33.05 40.63 32.58 C 41.01 32.11 41.24 31.95 41.72 31.95 Z M 54.68 31.95 C 56.06 31.95 56.88 33.07 56.88 34.11 L 57.4 34.11 C 57.4 34.33 57.11 35.16 56.6 35.79 C 56.08 36.42 55.4 36.9 54.68 36.9 C 53.9 36.9 53.51 36.58 53.1 36.02 C 52.82 35.65 52.58 35.17 52.31 34.68 C 52.32 34.66 52.33 34.63 52.34 34.62 C 52.8 33.77 53.13 33.01 53.46 32.56 C 53.8 32.12 53.99 31.95 54.68 31.95 Z M 15.8 11.54 C 14.64 11.54 13.73 12.22 13.09 12.97 C 12.76 13.35 12.49 13.77 12.24 14.17 C 12.08 13.9 11.89 13.62 11.69 13.37 C 11.11 12.66 10.32 12.06 9.32 12.06 C 8.3 12.06 7.4 12.68 6.72 13.43 C 6.08 14.15 5.61 14.98 5.57 15.79 L 5.05 15.79 C 5.05 16.87 5.61 17.78 6.34 18.6 C 7.08 19.41 8.08 20.14 9.32 20.14 C 10.53 20.14 11.46 19.41 12.09 18.63 C 12.38 18.27 12.63 17.88 12.85 17.5 C 13.04 17.8 13.24 18.09 13.48 18.36 C 14.06 19.05 14.84 19.62 15.8 19.62 C 16.78 19.62 17.53 19.01 18.1 18.32 C 18.36 18.01 18.58 17.67 18.79 17.34 C 19.07 17.77 19.39 18.21 19.74 18.62 C 20.38 19.37 21.12 20.14 22.28 20.14 C 23.31 20.14 24.1 19.52 24.73 18.81 C 25.11 18.39 25.45 17.91 25.78 17.4 C 26.02 17.8 26.27 18.17 26.55 18.5 C 27.11 19.15 27.84 19.62 28.76 19.62 C 29.72 19.62 30.46 19.03 31.02 18.35 C 31.27 18.03 31.5 17.69 31.72 17.35 C 31.97 17.76 32.24 18.2 32.56 18.61 C 33.16 19.38 34.05 20.14 35.24 20.14 C 36.39 20.14 37.29 19.44 37.89 18.69 C 38.21 18.28 38.49 17.83 38.75 17.4 C 38.96 17.75 39.18 18.1 39.44 18.41 C 39.98 19.08 40.73 19.62 41.72 19.62 C 42.71 19.62 43.46 19.07 44 18.39 C 44.25 18.08 44.47 17.73 44.69 17.37 C 44.94 17.81 45.22 18.25 45.54 18.66 C 46.14 19.42 47.03 20.14 48.2 20.14 C 49.35 20.14 50.26 19.44 50.87 18.68 C 51.19 18.29 51.47 17.86 51.71 17.43 C 51.88 17.73 52.06 18.04 52.27 18.32 C 52.79 19.02 53.57 19.62 54.68 19.62 C 55.83 19.62 56.76 18.91 57.4 18.12 C 58.03 17.34 58.43 16.51 58.43 15.79 L 58.95 15.79 C 58.95 13.61 57.17 11.54 54.68 11.54 C 53.41 11.54 52.41 12.2 51.83 12.97 C 51.51 13.39 51.27 13.83 51.05 14.25 C 50.87 13.96 50.68 13.67 50.46 13.4 C 49.91 12.69 49.18 12.06 48.2 12.06 C 47.23 12.06 46.5 12.64 45.95 13.34 C 45.71 13.64 45.5 13.97 45.29 14.31 C 45.03 13.85 44.75 13.39 44.4 12.96 C 43.81 12.22 42.88 11.54 41.72 11.54 C 40.56 11.54 39.63 12.2 39.04 12.93 C 38.69 13.36 38.41 13.83 38.15 14.28 C 37.94 13.95 37.72 13.62 37.49 13.32 C 36.93 12.63 36.2 12.06 35.24 12.06 C 34.26 12.06 33.52 12.68 32.97 13.39 C 32.73 13.68 32.52 14.01 32.33 14.33 C 32.06 13.89 31.77 13.43 31.42 13 C 30.81 12.26 29.92 11.54 28.76 11.54 C 27.68 11.54 26.78 12.12 26.16 12.83 C 25.78 13.28 25.47 13.77 25.17 14.29 C 24.91 13.9 24.64 13.53 24.35 13.22 C 23.76 12.56 23.08 12.06 22.28 12.06 C 21.41 12.06 20.74 12.69 20.13 13.4 C 19.87 13.7 19.63 14.03 19.4 14.35 C 19.15 13.92 18.85 13.46 18.5 13.03 C 17.89 12.28 16.99 11.54 15.8 11.54 Z M 9.32 13.1 C 9.93 13.1 10.42 13.45 10.89 14.03 C 11.17 14.39 11.43 14.82 11.67 15.26 C 11.66 15.28 11.65 15.31 11.64 15.33 C 11.3 16.04 10.91 16.8 10.49 17.32 C 10.07 17.84 9.73 18.05 9.32 18.05 C 8.97 18.05 8.35 17.73 7.87 17.19 C 7.39 16.66 7.12 15.92 7.12 15.79 L 6.61 15.79 C 6.66 15.39 6.99 14.69 7.49 14.13 C 8.03 13.53 8.75 13.1 9.32 13.1 Z M 22.28 13.1 C 22.64 13.1 23.09 13.37 23.59 13.92 C 23.92 14.29 24.26 14.78 24.6 15.32 C 24.13 16.16 23.65 16.92 23.21 17.41 C 22.76 17.91 22.41 18.05 22.28 18.05 C 22.29 18.05 21.79 17.83 21.3 17.25 C 20.83 16.7 20.35 15.97 19.98 15.35 C 20.27 14.91 20.59 14.46 20.91 14.08 C 21.44 13.46 22 13.1 22.28 13.1 Z M 35.24 13.1 C 35.82 13.1 36.23 13.4 36.68 13.97 C 36.98 14.34 37.26 14.82 37.55 15.32 C 37.08 16.12 36.67 16.89 36.28 17.38 C 35.88 17.89 35.62 18.05 35.24 18.05 C 34.89 18.05 34.6 17.86 34.18 17.32 C 33.78 16.81 33.38 16.06 32.93 15.33 C 33.21 14.87 33.48 14.41 33.78 14.03 C 34.24 13.44 34.68 13.1 35.24 13.1 Z M 48.2 13.1 C 48.75 13.1 49.19 13.44 49.65 14.04 C 49.94 14.41 50.22 14.88 50.5 15.34 C 50.08 16.12 49.68 16.87 49.28 17.36 C 48.86 17.87 48.57 18.05 48.2 18.05 C 47.82 18.05 47.56 17.88 47.16 17.36 C 46.76 16.87 46.36 16.11 45.89 15.33 C 46.18 14.83 46.46 14.36 46.75 13.99 C 47.21 13.41 47.63 13.1 48.2 13.1 Z M 15.8 13.62 C 16.15 13.62 16.48 13.84 16.91 14.36 C 17.34 14.88 17.75 15.63 18.16 16.32 C 18.16 16.33 18.17 16.34 18.17 16.35 C 17.9 16.81 17.62 17.28 17.31 17.65 C 16.83 18.23 16.36 18.57 15.8 18.57 C 15.23 18.57 14.74 18.24 14.26 17.68 C 13.95 17.32 13.66 16.87 13.41 16.41 C 13.44 16.36 13.47 16.3 13.49 16.25 C 13.82 15.56 14.22 14.83 14.65 14.33 C 15.07 13.84 15.43 13.62 15.8 13.62 Z M 28.76 13.62 C 29.11 13.62 29.4 13.81 29.82 14.32 C 30.24 14.83 30.66 15.6 31.12 16.33 C 30.83 16.82 30.53 17.3 30.22 17.68 C 29.76 18.25 29.31 18.57 28.76 18.57 C 28.16 18.57 27.77 18.33 27.33 17.82 C 27.01 17.45 26.71 16.95 26.38 16.37 C 26.4 16.35 26.41 16.32 26.42 16.29 C 26.91 15.4 27.33 14.65 27.72 14.2 C 28.1 13.76 28.32 13.62 28.76 13.62 Z M 41.72 13.62 C 42.18 13.62 42.41 13.79 42.8 14.27 C 43.18 14.75 43.58 15.52 44.08 16.34 C 44.08 16.34 44.08 16.34 44.08 16.35 C 43.78 16.87 43.5 17.36 43.2 17.74 C 42.76 18.28 42.36 18.57 41.72 18.57 C 41.07 18.57 40.67 18.29 40.23 17.75 C 39.93 17.38 39.65 16.89 39.35 16.36 C 39.35 16.35 39.36 16.33 39.36 16.32 C 39.85 15.49 40.25 14.72 40.63 14.25 C 41.01 13.78 41.24 13.62 41.72 13.62 Z M 54.68 13.62 C 56.06 13.62 56.88 14.74 56.88 15.79 L 57.4 15.79 C 57.4 16 57.11 16.83 56.6 17.46 C 56.08 18.1 55.4 18.57 54.68 18.57 C 53.9 18.57 53.51 18.25 53.1 17.7 C 52.82 17.33 52.58 16.85 52.31 16.35 C 52.32 16.33 52.33 16.31 52.34 16.29 C 52.8 15.45 53.13 14.68 53.46 14.24 C 53.8 13.79 53.99 13.62 54.68 13.62 Z M 3.02 0 C 1.36 0 0 1.37 0 3.05 L 0 46.95 C 0 48.63 1.36 50 3.02 50 L 60.98 50 C 62.64 50 64 48.63 64 46.95 L 64 3.05 C 64 1.37 62.64 0 60.98 0 Z M 3.02 1.38 L 60.98 1.38 C 61.91 1.38 62.63 2.11 62.63 3.05 L 62.63 46.95 C 62.63 47.89 61.91 48.62 60.98 48.62 L 3.02 48.62 C 2.09 48.62 1.36 47.89 1.36 46.95 L 1.36 3.05 C 1.36 2.11 2.09 1.38 3.02 1.38 Z" fill="#005073" stroke="none" pointer-events="all" style="fill: rgb(0, 80, 115);"/></g></g></g></g></g></g></svg>