<?xml version="1.0" encoding="UTF-8"?>
<!-- Do not edit this file with editors other than draw.io -->
<!DOCTYPE svg PUBLIC "-//W3C//DTD SVG 1.1//EN" "http://www.w3.org/Graphics/SVG/1.1/DTD/svg11.dtd">
<svg xmlns="http://www.w3.org/2000/svg" style="background: transparent; background-color: transparent; color-scheme: light dark;" xmlns:xlink="http://www.w3.org/1999/xlink" version="1.1" width="51px" height="51px" viewBox="0 0 51 51" content="&lt;mxfile host=&quot;Electron&quot; agent=&quot;Mozilla/5.0 (Windows NT 10.0; Win64; x64) AppleWebKit/537.36 (KHTML, like Gecko) draw.io/29.6.6 Chrome/144.0.7559.236 Electron/40.8.4 Safari/537.36&quot; version=&quot;29.6.6&quot; scale=&quot;1&quot; border=&quot;0&quot;&gt;&#10;  &lt;diagram name=&quot;Página-1&quot; id=&quot;58Q4iLej74Yhcoqce5W3&quot;&gt;&#10;    &lt;mxGraphModel dx=&quot;636&quot; dy=&quot;466&quot; grid=&quot;0&quot; gridSize=&quot;10&quot; guides=&quot;1&quot; tooltips=&quot;1&quot; connect=&quot;1&quot; arrows=&quot;1&quot; fold=&quot;1&quot; page=&quot;1&quot; pageScale=&quot;1&quot; pageWidth=&quot;50&quot; pageHeight=&quot;50&quot; background=&quot;none&quot; math=&quot;0&quot; shadow=&quot;0&quot;&gt;&#10;      &lt;root&gt;&#10;        &lt;mxCell id=&quot;0&quot; /&gt;&#10;        &lt;mxCell id=&quot;1&quot; parent=&quot;0&quot; /&gt;&#10;        &lt;mxCell id=&quot;XoGOKUBx0CQJ7Ejg3S-e-1&quot; parent=&quot;1&quot; style=&quot;sketch=0;points=[[0.015,0.015,0],[0.985,0.015,0],[0.985,0.985,0],[0.015,0.985,0],[0.25,0,0],[0.5,0,0],[0.75,0,0],[1,0.25,0],[1,0.5,0],[1,0.75,0],[0.75,1,0],[0.5,1,0],[0.25,1,0],[0,0.75,0],[0,0.5,0],[0,0.25,0]];verticalLabelPosition=bottom;html=1;verticalAlign=top;aspect=fixed;align=center;pointerEvents=1;shape=mxgraph.cisco19.rect;prIcon=l3_switch;fillColor=#FAFAFA;strokeColor=#005073;&quot; value=&quot;&quot; vertex=&quot;1&quot;&gt;&#10;          &lt;mxGeometry height=&quot;50&quot; width=&quot;50&quot; x=&quot;150&quot; y=&quot;50&quot; as=&quot;geometry&quot; /&gt;&#10;        &lt;/mxCell&gt;&#10;      &lt;/root&gt;&#10;    &lt;/mxGraphModel&gt;&#10;  &lt;/diagram&gt;&#10;&lt;/mxfile&gt;&#10;"><defs/><g><g data-cell-id="0"><g data-cell-id="1"><g data-cell-id="XoGOKUBx0CQJ7Ejg3S-e-1"><g id="cell-XoGOKUBx0CQJ7Ejg3S-e-1"><g transform="translate(0.5,0.5)"><rect x="0" y="0" width="50" height="50" fill="none" stroke="none" pointer-events="all"/><path d="M 3.07 0 C 1.38 0 0 1.37 0 3.05 L 0 46.95 C 0 48.63 1.38 50 3.07 50 L 46.93 50 C 48.62 50 50 48.63 50 46.95 L 50 3.05 C 50 1.37 48.62 0 46.93 0 Z" fill="#fafafa" stroke="none" pointer-events="all" style="fill: rgb(250, 250, 250);"/><rect x="0" y="0" width="50" height="50" fill="none" stroke="none" pointer-events="all"/><path d="M 25.03 4.6 L 20.84 10.59 L 23.62 10.59 L 23.62 16.96 C 22.4 17.17 21.24 17.65 20.23 18.38 L 15.69 13.89 L 17.65 11.92 L 10.46 10.61 L 11.79 17.8 L 13.75 15.83 L 18.29 20.33 C 17.6 21.31 17.13 22.44 16.93 23.62 L 10.53 23.62 L 10.53 20.86 L 4.5 24.97 L 10.53 29.14 L 10.53 26.37 L 16.92 26.37 C 17.13 27.57 17.6 28.7 18.31 29.69 L 13.78 34.2 L 11.81 32.25 L 10.51 39.44 L 17.7 38.1 L 15.73 36.15 L 20.25 31.64 C 21.26 32.35 22.41 32.83 23.62 33.03 L 23.62 39.41 L 20.84 39.41 L 25.03 45.4 L 29.16 39.41 L 26.38 39.41 L 26.38 33.04 C 27.59 32.83 28.73 32.36 29.73 31.65 L 34.27 36.15 L 32.31 38.11 L 39.54 39.39 L 38.18 32.24 L 36.22 34.2 L 31.68 29.71 C 32.39 28.72 32.87 27.57 33.07 26.37 L 39.47 26.37 L 39.47 29.14 L 45.5 24.97 L 39.47 20.86 L 39.47 23.62 L 33.08 23.62 C 32.87 22.41 32.38 21.27 31.66 20.27 L 36.19 15.76 L 38.15 17.72 L 39.49 10.56 L 32.27 11.86 L 34.23 13.82 L 29.71 18.33 C 28.72 17.63 27.58 17.17 26.38 16.97 L 26.38 10.59 L 29.16 10.59 Z M 3.07 0 C 1.38 0 0 1.37 0 3.05 L 0 46.95 C 0 48.63 1.38 50 3.07 50 L 46.93 50 C 48.62 50 50 48.63 50 46.95 L 50 3.05 C 50 1.37 48.62 0 46.93 0 Z M 3.07 1.38 L 46.93 1.38 C 47.88 1.38 48.62 2.11 48.62 3.05 L 48.62 46.95 C 48.62 47.89 47.88 48.62 46.93 48.62 L 3.07 48.62 C 2.12 48.62 1.39 47.89 1.39 46.95 L 1.39 3.05 C 1.39 2.11 2.12 1.38 3.07 1.38 Z" fill="#005073" stroke="none" pointer-events="all" style="fill: rgb(0, 80, 115);"/></g></g></g></g></g></g></svg>