<?xml version="1.0" encoding="UTF-8"?>
<!-- Do not edit this file with editors other than draw.io -->
<!DOCTYPE svg PUBLIC "-//W3C//DTD SVG 1.1//EN" "http://www.w3.org/Graphics/SVG/1.1/DTD/svg11.dtd">
<svg xmlns="http://www.w3.org/2000/svg" style="background: transparent; background-color: transparent; color-scheme: light dark;" xmlns:xlink="http://www.w3.org/1999/xlink" version="1.1" width="65px" height="51px" viewBox="0 0 65 51" content="&lt;mxfile host=&quot;Electron&quot; agent=&quot;Mozilla/5.0 (Windows NT 10.0; Win64; x64) AppleWebKit/537.36 (KHTML, like Gecko) draw.io/29.6.6 Chrome/144.0.7559.236 Electron/40.8.4 Safari/537.36&quot; version=&quot;29.6.6&quot; scale=&quot;1&quot; border=&quot;0&quot;&gt;&#10;  &lt;diagram name=&quot;Página-1&quot; id=&quot;58Q4iLej74Yhcoqce5W3&quot;&gt;&#10;    &lt;mxGraphModel dx=&quot;686&quot; dy=&quot;466&quot; grid=&quot;0&quot; gridSize=&quot;10&quot; guides=&quot;1&quot; tooltips=&quot;1&quot; connect=&quot;1&quot; arrows=&quot;1&quot; fold=&quot;1&quot; page=&quot;1&quot; pageScale=&quot;1&quot; pageWidth=&quot;10&quot; pageHeight=&quot;50&quot; background=&quot;none&quot; math=&quot;0&quot; shadow=&quot;0&quot;&gt;&#10;      &lt;root&gt;&#10;        &lt;mxCell id=&quot;0&quot; /&gt;&#10;        &lt;mxCell id=&quot;1&quot; parent=&quot;0&quot; /&gt;&#10;        &lt;mxCell id=&quot;XoGOKUBx0CQJ7Ejg3S-e-4&quot; parent=&quot;1&quot; style=&quot;sketch=0;points=[[0.015,0.015,0],[0.985,0.015,0],[0.985,0.985,0],[0.015,0.985,0],[0.25,0,0],[0.5,0,0],[0.75,0,0],[1,0.25,0],[1,0.5,0],[1,0.75,0],[0.75,1,0],[0.5,1,0],[0.25,1,0],[0,0.75,0],[0,0.5,0],[0,0.25,0]];verticalLabelPosition=bottom;html=1;verticalAlign=top;aspect=fixed;align=center;pointerEvents=1;shape=mxgraph.cisco19.rect;prIcon=wireless_lan_controller;fillColor=#FAFAFA;strokeColor=#005073;&quot; value=&quot;&quot; vertex=&quot;1&quot;&gt;&#10;          &lt;mxGeometry height=&quot;50&quot; width=&quot;64&quot; x=&quot;103&quot; y=&quot;50&quot; as=&quot;geometry&quot; /&gt;&#10;        &lt;/mxCell&gt;&#10;      &lt;/root&gt;&#10;    &lt;/mxGraphModel&gt;&#10;  &lt;/diagram&gt;&#10;&lt;/mxfile&gt;&#10;"><defs/><g><g data-cell-id="0"><g data-cell-id="1"><g data-cell-id="XoGOKUBx0CQJ7Ejg3S-e-4"><g id="cell-XoGOKUBx0CQJ7Ejg3S-e-4"><g transform="translate(0.5,0.5)"><rect x="0" y="0" width="64" height="50" fill="none" stroke="none" pointer-events="all"/><path d="M 3.02 0 C 1.36 0 0 1.37 0 3.05 L 0 46.95 C 0 48.63 1.36 50 3.02 50 L 60.98 50 C 62.64 50 64 48.63 64 46.95 L 64 3.05 C 64 1.37 62.64 0 60.98 0 Z" fill="#fafafa" stroke="none" pointer-events="all" style="fill: rgb(250, 250, 250);"/><rect x="0" y="0" width="64" height="50" fill="none" stroke="none" pointer-events="all"/><path d="M 36.86 22.89 L 44.25 21.27 L 43.16 24.08 L 49.66 26.65 L 48.8 28.9 L 42.29 26.33 L 41.2 29.14 Z M 26.6 22.89 L 19.21 21.27 L 20.3 24.08 L 13.8 26.65 L 14.66 28.9 L 21.17 26.33 L 22.25 29.14 Z M 31.85 22.87 L 27.67 29.23 L 30.66 29.23 L 30.66 36.29 L 33.05 36.29 L 33.05 29.23 L 36.04 29.23 Z M 31.85 5.24 L 26.46 10.95 L 28.81 10.95 L 28.81 20.8 L 34.9 20.8 L 34.9 10.95 L 37.25 10.95 Z M 49.42 40.15 C 50.49 40.15 51.13 41.02 51.13 41.83 L 51.53 41.83 C 51.53 42 51.31 42.64 50.91 43.13 C 50.51 43.62 49.98 43.99 49.42 43.99 C 48.82 43.99 48.51 43.74 48.2 43.31 C 47.98 43.02 47.79 42.65 47.58 42.27 C 47.59 42.25 47.6 42.24 47.61 42.22 C 47.96 41.57 48.22 40.97 48.48 40.63 C 48.74 40.29 48.89 40.15 49.42 40.15 Z M 39.37 40.15 C 39.73 40.15 39.9 40.28 40.2 40.65 C 40.5 41.03 40.81 41.63 41.2 42.26 C 41.2 42.26 41.2 42.26 41.2 42.27 C 40.97 42.67 40.75 43.05 40.52 43.34 C 40.18 43.77 39.86 43.99 39.37 43.99 C 38.86 43.99 38.55 43.77 38.22 43.36 C 37.98 43.07 37.76 42.69 37.52 42.27 C 37.53 42.26 37.54 42.26 37.54 42.25 C 37.92 41.6 38.23 41.01 38.53 40.64 C 38.82 40.28 38.99 40.15 39.37 40.15 Z M 29.31 40.15 C 29.59 40.15 29.81 40.3 30.14 40.7 C 30.46 41.09 30.79 41.68 31.15 42.26 C 30.92 42.64 30.69 43.01 30.45 43.3 C 30.09 43.74 29.74 43.99 29.31 43.99 C 28.85 43.99 28.55 43.8 28.2 43.41 C 27.96 43.12 27.72 42.73 27.47 42.28 C 27.48 42.26 27.49 42.24 27.5 42.22 C 27.88 41.53 28.21 40.95 28.5 40.6 C 28.8 40.26 28.98 40.15 29.31 40.15 Z M 19.26 40.15 C 19.53 40.15 19.79 40.31 20.12 40.72 C 20.45 41.13 20.77 41.71 21.09 42.25 C 21.09 42.25 21.1 42.26 21.1 42.27 C 20.89 42.63 20.67 42.99 20.43 43.28 C 20.06 43.73 19.69 43.99 19.26 43.99 C 18.82 43.99 18.43 43.74 18.06 43.3 C 17.82 43.02 17.6 42.67 17.41 42.31 C 17.43 42.27 17.45 42.23 17.47 42.19 C 17.73 41.66 18.04 41.09 18.37 40.7 C 18.7 40.31 18.97 40.15 19.26 40.15 Z M 44.39 39.75 C 44.82 39.75 45.16 40.01 45.52 40.47 C 45.75 40.77 45.96 41.12 46.18 41.49 C 45.85 42.08 45.54 42.67 45.23 43.05 C 44.91 43.45 44.69 43.59 44.39 43.59 C 44.1 43.59 43.9 43.45 43.59 43.05 C 43.28 42.67 42.97 42.08 42.6 41.48 C 42.83 41.09 43.05 40.72 43.27 40.43 C 43.63 39.99 43.95 39.75 44.39 39.75 Z M 34.34 39.75 C 34.79 39.75 35.11 39.98 35.46 40.42 C 35.69 40.71 35.91 41.08 36.13 41.47 C 35.77 42.09 35.45 42.68 35.15 43.07 C 34.84 43.46 34.64 43.59 34.34 43.59 C 34.07 43.59 33.85 43.44 33.52 43.02 C 33.21 42.62 32.9 42.04 32.55 41.48 C 32.77 41.11 32.98 40.76 33.21 40.47 C 33.57 40.01 33.91 39.75 34.34 39.75 Z M 24.29 39.75 C 24.56 39.75 24.92 39.95 25.3 40.38 C 25.56 40.67 25.83 41.05 26.08 41.47 C 25.72 42.12 25.35 42.71 25.01 43.09 C 24.66 43.48 24.39 43.59 24.29 43.59 C 24.29 43.59 23.91 43.41 23.53 42.97 C 23.16 42.54 22.79 41.97 22.51 41.49 C 22.73 41.15 22.97 40.8 23.22 40.51 C 23.64 40.03 24.07 39.75 24.29 39.75 Z M 14.24 39.75 C 14.7 39.75 15.08 40.02 15.45 40.47 C 15.67 40.74 15.87 41.08 16.05 41.42 C 16.05 41.44 16.04 41.46 16.03 41.48 C 15.77 42.02 15.46 42.62 15.14 43.02 C 14.81 43.42 14.55 43.59 14.24 43.59 C 13.96 43.59 13.48 43.33 13.1 42.92 C 12.73 42.51 12.52 41.93 12.52 41.83 L 12.13 41.83 C 12.17 41.53 12.42 40.98 12.81 40.55 C 13.23 40.08 13.79 39.75 14.24 39.75 Z M 19.26 38.54 C 18.36 38.54 17.65 39.06 17.15 39.65 C 16.9 39.94 16.69 40.26 16.5 40.58 C 16.37 40.36 16.23 40.15 16.07 39.96 C 15.62 39.4 15.01 38.94 14.24 38.94 C 13.44 38.94 12.74 39.42 12.22 40 C 11.71 40.56 11.35 41.2 11.33 41.83 L 10.92 41.83 C 10.92 42.67 11.35 43.38 11.92 44.01 C 12.49 44.64 13.27 45.21 14.24 45.21 C 15.17 45.21 15.89 44.64 16.38 44.04 C 16.61 43.76 16.8 43.45 16.97 43.16 C 17.11 43.39 17.28 43.62 17.46 43.83 C 17.91 44.36 18.51 44.8 19.26 44.8 C 20.02 44.8 20.61 44.33 21.05 43.79 C 21.24 43.55 21.42 43.29 21.58 43.03 C 21.8 43.37 22.05 43.71 22.32 44.03 C 22.82 44.61 23.39 45.21 24.29 45.21 C 25.09 45.21 25.69 44.73 26.19 44.18 C 26.48 43.85 26.75 43.48 27 43.08 C 27.19 43.39 27.38 43.68 27.6 43.94 C 28.03 44.44 28.6 44.8 29.31 44.8 C 30.06 44.8 30.63 44.35 31.07 43.82 C 31.26 43.57 31.44 43.31 31.61 43.04 C 31.8 43.36 32.01 43.7 32.26 44.02 C 32.73 44.62 33.42 45.21 34.34 45.21 C 35.23 45.21 35.93 44.66 36.4 44.08 C 36.65 43.76 36.86 43.42 37.06 43.08 C 37.23 43.36 37.4 43.62 37.6 43.87 C 38.02 44.39 38.6 44.8 39.37 44.8 C 40.13 44.8 40.72 44.37 41.14 43.85 C 41.33 43.61 41.51 43.34 41.67 43.06 C 41.87 43.4 42.08 43.74 42.33 44.06 C 42.8 44.65 43.49 45.21 44.39 45.21 C 45.29 45.21 45.99 44.67 46.47 44.08 C 46.72 43.77 46.93 43.44 47.12 43.11 C 47.25 43.34 47.39 43.57 47.55 43.8 C 47.96 44.34 48.56 44.8 49.42 44.8 C 50.31 44.8 51.03 44.25 51.53 43.64 C 52.02 43.04 52.33 42.39 52.33 41.83 L 52.73 41.83 C 52.73 40.14 51.36 38.54 49.42 38.54 C 48.44 38.54 47.66 39.05 47.21 39.65 C 46.96 39.97 46.77 40.31 46.61 40.64 C 46.47 40.41 46.32 40.19 46.15 39.98 C 45.72 39.42 45.15 38.94 44.39 38.94 C 43.64 38.94 43.07 39.39 42.65 39.93 C 42.46 40.16 42.3 40.42 42.14 40.68 C 41.93 40.33 41.72 39.97 41.45 39.63 C 40.99 39.06 40.27 38.54 39.37 38.54 C 38.47 38.54 37.75 39.05 37.29 39.62 C 37.02 39.95 36.8 40.31 36.59 40.66 C 36.44 40.4 36.27 40.15 36.08 39.91 C 35.66 39.38 35.08 38.94 34.34 38.94 C 33.58 38.94 33.01 39.42 32.58 39.97 C 32.4 40.2 32.23 40.45 32.08 40.7 C 31.87 40.36 31.65 40 31.37 39.67 C 30.9 39.09 30.22 38.54 29.31 38.54 C 28.48 38.54 27.77 38.99 27.3 39.54 C 27 39.88 26.76 40.27 26.53 40.67 C 26.33 40.36 26.11 40.08 25.89 39.84 C 25.43 39.33 24.91 38.94 24.29 38.94 C 23.61 38.94 23.09 39.43 22.62 39.98 C 22.42 40.21 22.23 40.47 22.06 40.72 C 21.86 40.38 21.63 40.03 21.35 39.69 C 20.88 39.11 20.18 38.54 19.26 38.54 Z M 3.02 0 C 1.36 0 0 1.37 0 3.05 L 0 46.95 C 0 48.63 1.36 50 3.02 50 L 60.98 50 C 62.64 50 64 48.63 64 46.95 L 64 3.05 C 64 1.37 62.64 0 60.98 0 Z M 3.02 1.38 L 60.98 1.38 C 61.91 1.38 62.63 2.11 62.63 3.05 L 62.63 46.95 C 62.63 47.89 61.91 48.62 60.98 48.62 L 3.02 48.62 C 2.09 48.62 1.36 47.89 1.36 46.95 L 1.36 3.05 C 1.36 2.11 2.09 1.38 3.02 1.38 Z" fill="#005073" stroke="none" pointer-events="all" style="fill: rgb(0, 80, 115);"/></g></g></g></g></g></g></svg>