<?xml version="1.0" encoding="UTF-8"?>
<!-- Do not edit this file with editors other than draw.io -->
<!DOCTYPE svg PUBLIC "-//W3C//DTD SVG 1.1//EN" "http://www.w3.org/Graphics/SVG/1.1/DTD/svg11.dtd">
<svg xmlns="http://www.w3.org/2000/svg" style="background: transparent; background-color: transparent; color-scheme: light dark;" xmlns:xlink="http://www.w3.org/1999/xlink" version="1.1" width="51px" height="51px" viewBox="0 0 51 51" content="&lt;mxfile host=&quot;Electron&quot; agent=&quot;Mozilla/5.0 (Windows NT 10.0; Win64; x64) AppleWebKit/537.36 (KHTML, like Gecko) draw.io/29.6.6 Chrome/144.0.7559.236 Electron/40.8.4 Safari/537.36&quot; version=&quot;29.6.6&quot; scale=&quot;1&quot; border=&quot;0&quot;&gt;&#10;  &lt;diagram name=&quot;Página-1&quot; id=&quot;58Q4iLej74Yhcoqce5W3&quot;&gt;&#10;    &lt;mxGraphModel dx=&quot;636&quot; dy=&quot;466&quot; grid=&quot;0&quot; gridSize=&quot;10&quot; guides=&quot;1&quot; tooltips=&quot;1&quot; connect=&quot;1&quot; arrows=&quot;1&quot; fold=&quot;1&quot; page=&quot;1&quot; pageScale=&quot;1&quot; pageWidth=&quot;50&quot; pageHeight=&quot;50&quot; background=&quot;none&quot; math=&quot;0&quot; shadow=&quot;0&quot;&gt;&#10;      &lt;root&gt;&#10;        &lt;mxCell id=&quot;0&quot; /&gt;&#10;        &lt;mxCell id=&quot;1&quot; parent=&quot;0&quot; /&gt;&#10;        &lt;mxCell id=&quot;XoGOKUBx0CQJ7Ejg3S-e-2&quot; parent=&quot;1&quot; style=&quot;sketch=0;points=[[0.015,0.015,0],[0.985,0.015,0],[0.985,0.985,0],[0.015,0.985,0],[0.25,0,0],[0.5,0,0],[0.75,0,0],[1,0.25,0],[1,0.5,0],[1,0.75,0],[0.75,1,0],[0.5,1,0],[0.25,1,0],[0,0.75,0],[0,0.5,0],[0,0.25,0]];verticalLabelPosition=bottom;html=1;verticalAlign=top;aspect=fixed;align=center;pointerEvents=1;shape=mxgraph.cisco19.rect;prIcon=l2_switch;fillColor=#FAFAFA;strokeColor=#005073;&quot; value=&quot;&quot; vertex=&quot;1&quot;&gt;&#10;          &lt;mxGeometry height=&quot;50&quot; width=&quot;50&quot; x=&quot;150&quot; y=&quot;50&quot; as=&quot;geometry&quot; /&gt;&#10;        &lt;/mxCell&gt;&#10;      &lt;/root&gt;&#10;    &lt;/mxGraphModel&gt;&#10;  &lt;/diagram&gt;&#10;&lt;/mxfile&gt;&#10;"><defs/><g><g data-cell-id="0"><g data-cell-id="1"><g data-cell-id="XoGOKUBx0CQJ7Ejg3S-e-2"><g id="cell-XoGOKUBx0CQJ7Ejg3S-e-2"><g transform="translate(0.5,0.5)"><rect x="0" y="0" width="50" height="50" fill="none" stroke="none" pointer-events="all"/><path d="M 3.07 0 C 1.38 0 0 1.37 0 3.05 L 0 46.95 C 0 48.63 1.38 50 3.07 50 L 46.93 50 C 48.62 50 50 48.63 50 46.95 L 50 3.05 C 50 1.37 48.62 0 46.93 0 Z" fill="#fafafa" stroke="none" pointer-events="all" style="fill: rgb(250, 250, 250);"/><rect x="0" y="0" width="50" height="50" fill="none" stroke="none" pointer-events="all"/><path d="M 23.38 40.52 L 23.38 36.53 L 12.78 36.53 L 12.78 33.39 L 3.75 38.71 L 12.78 43.96 L 12.78 40.52 Z M 28.32 21.46 L 28.32 17.48 L 17.73 17.48 L 17.73 14.33 L 8.7 19.66 L 17.73 24.9 L 17.73 21.46 Z M 22.38 31.06 L 22.38 27.08 L 32.98 27.08 L 32.98 23.93 L 42 29.26 L 32.98 34.51 L 32.98 31.06 Z M 26.96 12.32 L 26.96 8.34 L 37.55 8.34 L 37.55 5.2 L 46.58 10.52 L 37.55 15.77 L 37.55 12.32 Z M 3.07 0 C 1.38 0 0 1.37 0 3.05 L 0 46.95 C 0 48.63 1.38 50 3.07 50 L 46.93 50 C 48.62 50 50 48.63 50 46.95 L 50 3.05 C 50 1.37 48.62 0 46.93 0 Z M 3.07 1.38 L 46.93 1.38 C 47.88 1.38 48.62 2.11 48.62 3.05 L 48.62 46.95 C 48.62 47.89 47.88 48.62 46.93 48.62 L 3.07 48.62 C 2.12 48.62 1.38 47.89 1.38 46.95 L 1.38 3.05 C 1.38 2.11 2.12 1.38 3.07 1.38 Z" fill="#005073" stroke="none" pointer-events="all" style="fill: rgb(0, 80, 115);"/></g></g></g></g></g></g></svg>