<?xml version="1.0" encoding="UTF-8"?>
<!-- Do not edit this file with editors other than draw.io -->
<!DOCTYPE svg PUBLIC "-//W3C//DTD SVG 1.1//EN" "http://www.w3.org/Graphics/SVG/1.1/DTD/svg11.dtd">
<svg xmlns="http://www.w3.org/2000/svg" style="background: transparent; background-color: transparent; color-scheme: light dark;" xmlns:xlink="http://www.w3.org/1999/xlink" version="1.1" width="65px" height="51px" viewBox="0 0 65 51" content="&lt;mxfile host=&quot;Electron&quot; agent=&quot;Mozilla/5.0 (Windows NT 10.0; Win64; x64) AppleWebKit/537.36 (KHTML, like Gecko) draw.io/29.6.6 Chrome/144.0.7559.236 Electron/40.8.4 Safari/537.36&quot; version=&quot;29.6.6&quot; scale=&quot;1&quot; border=&quot;0&quot;&gt;&#10;  &lt;diagram name=&quot;Página-1&quot; id=&quot;58Q4iLej74Yhcoqce5W3&quot;&gt;&#10;    &lt;mxGraphModel dx=&quot;696&quot; dy=&quot;426&quot; grid=&quot;0&quot; gridSize=&quot;10&quot; guides=&quot;1&quot; tooltips=&quot;1&quot; connect=&quot;1&quot; arrows=&quot;1&quot; fold=&quot;1&quot; page=&quot;1&quot; pageScale=&quot;1&quot; pageWidth=&quot;10&quot; pageHeight=&quot;10&quot; background=&quot;none&quot; math=&quot;0&quot; shadow=&quot;0&quot;&gt;&#10;      &lt;root&gt;&#10;        &lt;mxCell id=&quot;0&quot; /&gt;&#10;        &lt;mxCell id=&quot;1&quot; parent=&quot;0&quot; /&gt;&#10;        &lt;mxCell id=&quot;XoGOKUBx0CQJ7Ejg3S-e-5&quot; parent=&quot;1&quot; style=&quot;sketch=0;points=[[0.015,0.015,0],[0.985,0.015,0],[0.985,0.985,0],[0.015,0.985,0],[0.25,0,0],[0.5,0,0],[0.75,0,0],[1,0.25,0],[1,0.5,0],[1,0.75,0],[0.75,1,0],[0.5,1,0],[0.25,1,0],[0,0.75,0],[0,0.5,0],[0,0.25,0]];verticalLabelPosition=bottom;html=1;verticalAlign=top;aspect=fixed;align=center;pointerEvents=1;shape=mxgraph.cisco19.rect;prIcon=mesh_access_point;fillColor=#FAFAFA;strokeColor=#005073;&quot; value=&quot;&quot; vertex=&quot;1&quot;&gt;&#10;          &lt;mxGeometry height=&quot;50&quot; width=&quot;64&quot; x=&quot;93&quot; y=&quot;95&quot; as=&quot;geometry&quot; /&gt;&#10;        &lt;/mxCell&gt;&#10;      &lt;/root&gt;&#10;    &lt;/mxGraphModel&gt;&#10;  &lt;/diagram&gt;&#10;&lt;/mxfile&gt;&#10;"><defs/><g><g data-cell-id="0"><g data-cell-id="1"><g data-cell-id="XoGOKUBx0CQJ7Ejg3S-e-5"><g id="cell-XoGOKUBx0CQJ7Ejg3S-e-5"><g transform="translate(0.5,0.5)"><rect x="0" y="0" width="64" height="50" fill="none" stroke="none" pointer-events="all"/><path d="M 3.93 0 C 1.77 0 0 1.37 0 3.05 L 0 46.95 C 0 48.63 1.77 50 3.93 50 L 60.07 50 C 62.23 50 64 48.63 64 46.95 L 64 3.05 C 64 1.37 62.23 0 60.07 0 Z" fill="#fafafa" stroke="none" pointer-events="all" style="fill: rgb(250, 250, 250);"/><rect x="0" y="0" width="64" height="50" fill="none" stroke="none" pointer-events="all"/><path d="M 37.89 11.91 C 37.1 11.91 36.39 12.04 35.74 12.31 C 35.1 12.58 34.6 12.97 34.27 13.5 C 33.93 14.01 33.77 14.57 33.77 15.17 C 33.77 15.71 33.9 16.21 34.17 16.65 C 34.45 17.08 34.87 17.45 35.43 17.75 C 35.86 17.98 36.61 18.23 37.69 18.49 C 38.77 18.75 39.46 18.94 39.78 19.06 C 40.27 19.25 40.62 19.49 40.83 19.77 C 41.05 20.04 41.15 20.36 41.15 20.74 C 41.15 21.1 41.04 21.44 40.82 21.75 C 40.6 22.06 40.26 22.3 39.81 22.48 C 39.36 22.66 38.83 22.75 38.24 22.75 C 37.58 22.75 36.98 22.63 36.44 22.4 C 35.91 22.16 35.52 21.86 35.26 21.48 C 35.01 21.1 34.85 20.61 34.78 20.02 L 33.32 20.15 C 33.34 20.94 33.55 21.65 33.96 22.28 C 34.37 22.9 34.93 23.37 35.64 23.68 C 36.36 24 37.25 24.15 38.31 24.15 C 39.15 24.15 39.9 24 40.57 23.69 C 41.24 23.38 41.76 22.95 42.11 22.39 C 42.47 21.83 42.65 21.24 42.65 20.61 C 42.65 19.97 42.49 19.41 42.16 18.93 C 41.84 18.44 41.33 18.03 40.65 17.71 C 40.18 17.5 39.31 17.25 38.05 16.96 C 36.79 16.67 36.01 16.39 35.72 16.11 C 35.41 15.84 35.26 15.49 35.26 15.06 C 35.26 14.57 35.47 14.16 35.9 13.81 C 36.33 13.46 37.02 13.29 37.95 13.29 C 38.86 13.29 39.54 13.48 39.99 13.86 C 40.46 14.24 40.73 14.81 40.81 15.56 L 42.3 15.44 C 42.27 14.75 42.08 14.13 41.72 13.58 C 41.36 13.03 40.85 12.61 40.19 12.33 C 39.52 12.05 38.76 11.91 37.89 11.91 Z M 9.2 12.11 L 9.2 23.95 L 10.7 23.95 L 10.7 13.87 L 14.09 23.95 L 15.49 23.95 L 18.89 14.04 L 18.89 23.95 L 20.39 23.95 L 20.39 12.11 L 18.3 12.11 L 15.5 20.35 C 15.21 21.18 15.01 21.82 14.87 22.25 C 14.76 21.86 14.57 21.27 14.31 20.49 L 11.54 12.11 Z M 22.94 12.11 L 22.94 23.95 L 31.69 23.95 L 31.69 22.55 L 24.49 22.55 L 24.49 18.52 L 30.97 18.52 L 30.97 17.13 L 24.49 17.13 L 24.49 13.5 L 31.41 13.5 L 31.41 12.11 Z M 44.83 12.11 L 44.83 23.95 L 46.38 23.95 L 46.38 18.37 L 52.47 18.37 L 52.47 23.95 L 54.03 23.95 L 54.03 12.11 L 52.47 12.11 L 52.47 16.97 L 46.38 16.97 L 46.38 12.11 Z M 15.75 29.68 C 14.58 29.68 13.66 30.36 13.02 31.11 C 12.69 31.5 12.42 31.91 12.18 32.32 C 12.01 32.05 11.82 31.77 11.62 31.52 C 11.04 30.8 10.25 30.2 9.25 30.2 C 8.22 30.2 7.31 30.83 6.63 31.58 C 5.98 32.3 5.51 33.13 5.48 33.94 L 4.96 33.94 C 4.96 35.03 5.51 35.94 6.25 36.76 C 6.99 37.58 7.99 38.31 9.25 38.31 C 10.45 38.31 11.39 37.58 12.02 36.8 C 12.31 36.43 12.56 36.04 12.78 35.66 C 12.97 35.96 13.18 36.26 13.41 36.53 C 14 37.22 14.78 37.78 15.75 37.78 C 16.73 37.78 17.49 37.18 18.06 36.48 C 18.31 36.17 18.54 35.83 18.75 35.5 C 19.03 35.93 19.35 36.37 19.7 36.78 C 20.35 37.53 21.08 38.31 22.25 38.31 C 23.28 38.31 24.07 37.69 24.71 36.98 C 25.09 36.56 25.44 36.07 25.76 35.56 C 26.01 35.96 26.26 36.34 26.54 36.67 C 27.1 37.31 27.84 37.78 28.76 37.78 C 29.72 37.78 30.46 37.2 31.02 36.51 C 31.28 36.2 31.51 35.85 31.73 35.51 C 31.98 35.93 32.25 36.36 32.57 36.78 C 33.17 37.55 34.07 38.31 35.26 38.31 C 36.42 38.31 37.32 37.61 37.92 36.85 C 38.25 36.44 38.53 36 38.78 35.55 C 39 35.91 39.22 36.26 39.47 36.58 C 40.02 37.25 40.77 37.78 41.76 37.78 C 42.76 37.78 43.51 37.23 44.06 36.56 C 44.31 36.24 44.53 35.89 44.75 35.53 C 45 35.97 45.28 36.42 45.61 36.83 C 46.2 37.59 47.1 38.31 48.27 38.31 C 49.43 38.31 50.34 37.61 50.96 36.85 C 51.28 36.45 51.55 36.02 51.8 35.59 C 51.97 35.9 52.15 36.2 52.36 36.48 C 52.88 37.19 53.67 37.78 54.77 37.78 C 55.93 37.78 56.87 37.08 57.5 36.29 C 58.14 35.5 58.54 34.67 58.54 33.94 L 59.06 33.94 C 59.06 31.76 57.28 29.68 54.77 29.68 C 53.51 29.68 52.5 30.34 51.91 31.11 C 51.59 31.53 51.35 31.97 51.14 32.4 C 50.95 32.11 50.76 31.81 50.55 31.54 C 49.99 30.83 49.25 30.2 48.27 30.2 C 47.3 30.2 46.56 30.78 46.01 31.48 C 45.77 31.79 45.56 32.12 45.35 32.45 C 45.09 32 44.81 31.53 44.46 31.1 C 43.86 30.36 42.94 29.68 41.76 29.68 C 40.6 29.68 39.67 30.34 39.07 31.08 C 38.72 31.51 38.44 31.97 38.18 32.43 C 37.97 32.09 37.76 31.76 37.52 31.46 C 36.96 30.77 36.22 30.2 35.26 30.2 C 34.28 30.2 33.53 30.82 32.98 31.53 C 32.75 31.83 32.54 32.15 32.34 32.48 C 32.07 32.03 31.77 31.57 31.42 31.14 C 30.81 30.4 29.92 29.68 28.76 29.68 C 27.68 29.68 26.77 30.26 26.15 30.98 C 25.77 31.42 25.45 31.91 25.15 32.44 C 24.89 32.04 24.62 31.68 24.33 31.36 C 23.74 30.7 23.06 30.2 22.25 30.2 C 21.38 30.2 20.7 30.84 20.09 31.55 C 19.84 31.85 19.59 32.17 19.36 32.5 C 19.11 32.07 18.81 31.61 18.46 31.17 C 17.84 30.42 16.94 29.68 15.75 29.68 Z M 9.25 31.25 C 9.85 31.25 10.34 31.59 10.81 32.18 C 11.1 32.54 11.36 32.97 11.6 33.42 C 11.59 33.44 11.58 33.46 11.57 33.48 C 11.22 34.19 10.83 34.96 10.41 35.48 C 9.99 36 9.65 36.22 9.25 36.22 C 8.89 36.22 8.27 35.89 7.78 35.35 C 7.3 34.82 7.03 34.07 7.03 33.94 L 6.52 33.94 C 6.57 33.55 6.9 32.84 7.4 32.28 C 7.95 31.67 8.66 31.25 9.25 31.25 Z M 22.25 31.25 C 22.61 31.25 23.07 31.51 23.56 32.06 C 23.9 32.44 24.24 32.93 24.58 33.48 C 24.11 34.32 23.62 35.08 23.18 35.57 C 22.73 36.07 22.38 36.22 22.25 36.22 C 22.26 36.22 21.76 35.99 21.27 35.41 C 20.8 34.86 20.32 34.12 19.95 33.5 C 20.23 33.06 20.55 32.61 20.88 32.23 C 21.41 31.61 21.97 31.25 22.25 31.25 Z M 35.26 31.25 C 35.84 31.25 36.26 31.55 36.71 32.12 C 37.01 32.49 37.29 32.97 37.58 33.48 C 37.11 34.28 36.7 35.05 36.31 35.54 C 35.9 36.05 35.65 36.22 35.26 36.22 C 34.92 36.22 34.62 36.02 34.2 35.48 C 33.8 34.97 33.39 34.21 32.95 33.49 C 33.22 33.02 33.5 32.55 33.79 32.18 C 34.26 31.58 34.7 31.25 35.26 31.25 Z M 48.27 31.25 C 48.82 31.25 49.27 31.59 49.73 32.19 C 50.02 32.56 50.3 33.03 50.58 33.5 C 50.16 34.27 49.75 35.03 49.35 35.52 C 48.94 36.03 48.65 36.22 48.27 36.22 C 47.89 36.22 47.63 36.04 47.23 35.53 C 46.83 35.03 46.42 34.26 45.95 33.48 C 46.24 32.98 46.53 32.51 46.82 32.13 C 47.28 31.56 47.7 31.25 48.27 31.25 Z M 15.75 31.77 C 16.1 31.77 16.43 31.98 16.86 32.51 C 17.29 33.03 17.7 33.79 18.11 34.48 C 18.12 34.49 18.12 34.5 18.13 34.51 C 17.86 34.97 17.57 35.43 17.26 35.81 C 16.78 36.4 16.31 36.74 15.75 36.74 C 15.18 36.74 14.68 36.41 14.2 35.85 C 13.89 35.48 13.6 35.03 13.35 34.56 C 13.37 34.51 13.4 34.45 13.43 34.4 C 13.76 33.72 14.16 32.98 14.59 32.48 C 15.02 31.98 15.38 31.77 15.75 31.77 Z M 28.76 31.77 C 29.11 31.77 29.4 31.96 29.82 32.47 C 30.24 32.99 30.67 33.75 31.13 34.49 C 30.83 34.98 30.54 35.46 30.22 35.85 C 29.76 36.42 29.31 36.74 28.76 36.74 C 28.16 36.74 27.76 36.49 27.32 35.98 C 27 35.61 26.7 35.11 26.37 34.53 C 26.38 34.5 26.4 34.48 26.41 34.45 C 26.9 33.55 27.33 32.8 27.71 32.35 C 28.09 31.9 28.32 31.77 28.76 31.77 Z M 41.76 31.77 C 42.23 31.77 42.46 31.93 42.85 32.42 C 43.24 32.9 43.64 33.68 44.14 34.49 C 44.14 34.5 44.14 34.5 44.14 34.5 C 43.84 35.03 43.55 35.52 43.25 35.9 C 42.81 36.45 42.41 36.74 41.76 36.74 C 41.11 36.74 40.71 36.45 40.28 35.91 C 39.97 35.54 39.69 35.05 39.38 34.51 C 39.39 34.5 39.4 34.49 39.4 34.48 C 39.89 33.65 40.29 32.88 40.68 32.4 C 41.06 31.93 41.29 31.77 41.76 31.77 Z M 54.77 31.77 L 54.77 31.77 C 56.16 31.77 56.99 32.89 56.99 33.94 L 57.51 33.94 C 57.51 34.16 57.22 34.99 56.7 35.63 C 56.19 36.26 55.5 36.74 54.77 36.74 C 54 36.74 53.6 36.42 53.19 35.86 C 52.91 35.49 52.67 35.01 52.4 34.51 C 52.41 34.49 52.42 34.47 52.43 34.45 C 52.89 33.6 53.22 32.83 53.56 32.39 C 53.89 31.94 54.09 31.77 54.77 31.77 Z M 3.02 0 C 1.36 0 0 1.37 0 3.05 L 0 46.95 C 0 48.63 1.36 50 3.02 50 L 60.98 50 C 62.64 50 64 48.63 64 46.95 L 64 3.05 C 64 1.37 62.64 0 60.98 0 Z M 3.02 1.38 L 60.98 1.38 C 61.91 1.38 62.64 2.11 62.64 3.05 L 62.64 46.95 C 62.64 47.89 61.91 48.62 60.98 48.62 L 3.02 48.62 C 2.09 48.62 1.36 47.89 1.36 46.95 L 1.36 3.05 C 1.36 2.11 2.09 1.38 3.02 1.38 Z" fill="#005073" stroke="none" pointer-events="all" style="fill: rgb(0, 80, 115);"/></g></g></g></g></g></g></svg>