<?xml version="1.0" encoding="UTF-8"?>
<!-- Do not edit this file with editors other than draw.io -->
<!DOCTYPE svg PUBLIC "-//W3C//DTD SVG 1.1//EN" "http://www.w3.org/Graphics/SVG/1.1/DTD/svg11.dtd">
<svg xmlns="http://www.w3.org/2000/svg" style="background: transparent; background-color: transparent; color-scheme: light dark;" xmlns:xlink="http://www.w3.org/1999/xlink" version="1.1" width="78px" height="66px" viewBox="0 0 78 66" content="&lt;mxfile host=&quot;Electron&quot; agent=&quot;Mozilla/5.0 (Windows NT 10.0; Win64; x64) AppleWebKit/537.36 (KHTML, like Gecko) draw.io/29.6.6 Chrome/144.0.7559.236 Electron/40.8.4 Safari/537.36&quot; version=&quot;29.6.6&quot; scale=&quot;1&quot; border=&quot;0&quot;&gt;&#10;  &lt;diagram name=&quot;Página-1&quot; id=&quot;58Q4iLej74Yhcoqce5W3&quot;&gt;&#10;    &lt;mxGraphModel dx=&quot;706&quot; dy=&quot;436&quot; grid=&quot;0&quot; gridSize=&quot;10&quot; guides=&quot;1&quot; tooltips=&quot;1&quot; connect=&quot;1&quot; arrows=&quot;1&quot; fold=&quot;1&quot; page=&quot;1&quot; pageScale=&quot;1&quot; pageWidth=&quot;10&quot; pageHeight=&quot;10&quot; background=&quot;none&quot; math=&quot;0&quot; shadow=&quot;0&quot;&gt;&#10;      &lt;root&gt;&#10;        &lt;mxCell id=&quot;0&quot; /&gt;&#10;        &lt;mxCell id=&quot;1&quot; parent=&quot;0&quot; /&gt;&#10;        &lt;mxCell id=&quot;XoGOKUBx0CQJ7Ejg3S-e-11&quot; parent=&quot;1&quot; style=&quot;sketch=0;outlineConnect=0;fontColor=#232F3E;gradientColor=none;fillColor=#FF3333;strokeColor=none;dashed=0;verticalLabelPosition=bottom;verticalAlign=top;align=center;html=1;fontSize=12;fontStyle=0;aspect=fixed;pointerEvents=1;shape=mxgraph.aws4.generic_firewall;&quot; value=&quot;&quot; vertex=&quot;1&quot;&gt;&#10;          &lt;mxGeometry height=&quot;66&quot; width=&quot;78&quot; x=&quot;86&quot; y=&quot;87&quot; as=&quot;geometry&quot; /&gt;&#10;        &lt;/mxCell&gt;&#10;      &lt;/root&gt;&#10;    &lt;/mxGraphModel&gt;&#10;  &lt;/diagram&gt;&#10;&lt;/mxfile&gt;&#10;"><defs/><g><g data-cell-id="0"><g data-cell-id="1"><g data-cell-id="XoGOKUBx0CQJ7Ejg3S-e-11"><g id="cell-XoGOKUBx0CQJ7Ejg3S-e-11"><g transform="translate(0.5,0.5)"><rect x="0" y="0" width="78" height="66" fill="none" stroke="none" pointer-events="all"/><path d="M 58.57 53.86 L 74.14 53.86 L 74.14 47.46 L 58.57 47.46 Z M 56.38 57.29 L 44.73 57.29 L 44.73 62.57 L 60.11 62.57 L 60.11 57.29 L 56.85 57.29 Z M 38.32 53.86 L 55.14 53.86 L 55.14 47.46 L 38.32 47.46 Z M 56.85 44.03 L 67.1 44.03 L 67.1 37.25 L 51.71 37.25 L 51.71 44.03 L 56.38 44.03 Z M 77.57 45.75 L 77.57 55.58 C 77.57 56.53 76.8 57.29 75.85 57.29 L 63.55 57.29 L 63.55 64.28 C 63.55 65.23 62.78 66 61.83 66 L 43.01 66 C 42.07 66 41.3 65.23 41.3 64.28 L 41.3 57.29 L 36.61 57.29 C 35.66 57.29 34.89 56.53 34.89 55.58 L 34.89 45.75 C 34.89 44.8 35.66 44.03 36.61 44.03 L 48.28 44.03 L 48.28 35.53 C 48.28 34.59 49.05 33.82 49.99 33.82 L 68.81 33.82 C 69.76 33.82 70.53 34.59 70.53 35.53 L 70.53 44.03 L 75.85 44.03 C 76.8 44.03 77.57 44.8 77.57 45.75 Z M 39.14 34.46 C 39.03 35.16 39.36 35.86 39.97 36.22 C 40.58 36.58 41.35 36.52 41.9 36.08 C 42.07 35.95 45.48 33.15 46.98 26.32 C 47.66 27.2 48.39 28.41 48.96 30.05 L 52.2 28.93 C 50.31 23.46 46.77 21.48 46.62 21.4 C 46.11 21.13 45.51 21.12 45 21.39 C 44.49 21.66 44.15 22.16 44.09 22.73 C 43.88 24.77 43.47 26.48 42.99 27.89 C 42.29 9.99 26.76 3.89 26.59 3.82 C 25.79 3.52 24.89 3.85 24.47 4.6 C 24.06 5.35 24.26 6.28 24.95 6.8 C 29.72 10.4 31.9 16.5 30.94 23.46 L 30.53 25.68 C 29.94 28.24 28.97 30.75 27.59 33.21 L 26.39 35.57 C 20.57 48.52 25.5 61.5 25.71 62.04 C 25.97 62.71 26.61 63.14 27.31 63.14 C 27.35 63.14 27.4 63.14 27.44 63.13 C 27.53 63.13 29.61 62.96 32.54 62.27 L 31.75 58.93 C 30.43 59.24 29.31 59.43 28.5 59.55 C 27.5 56.16 25.28 46.42 29.49 37.05 L 30.61 34.82 C 32.12 32.15 33.22 29.33 33.89 26.37 L 34.32 24.01 C 34.9 19.87 34.53 15.99 33.29 12.6 C 37.26 16.8 40.88 23.72 39.14 34.46 Z M 19.96 4.97 C 19.14 4.54 17.89 4.15 16.69 4.09 C 19.43 7.61 23.35 15.04 19.42 25.85 C 19.19 26.48 18.61 26.92 17.94 26.98 C 17.29 27.05 16.64 26.69 16.31 26.1 C 15.25 24.19 12.25 19.87 8.95 18.18 C 10.1 22.36 11.39 29.94 7.8 35.41 C 7.62 35.68 7.45 35.95 7.29 36.22 C 4.15 41.58 5.22 48.14 10.04 52.94 C 10.05 52.96 11.24 54.11 14.32 55.89 C 18.11 58.08 19.6 58.72 19.61 58.72 L 18.28 61.88 C 18.21 61.86 16.64 61.19 12.6 58.86 C 9.12 56.85 7.75 55.51 7.61 55.37 C 1.75 49.53 0.43 41.13 4.33 34.48 C 4.52 34.16 4.72 33.84 4.93 33.52 C 9.06 27.26 4.82 16.51 4.77 16.41 C 4.56 15.88 4.62 15.28 4.94 14.81 C 5.26 14.33 5.8 14.05 6.37 14.05 C 10.94 14.05 14.9 18.19 17.19 21.24 C 19.51 10.4 12.69 4.7 12.37 4.44 C 11.94 4.09 11.7 3.55 11.73 3 C 11.77 2.44 12.06 1.94 12.54 1.65 C 15.19 0 19.07 0.63 21.55 1.92 Z" fill="#ff3333" stroke="none" pointer-events="all" style="fill: rgb(255, 51, 51);"/></g></g></g></g></g></g></svg>