<?xml version="1.0" encoding="UTF-8"?>
<!-- Do not edit this file with editors other than draw.io -->
<!DOCTYPE svg PUBLIC "-//W3C//DTD SVG 1.1//EN" "http://www.w3.org/Graphics/SVG/1.1/DTD/svg11.dtd">
<svg xmlns="http://www.w3.org/2000/svg" style="background: transparent; background-color: transparent; color-scheme: light dark;" xmlns:xlink="http://www.w3.org/1999/xlink" version="1.1" width="79px" height="79px" viewBox="0 0 79 79" content="&lt;mxfile host=&quot;Electron&quot; agent=&quot;Mozilla/5.0 (Windows NT 10.0; Win64; x64) AppleWebKit/537.36 (KHTML, like Gecko) draw.io/29.6.6 Chrome/144.0.7559.236 Electron/40.8.4 Safari/537.36&quot; version=&quot;29.6.6&quot; scale=&quot;1&quot; border=&quot;0&quot;&gt;&#10;  &lt;diagram name=&quot;Página-1&quot; id=&quot;58Q4iLej74Yhcoqce5W3&quot;&gt;&#10;    &lt;mxGraphModel dx=&quot;706&quot; dy=&quot;436&quot; grid=&quot;0&quot; gridSize=&quot;10&quot; guides=&quot;1&quot; tooltips=&quot;1&quot; connect=&quot;1&quot; arrows=&quot;1&quot; fold=&quot;1&quot; page=&quot;1&quot; pageScale=&quot;1&quot; pageWidth=&quot;10&quot; pageHeight=&quot;10&quot; background=&quot;none&quot; math=&quot;0&quot; shadow=&quot;0&quot;&gt;&#10;      &lt;root&gt;&#10;        &lt;mxCell id=&quot;0&quot; /&gt;&#10;        &lt;mxCell id=&quot;1&quot; parent=&quot;0&quot; /&gt;&#10;        &lt;mxCell id=&quot;XoGOKUBx0CQJ7Ejg3S-e-12&quot; parent=&quot;1&quot; style=&quot;sketch=0;points=[[0,0,0],[0.25,0,0],[0.5,0,0],[0.75,0,0],[1,0,0],[0,1,0],[0.25,1,0],[0.5,1,0],[0.75,1,0],[1,1,0],[0,0.25,0],[0,0.5,0],[0,0.75,0],[1,0.25,0],[1,0.5,0],[1,0.75,0]];outlineConnect=0;fontColor=#232F3E;fillColor=#DD344C;strokeColor=#ffffff;dashed=0;verticalLabelPosition=bottom;verticalAlign=top;align=center;html=1;fontSize=12;fontStyle=0;aspect=fixed;shape=mxgraph.aws4.resourceIcon;resIcon=mxgraph.aws4.network_firewall;&quot; value=&quot;&quot; vertex=&quot;1&quot;&gt;&#10;          &lt;mxGeometry height=&quot;78&quot; width=&quot;78&quot; x=&quot;86&quot; y=&quot;81&quot; as=&quot;geometry&quot; /&gt;&#10;        &lt;/mxCell&gt;&#10;      &lt;/root&gt;&#10;    &lt;/mxGraphModel&gt;&#10;  &lt;/diagram&gt;&#10;&lt;/mxfile&gt;&#10;"><defs/><g><g data-cell-id="0"><g data-cell-id="1"><g data-cell-id="XoGOKUBx0CQJ7Ejg3S-e-12"><g id="cell-XoGOKUBx0CQJ7Ejg3S-e-12"><g transform="translate(0.5,0.5)"><path d="M 0 0 L 78 0 L 78 78 L 0 78 Z" fill="#dd344c" stroke="none" pointer-events="all" style="fill: rgb(221, 52, 76);"/><path d="M 67.5 59.24 L 57.64 59.24 L 54.35 59.24 L 54.35 52.66 L 64.22 52.66 L 67.5 52.66 Z M 56.54 68.01 L 43.39 68.01 L 43.39 61.43 L 53.25 61.43 L 56.54 61.43 Z M 33.07 65.8 C 28.5 65.8 24.3 63.49 21.85 59.63 C 19.89 56.55 19.85 52.58 21.76 49.25 L 21.82 49.14 C 24.11 45.66 23.29 40.82 22.56 38.16 C 24.66 39.24 26.57 41.99 27.25 43.2 C 27.46 43.58 27.87 43.8 28.29 43.77 C 28.72 43.73 29.09 43.45 29.23 43.05 C 31.34 37.27 29.93 33.01 28.38 30.46 C 29.76 30.93 31.44 31.65 33.1 32.7 C 38.16 35.89 40.72 40.55 40.72 46.55 C 40.72 46.85 40.85 47.14 41.06 47.34 C 41.28 47.55 41.57 47.65 41.87 47.65 C 43.17 47.59 45.54 46.58 46.63 43.4 C 46.66 43.55 46.67 43.71 46.67 43.89 L 46.67 50.47 L 36.81 50.47 C 36.2 50.47 35.71 50.96 35.71 51.56 L 35.71 60.33 C 35.71 60.94 36.2 61.43 36.81 61.43 L 41.19 61.43 L 41.19 63.13 C 39.3 64.82 36.37 65.8 33.07 65.8 Z M 15.06 46.35 C 12.98 44.94 10.5 42.26 10.5 37.55 C 10.5 31.02 15.04 28.88 17.75 28.18 C 18.25 28.05 18.6 27.58 18.57 27.05 L 18.46 25.26 C 18.46 20.06 22.04 14.46 26.62 12.51 C 34.53 9.16 40.14 13.57 42.18 15.63 C 43.85 17.3 45.15 19.44 46.04 21.99 C 46.18 22.37 46.51 22.65 46.92 22.71 C 47.31 22.77 47.72 22.6 47.96 22.27 C 49.32 20.43 51.65 19.67 53.77 20.36 C 56.15 21.14 57.52 23.46 57.54 26.73 L 57.53 26.77 C 57.45 27.36 57.85 27.91 58.43 28.01 C 60.49 28.37 67.23 30.11 67.23 37.64 C 67.23 40.05 66.58 42.05 65.31 43.62 L 65.31 42.79 C 65.31 42.19 64.82 41.7 64.22 41.7 L 48.31 41.7 C 47.63 40.47 46.57 39.94 46.5 39.91 C 46.18 39.77 45.81 39.79 45.5 39.96 C 45.2 40.14 44.99 40.45 44.96 40.8 C 44.69 43.37 43.68 44.53 42.86 45.04 C 42.34 37.47 37.93 33.14 34.2 30.8 C 29.96 28.15 25.76 27.48 25.59 27.45 C 25.1 27.38 24.62 27.64 24.42 28.1 C 24.22 28.55 24.35 29.08 24.73 29.39 C 24.94 29.56 29.29 33.19 27.81 40.1 C 26.35 38.15 23.82 35.52 20.91 35.52 C 20.54 35.52 20.2 35.7 20 36 C 19.79 36.3 19.75 36.69 19.89 37.02 C 19.91 37.09 22.32 43.22 20.36 47.26 L 20.36 47.18 L 17.77 47.18 C 16.8 47.18 15.87 46.89 15.06 46.35 Z M 53.25 50.47 L 48.87 50.47 L 48.87 43.89 L 63.12 43.89 L 63.12 50.47 Z M 52.16 59.24 L 42.29 59.24 L 37.9 59.24 L 37.9 52.66 L 47.77 52.66 L 52.16 52.66 Z M 68.6 50.47 L 65.31 50.47 L 65.31 46.66 C 67.99 44.56 69.42 41.45 69.42 37.64 C 69.42 29.32 62.84 26.77 59.71 26.03 C 59.48 22.17 57.55 19.3 54.45 18.28 C 52.02 17.48 49.4 18.02 47.47 19.63 C 46.51 17.47 45.26 15.61 43.74 14.08 C 38.83 9.14 32.11 7.8 25.76 10.5 C 20.35 12.79 16.27 19.14 16.27 25.32 L 16.33 26.31 C 13.37 27.28 8.3 30.05 8.3 37.55 C 8.3 43.52 11.77 46.76 13.84 48.16 C 15 48.95 16.36 49.37 17.77 49.37 L 19.26 49.37 C 17.59 53.13 17.83 57.41 20 60.81 C 22.86 65.31 27.75 67.99 33.07 67.99 C 36.16 67.99 39 67.23 41.19 65.87 L 41.19 69.1 C 41.19 69.71 41.68 70.2 42.29 70.2 L 57.64 70.2 C 58.24 70.2 58.73 69.71 58.73 69.1 L 58.73 61.43 L 68.6 61.43 C 69.21 61.43 69.7 60.94 69.7 60.33 L 69.7 51.56 C 69.7 50.96 69.21 50.47 68.6 50.47 Z" fill="#ffffff" stroke="none" pointer-events="all" style="fill: rgb(255, 255, 255);"/></g></g></g></g></g></g></svg>