<?xml version="1.0" encoding="UTF-8"?>
<!-- Do not edit this file with editors other than draw.io -->
<!DOCTYPE svg PUBLIC "-//W3C//DTD SVG 1.1//EN" "http://www.w3.org/Graphics/SVG/1.1/DTD/svg11.dtd">
<svg xmlns="http://www.w3.org/2000/svg" style="background: transparent; background-color: transparent; color-scheme: light dark;" xmlns:xlink="http://www.w3.org/1999/xlink" version="1.1" width="108px" height="104px" viewBox="0 0 108 104" content="&lt;mxfile host=&quot;Electron&quot; agent=&quot;Mozilla/5.0 (Windows NT 10.0; Win64; x64) AppleWebKit/537.36 (KHTML, like Gecko) draw.io/29.6.6 Chrome/144.0.7559.236 Electron/40.8.4 Safari/537.36&quot; version=&quot;29.6.6&quot; scale=&quot;1&quot; border=&quot;0&quot;&gt;&#10;  &lt;diagram name=&quot;Página-1&quot; id=&quot;58Q4iLej74Yhcoqce5W3&quot;&gt;&#10;    &lt;mxGraphModel dx=&quot;716&quot; dy=&quot;456&quot; grid=&quot;0&quot; gridSize=&quot;10&quot; guides=&quot;1&quot; tooltips=&quot;1&quot; connect=&quot;1&quot; arrows=&quot;1&quot; fold=&quot;1&quot; page=&quot;1&quot; pageScale=&quot;1&quot; pageWidth=&quot;10&quot; pageHeight=&quot;10&quot; background=&quot;none&quot; math=&quot;0&quot; shadow=&quot;0&quot;&gt;&#10;      &lt;root&gt;&#10;        &lt;mxCell id=&quot;0&quot; /&gt;&#10;        &lt;mxCell id=&quot;1&quot; parent=&quot;0&quot; /&gt;&#10;        &lt;mxCell id=&quot;XoGOKUBx0CQJ7Ejg3S-e-9&quot; parent=&quot;1&quot; style=&quot;pointerEvents=1;shadow=0;dashed=0;html=1;strokeColor=none;fillColor=#4495D1;labelPosition=center;verticalLabelPosition=bottom;verticalAlign=top;align=center;outlineConnect=0;shape=mxgraph.veeam.hyper_v_host;&quot; value=&quot;&quot; vertex=&quot;1&quot;&gt;&#10;          &lt;mxGeometry height=&quot;104&quot; width=&quot;108&quot; x=&quot;71&quot; y=&quot;68&quot; as=&quot;geometry&quot; /&gt;&#10;        &lt;/mxCell&gt;&#10;      &lt;/root&gt;&#10;    &lt;/mxGraphModel&gt;&#10;  &lt;/diagram&gt;&#10;&lt;/mxfile&gt;&#10;"><defs/><g><g data-cell-id="0"><g data-cell-id="1"><g data-cell-id="XoGOKUBx0CQJ7Ejg3S-e-9"><g id="cell-XoGOKUBx0CQJ7Ejg3S-e-9"><g transform="translate(0.5,0.5)"><rect x="0" y="0" width="108" height="104" fill="none" stroke="none" pointer-events="all"/><path d="M 43.74 84.81 L 0.21 59.54 L 107.77 59.54 L 62.89 84.81 Z" fill="#d1d3d4" stroke="none" pointer-events="all" style="fill: rgb(209, 211, 212);"/><rect x="0" y="0" width="0" height="0" fill="none" stroke="none" pointer-events="all"/><path d="M 107.81 59.54 L 0.19 59.54 L 0.19 26.66 L 107.81 26.66 Z" fill="#ef8f21" stroke="none" pointer-events="all" style="fill: rgb(239, 143, 33);"/><rect x="0" y="0" width="0" height="0" fill="none" stroke="none" pointer-events="all"/><path d="M 83.46 24.3 L 83.46 0 L 108 0 L 108 24.3 Z M 55.63 24.3 L 55.63 0 L 80.19 0 L 80.19 24.3 Z M 27.81 24.3 L 27.81 0 L 52.37 0 L 52.37 24.3 Z M 0 24.3 L 0 0 L 24.56 0 L 24.56 24.3 Z M 24.38 104 C 20.71 104 17.24 100.95 17.24 96.88 L 17.24 84.81 L 83.39 84.81 C 88.06 84.81 90.76 88.56 90.76 91.92 L 90.76 104 Z" fill="#4495d1" stroke="none" pointer-events="all" style="fill: rgb(68, 149, 209);"/><path d="M 95.1 15.62 L 95.54 9.03 L 97.55 9.03 L 98.79 13.24 L 100.16 9.03 L 102.14 9.03 L 102.5 15.62 L 101.03 15.62 L 100.81 10.61 L 99.27 15.62 L 98.08 15.62 L 96.74 10.78 L 96.5 15.62 Z M 90.51 15.62 L 88.36 9.03 L 90.02 9.03 L 91.44 13.97 L 92.93 9.03 L 94.54 9.03 L 92.28 15.62 Z M 67.29 15.63 L 67.72 9.05 L 69.74 9.05 L 70.96 13.24 L 72.34 9.05 L 74.32 9.05 L 74.69 15.63 L 73.22 15.63 L 72.99 10.61 L 71.45 15.63 L 70.26 15.63 L 68.93 10.78 L 68.69 15.63 Z M 62.7 15.63 L 60.55 9.05 L 62.21 9.05 L 63.63 13.99 L 65.12 9.05 L 66.71 9.05 L 64.47 15.63 Z M 39.47 15.62 L 39.91 9.03 L 41.9 9.03 L 43.15 13.23 L 44.53 9.03 L 46.51 9.03 L 46.88 15.62 L 45.41 15.62 L 45.18 10.61 L 43.64 15.62 L 42.43 15.62 L 41.12 10.78 L 40.85 15.62 Z M 34.89 15.62 L 32.73 9.03 L 34.38 9.03 L 35.8 13.97 L 37.3 9.03 L 38.89 9.03 L 36.65 15.62 Z M 11.64 15.62 L 12.1 9.03 L 14.09 9.03 L 15.33 13.24 L 16.7 9.03 L 18.68 9.03 L 19.06 15.62 L 17.59 15.62 L 17.36 10.61 L 15.81 15.62 L 14.62 15.62 L 13.29 10.78 L 13.04 15.62 Z M 7.05 15.62 L 4.92 9.03 L 6.56 9.03 L 7.98 13.97 L 9.47 9.03 L 11.08 9.03 L 8.82 15.62 Z M 73.32 47.11 L 70.44 38.19 L 72.68 38.17 L 74.62 44.74 L 76.6 38.17 L 78.75 38.17 L 75.72 47.11 Z M 66.73 44.3 L 66.73 42.97 L 70.24 42.97 L 70.24 44.3 Z M 62.05 47.11 C 62.05 44.36 62.09 42.17 62 40.63 L 63.75 40.63 L 63.82 41.86 C 64.31 40.63 65.34 40.35 66.08 40.51 L 66.06 42.4 C 64.87 42.17 64.08 42.71 64.08 43.84 L 64.08 47.11 Z M 56.52 43.14 L 58.92 43.14 C 58.94 42.62 58.71 41.83 57.73 41.83 C 57.13 41.83 56.59 42.36 56.52 43.14 Z M 60.46 46.83 C 59.43 47.27 58.41 47.29 57.41 47.22 C 55.59 46.96 54.6 45.78 54.6 43.84 C 54.65 42.03 55.86 40.47 57.87 40.47 C 59.44 40.46 60.44 41.34 60.76 42.88 C 60.88 43.51 60.81 43.99 60.76 44.51 L 56.52 44.51 C 56.59 45.08 56.94 45.53 57.87 45.71 C 58.78 45.81 59.51 45.69 60.2 45.48 Z M 50.18 45.71 C 51.13 45.71 51.58 44.89 51.58 43.82 C 51.58 42.81 51.06 42.05 50.24 42.05 C 49.34 42.05 48.94 42.85 48.94 43.33 L 48.94 44.41 C 48.94 45.19 49.5 45.71 50.18 45.71 Z M 46.91 49.75 C 46.93 46.63 46.96 43.44 46.86 40.63 L 48.63 40.63 L 48.71 41.58 C 49.31 40.68 50.24 40.42 51.15 40.47 C 52.69 40.61 53.81 42.12 53.63 44.11 C 53.53 45.48 53.04 46.63 51.44 47.16 C 50.66 47.41 49.52 47.27 48.94 46.47 L 48.92 49.75 Z M 40.24 50.06 L 39.82 48.33 C 40.73 48.15 41.27 47.63 41.52 47.22 C 41.68 46.99 41.69 46.83 41.57 46.57 L 39.17 40.61 L 41.41 40.61 L 42.78 45 L 43.87 40.61 L 46.05 40.61 L 44.29 45.53 C 43.76 46.83 43.43 47.68 42.73 48.62 C 42.03 49.5 41.2 49.9 40.24 50.06 Z M 30.72 47.11 L 30.72 38.17 L 32.77 38.17 L 32.77 41.6 L 36.15 41.6 L 36.13 38.17 L 38.18 38.17 L 38.19 47.11 L 36.15 47.11 L 36.15 43.37 L 32.79 43.39 L 32.77 47.11 Z M 79.47 96.15 L 79.47 92.66 L 84.98 92.65 L 84.98 96.15 Z M 58.85 98.07 L 58.85 90.76 L 77.35 90.76 L 77.35 98.05 Z M 53.05 97.14 C 51.95 97.14 50.57 96.2 50.57 94.35 C 50.57 92.94 51.69 91.66 53.05 91.66 C 54.39 91.66 55.58 92.85 55.58 94.35 C 55.58 96.06 54.33 97.14 53.05 97.14 Z M 28.79 98.07 L 28.79 90.74 L 47.3 90.76 L 47.3 98.07 Z M 24.54 96.1 C 23.84 96.1 23.02 95.45 23.02 94.4 C 23.02 93.39 23.79 92.72 24.54 92.72 C 25.38 92.72 26.12 93.46 26.12 94.41 C 26.12 95.18 25.52 96.1 24.54 96.1 Z" fill="#ffffff" stroke="none" pointer-events="all" style="fill: rgb(255, 255, 255);"/></g></g></g></g></g></g></svg>