<?xml version="1.0" standalone="no"?>
<!DOCTYPE svg PUBLIC "-//W3C//DTD SVG 20010904//EN"
 "http://www.w3.org/TR/2001/REC-SVG-20010904/DTD/svg10.dtd">
<svg version="1.0" xmlns="http://www.w3.org/2000/svg"
 width="1018.000000pt" height="678.000000pt" viewBox="0 0 1018.000000 678.000000"
 preserveAspectRatio="xMidYMid meet">

<g transform="translate(0.000000,678.000000) scale(0.100000,-0.100000)"
fill="#000000" stroke="none">
<path d="M7564 6415 c-3 -8 -4 -20 -2 -27 3 -7 7 -1 10 15 6 29 1 36 -8 12z"/>
<path d="M7624 6409 c-3 -6 -1 -16 4 -21 8 -8 11 -5 9 11 -1 24 -3 25 -13 10z"/>
<path d="M7587 6391 c-4 -17 -3 -21 5 -13 5 5 8 16 6 23 -3 8 -7 3 -11 -10z"/>
<path d="M578 6298 c-2 -7 -1 -26 3 -43 6 -28 7 -26 8 13 1 42 -3 53 -11 30z"/>
<path d="M1564 6210 c0 -58 1 -81 3 -52 2 28 2 76 0 105 -2 28 -3 5 -3 -53z"/>
<path d="M6485 6290 c-3 -5 -1 -10 4 -10 6 0 11 5 11 10 0 6 -2 10 -4 10 -3 0
-8 -4 -11 -10z"/>
<path d="M8455 6290 c-3 -5 -1 -10 4 -10 6 0 11 5 11 10 0 6 -2 10 -4 10 -3 0
-8 -4 -11 -10z"/>
<path d="M1282 6118 l-2 -48 285 0 285 0 -2 48 -1 47 -4 -42 -4 -43 -274 0
-274 0 -4 43 -4 42 -1 -47z"/>
<path d="M4392 6118 l-2 -48 133 2 132 2 -127 3 -127 4 -4 42 -4 42 -1 -47z"/>
<path d="M8511 6123 l-1 -43 -907 -3 -908 -2 911 -3 c722 -1 913 1 916 11 2 6
1 28 -3 47 l-6 35 -2 -42z"/>
<path d="M548 6063 c-5 -25 3 -63 13 -63 5 0 9 16 9 35 l0 35 318 3 317 2
-327 3 c-304 2 -327 1 -330 -15z"/>
<path d="M2522 6073 c329 -2 867 -2 1195 0 329 1 60 2 -597 2 -657 0 -926 -1
-598 -2z"/>
<path d="M5203 6073 c263 -2 691 -2 950 0 260 1 45 2 -478 2 -522 0 -735 -1
-472 -2z"/>
<path d="M8988 6073 c222 -2 582 -2 800 0 218 1 37 2 -403 2 -440 0 -619 -1
-397 -2z"/>
<path d="M455 6049 c-7 -11 18 -16 45 -9 24 6 23 7 -8 12 -18 2 -35 1 -37 -3z"/>
<path d="M805 5980 c-19 -8 -19 -9 3 -9 12 -1 22 4 22 9 0 6 -1 10 -2 9 -2 0
-12 -4 -23 -9z"/>
<path d="M1325 5980 c-19 -8 -19 -9 3 -9 12 -1 22 4 22 9 0 6 -1 10 -2 9 -2 0
-12 -4 -23 -9z"/>
<path d="M1805 5980 c-19 -8 -19 -9 3 -9 12 -1 22 4 22 9 0 6 -1 10 -2 9 -2 0
-12 -4 -23 -9z"/>
<path d="M2285 5980 c-19 -8 -19 -9 3 -9 12 -1 22 4 22 9 0 6 -1 10 -2 9 -2 0
-12 -4 -23 -9z"/>
<path d="M2795 5980 c-19 -8 -19 -9 3 -9 12 -1 22 4 22 9 0 6 -1 10 -2 9 -2 0
-12 -4 -23 -9z"/>
<path d="M3275 5980 c-19 -8 -19 -9 3 -9 12 -1 22 4 22 9 0 6 -1 10 -2 9 -2 0
-12 -4 -23 -9z"/>
<path d="M3775 5980 c-19 -8 -19 -9 3 -9 12 -1 22 4 22 9 0 6 -1 10 -2 9 -2 0
-12 -4 -23 -9z"/>
<path d="M4265 5980 c-19 -8 -19 -9 3 -9 12 -1 22 4 22 9 0 6 -1 10 -2 9 -2 0
-12 -4 -23 -9z"/>
<path d="M4765 5980 c-19 -8 -19 -9 3 -9 12 -1 22 4 22 9 0 6 -1 10 -2 9 -2 0
-12 -4 -23 -9z"/>
<path d="M5245 5980 c-19 -8 -19 -9 3 -9 12 -1 22 4 22 9 0 6 -1 10 -2 9 -2 0
-12 -4 -23 -9z"/>
<path d="M5745 5980 c-19 -8 -19 -9 3 -9 12 -1 22 4 22 9 0 6 -1 10 -2 9 -2 0
-12 -4 -23 -9z"/>
<path d="M6225 5980 c-19 -8 -19 -9 3 -9 12 -1 22 4 22 9 0 6 -1 10 -2 9 -2 0
-12 -4 -23 -9z"/>
<path d="M6735 5980 c-19 -8 -19 -9 3 -9 12 -1 22 4 22 9 0 6 -1 10 -2 9 -2 0
-12 -4 -23 -9z"/>
<path d="M7215 5980 c-19 -8 -19 -9 3 -9 12 -1 22 4 22 9 0 6 -1 10 -2 9 -2 0
-12 -4 -23 -9z"/>
<path d="M7695 5980 c-19 -8 -19 -9 3 -9 12 -1 22 4 22 9 0 6 -1 10 -2 9 -2 0
-12 -4 -23 -9z"/>
<path d="M8075 5980 c-19 -8 -19 -9 3 -9 12 -1 22 4 22 9 0 6 -1 10 -2 9 -2 0
-12 -4 -23 -9z"/>
<path d="M8565 5980 c-19 -8 -19 -9 3 -9 12 -1 22 4 22 9 0 6 -1 10 -2 9 -2 0
-12 -4 -23 -9z"/>
<path d="M9045 5980 c-19 -8 -19 -9 3 -9 12 -1 22 4 22 9 0 6 -1 10 -2 9 -2 0
-12 -4 -23 -9z"/>
<path d="M9525 5980 c-19 -8 -19 -9 3 -9 12 -1 22 4 22 9 0 6 -1 10 -2 9 -2 0
-12 -4 -23 -9z"/>
<path d="M10005 5980 c-19 -8 -19 -9 3 -9 12 -1 22 4 22 9 0 6 -1 10 -2 9 -2
0 -12 -4 -23 -9z"/>
<path d="M797 5947 c-5 -12 -1 -17 13 -17 12 0 20 7 20 18 0 13 -2 14 -9 3 -7
-11 -9 -11 -13 0 -3 9 -6 8 -11 -4z"/>
<path d="M1317 5947 c-5 -12 -1 -17 13 -17 12 0 20 7 20 18 0 13 -2 14 -9 3
-7 -11 -9 -11 -13 0 -3 9 -6 8 -11 -4z"/>
<path d="M1797 5947 c-5 -12 -1 -17 13 -17 12 0 20 7 20 18 0 13 -2 14 -9 3
-7 -11 -9 -11 -13 0 -3 9 -6 8 -11 -4z"/>
<path d="M2277 5947 c-5 -12 -1 -17 13 -17 12 0 20 7 20 18 0 13 -2 14 -9 3
-7 -11 -9 -11 -13 0 -3 9 -6 8 -11 -4z"/>
<path d="M2787 5947 c-5 -12 -1 -17 13 -17 12 0 20 7 20 18 0 13 -2 14 -9 3
-7 -11 -9 -11 -13 0 -3 9 -6 8 -11 -4z"/>
<path d="M3267 5947 c-5 -12 -1 -17 13 -17 12 0 20 7 20 18 0 13 -2 14 -9 3
-7 -11 -9 -11 -13 0 -3 9 -6 8 -11 -4z"/>
<path d="M3767 5947 c-5 -12 -1 -17 13 -17 12 0 20 7 20 18 0 13 -2 14 -9 3
-7 -11 -9 -11 -13 0 -3 9 -6 8 -11 -4z"/>
<path d="M4257 5947 c-5 -12 -1 -17 13 -17 12 0 20 7 20 18 0 13 -2 14 -9 3
-7 -11 -9 -11 -13 0 -3 9 -6 8 -11 -4z"/>
<path d="M4757 5947 c-5 -12 -1 -17 13 -17 12 0 20 7 20 18 0 13 -2 14 -9 3
-7 -11 -9 -11 -13 0 -3 9 -6 8 -11 -4z"/>
<path d="M5237 5947 c-5 -12 -1 -17 13 -17 12 0 20 7 20 18 0 13 -2 14 -9 3
-7 -11 -9 -11 -13 0 -3 9 -6 8 -11 -4z"/>
<path d="M5737 5947 c-5 -12 -1 -17 13 -17 12 0 20 7 20 18 0 13 -2 14 -9 3
-7 -11 -9 -11 -13 0 -3 9 -6 8 -11 -4z"/>
<path d="M6217 5947 c-5 -12 -1 -17 13 -17 12 0 20 7 20 18 0 13 -2 14 -9 3
-7 -11 -9 -11 -13 0 -3 9 -6 8 -11 -4z"/>
<path d="M6727 5947 c-5 -12 -1 -17 13 -17 12 0 20 7 20 18 0 13 -2 14 -9 3
-7 -11 -9 -11 -13 0 -3 9 -6 8 -11 -4z"/>
<path d="M7207 5947 c-5 -12 -1 -17 13 -17 12 0 20 7 20 18 0 13 -2 14 -9 3
-7 -11 -9 -11 -13 0 -3 9 -6 8 -11 -4z"/>
<path d="M7687 5947 c-5 -12 -1 -17 13 -17 12 0 20 7 20 18 0 13 -2 14 -9 3
-7 -11 -9 -11 -13 0 -3 9 -6 8 -11 -4z"/>
<path d="M8067 5947 c-5 -12 -1 -17 13 -17 12 0 20 7 20 18 0 13 -2 14 -9 3
-7 -11 -9 -11 -13 0 -3 9 -6 8 -11 -4z"/>
<path d="M8557 5947 c-5 -12 -1 -17 13 -17 12 0 20 7 20 18 0 13 -2 14 -9 3
-7 -11 -9 -11 -13 0 -3 9 -6 8 -11 -4z"/>
<path d="M9037 5947 c-5 -12 -1 -17 13 -17 12 0 20 7 20 18 0 13 -2 14 -9 3
-7 -11 -9 -11 -13 0 -3 9 -6 8 -11 -4z"/>
<path d="M9517 5947 c-5 -12 -1 -17 13 -17 12 0 20 7 20 18 0 13 -2 14 -9 3
-7 -11 -9 -11 -13 0 -3 9 -6 8 -11 -4z"/>
<path d="M9997 5947 c-5 -12 -1 -17 13 -17 12 0 20 7 20 18 0 13 -2 14 -9 3
-7 -11 -9 -11 -13 0 -3 9 -6 8 -11 -4z"/>
<path d="M790 5916 c0 -9 30 -14 35 -6 4 6 -3 10 -14 10 -12 0 -21 -2 -21 -4z"/>
<path d="M1310 5916 c0 -9 30 -14 35 -6 4 6 -3 10 -14 10 -12 0 -21 -2 -21 -4z"/>
<path d="M1790 5916 c0 -9 30 -14 35 -6 4 6 -3 10 -14 10 -12 0 -21 -2 -21 -4z"/>
<path d="M2270 5916 c0 -9 30 -14 35 -6 4 6 -3 10 -14 10 -12 0 -21 -2 -21 -4z"/>
<path d="M2780 5916 c0 -9 30 -14 35 -6 4 6 -3 10 -14 10 -12 0 -21 -2 -21 -4z"/>
<path d="M3260 5916 c0 -9 30 -14 35 -6 4 6 -3 10 -14 10 -12 0 -21 -2 -21 -4z"/>
<path d="M3760 5916 c0 -9 30 -14 35 -6 4 6 -3 10 -14 10 -12 0 -21 -2 -21 -4z"/>
<path d="M4250 5916 c0 -9 30 -14 35 -6 4 6 -3 10 -14 10 -12 0 -21 -2 -21 -4z"/>
<path d="M4750 5916 c0 -9 30 -14 35 -6 4 6 -3 10 -14 10 -12 0 -21 -2 -21 -4z"/>
<path d="M5230 5916 c0 -9 30 -14 35 -6 4 6 -3 10 -14 10 -12 0 -21 -2 -21 -4z"/>
<path d="M5730 5916 c0 -9 30 -14 35 -6 4 6 -3 10 -14 10 -12 0 -21 -2 -21 -4z"/>
<path d="M6210 5916 c0 -9 30 -14 35 -6 4 6 -3 10 -14 10 -12 0 -21 -2 -21 -4z"/>
<path d="M6720 5916 c0 -9 30 -14 35 -6 4 6 -3 10 -14 10 -12 0 -21 -2 -21 -4z"/>
<path d="M7200 5916 c0 -9 30 -14 35 -6 4 6 -3 10 -14 10 -12 0 -21 -2 -21 -4z"/>
<path d="M7680 5916 c0 -9 30 -14 35 -6 4 6 -3 10 -14 10 -12 0 -21 -2 -21 -4z"/>
<path d="M8060 5916 c0 -9 30 -14 35 -6 4 6 -3 10 -14 10 -12 0 -21 -2 -21 -4z"/>
<path d="M8550 5916 c0 -9 30 -14 35 -6 4 6 -3 10 -14 10 -12 0 -21 -2 -21 -4z"/>
<path d="M9030 5916 c0 -9 30 -14 35 -6 4 6 -3 10 -14 10 -12 0 -21 -2 -21 -4z"/>
<path d="M9510 5916 c0 -9 30 -14 35 -6 4 6 -3 10 -14 10 -12 0 -21 -2 -21 -4z"/>
<path d="M9990 5916 c0 -9 30 -14 35 -6 4 6 -3 10 -14 10 -12 0 -21 -2 -21 -4z"/>
<path d="M790 5889 c0 -5 9 -9 20 -9 11 0 20 2 20 4 0 2 -9 6 -20 9 -11 3 -20
1 -20 -4z"/>
<path d="M1310 5889 c0 -5 9 -9 20 -9 11 0 20 2 20 4 0 2 -9 6 -20 9 -11 3
-20 1 -20 -4z"/>
<path d="M1790 5889 c0 -5 9 -9 20 -9 11 0 20 2 20 4 0 2 -9 6 -20 9 -11 3
-20 1 -20 -4z"/>
<path d="M2270 5889 c0 -5 9 -9 20 -9 11 0 20 2 20 4 0 2 -9 6 -20 9 -11 3
-20 1 -20 -4z"/>
<path d="M2780 5889 c0 -5 9 -9 20 -9 11 0 20 2 20 4 0 2 -9 6 -20 9 -11 3
-20 1 -20 -4z"/>
<path d="M3260 5889 c0 -5 9 -9 20 -9 11 0 20 2 20 4 0 2 -9 6 -20 9 -11 3
-20 1 -20 -4z"/>
<path d="M3760 5889 c0 -5 9 -9 20 -9 11 0 20 2 20 4 0 2 -9 6 -20 9 -11 3
-20 1 -20 -4z"/>
<path d="M4250 5889 c0 -5 9 -9 20 -9 11 0 20 2 20 4 0 2 -9 6 -20 9 -11 3
-20 1 -20 -4z"/>
<path d="M4750 5889 c0 -5 9 -9 20 -9 11 0 20 2 20 4 0 2 -9 6 -20 9 -11 3
-20 1 -20 -4z"/>
<path d="M5230 5889 c0 -5 9 -9 20 -9 11 0 20 2 20 4 0 2 -9 6 -20 9 -11 3
-20 1 -20 -4z"/>
<path d="M5730 5889 c0 -5 9 -9 20 -9 11 0 20 2 20 4 0 2 -9 6 -20 9 -11 3
-20 1 -20 -4z"/>
<path d="M6210 5889 c0 -5 9 -9 20 -9 11 0 20 2 20 4 0 2 -9 6 -20 9 -11 3
-20 1 -20 -4z"/>
<path d="M6720 5889 c0 -5 9 -9 20 -9 11 0 20 2 20 4 0 2 -9 6 -20 9 -11 3
-20 1 -20 -4z"/>
<path d="M7200 5889 c0 -5 9 -9 20 -9 11 0 20 2 20 4 0 2 -9 6 -20 9 -11 3
-20 1 -20 -4z"/>
<path d="M7680 5889 c0 -5 9 -9 20 -9 11 0 20 2 20 4 0 2 -9 6 -20 9 -11 3
-20 1 -20 -4z"/>
<path d="M8060 5889 c0 -5 9 -9 20 -9 11 0 20 2 20 4 0 2 -9 6 -20 9 -11 3
-20 1 -20 -4z"/>
<path d="M8550 5889 c0 -5 9 -9 20 -9 11 0 20 2 20 4 0 2 -9 6 -20 9 -11 3
-20 1 -20 -4z"/>
<path d="M9030 5889 c0 -5 9 -9 20 -9 11 0 20 2 20 4 0 2 -9 6 -20 9 -11 3
-20 1 -20 -4z"/>
<path d="M9510 5889 c0 -5 9 -9 20 -9 11 0 20 2 20 4 0 2 -9 6 -20 9 -11 3
-20 1 -20 -4z"/>
<path d="M9990 5889 c0 -5 9 -9 20 -9 11 0 20 2 20 4 0 2 -9 6 -20 9 -11 3
-20 1 -20 -4z"/>
<path d="M798 5843 c6 -2 18 -2 25 0 6 3 1 5 -13 5 -14 0 -19 -2 -12 -5z"/>
<path d="M1318 5843 c6 -2 18 -2 25 0 6 3 1 5 -13 5 -14 0 -19 -2 -12 -5z"/>
<path d="M1798 5843 c6 -2 18 -2 25 0 6 3 1 5 -13 5 -14 0 -19 -2 -12 -5z"/>
<path d="M2278 5843 c6 -2 18 -2 25 0 6 3 1 5 -13 5 -14 0 -19 -2 -12 -5z"/>
<path d="M2788 5843 c6 -2 18 -2 25 0 6 3 1 5 -13 5 -14 0 -19 -2 -12 -5z"/>
<path d="M3268 5843 c6 -2 18 -2 25 0 6 3 1 5 -13 5 -14 0 -19 -2 -12 -5z"/>
<path d="M3768 5843 c6 -2 18 -2 25 0 6 3 1 5 -13 5 -14 0 -19 -2 -12 -5z"/>
<path d="M4258 5843 c6 -2 18 -2 25 0 6 3 1 5 -13 5 -14 0 -19 -2 -12 -5z"/>
<path d="M4758 5843 c6 -2 18 -2 25 0 6 3 1 5 -13 5 -14 0 -19 -2 -12 -5z"/>
<path d="M5238 5843 c6 -2 18 -2 25 0 6 3 1 5 -13 5 -14 0 -19 -2 -12 -5z"/>
<path d="M5738 5843 c6 -2 18 -2 25 0 6 3 1 5 -13 5 -14 0 -19 -2 -12 -5z"/>
<path d="M6218 5843 c6 -2 18 -2 25 0 6 3 1 5 -13 5 -14 0 -19 -2 -12 -5z"/>
<path d="M6728 5843 c6 -2 18 -2 25 0 6 3 1 5 -13 5 -14 0 -19 -2 -12 -5z"/>
<path d="M7208 5843 c6 -2 18 -2 25 0 6 3 1 5 -13 5 -14 0 -19 -2 -12 -5z"/>
<path d="M7688 5843 c6 -2 18 -2 25 0 6 3 1 5 -13 5 -14 0 -19 -2 -12 -5z"/>
<path d="M8068 5843 c6 -2 18 -2 25 0 6 3 1 5 -13 5 -14 0 -19 -2 -12 -5z"/>
<path d="M8558 5843 c6 -2 18 -2 25 0 6 3 1 5 -13 5 -14 0 -19 -2 -12 -5z"/>
<path d="M9038 5843 c6 -2 18 -2 25 0 6 3 1 5 -13 5 -14 0 -19 -2 -12 -5z"/>
<path d="M9518 5843 c6 -2 18 -2 25 0 6 3 1 5 -13 5 -14 0 -19 -2 -12 -5z"/>
<path d="M9998 5843 c6 -2 18 -2 25 0 6 3 1 5 -13 5 -14 0 -19 -2 -12 -5z"/>
<path d="M798 5813 c6 -2 18 -2 25 0 6 3 1 5 -13 5 -14 0 -19 -2 -12 -5z"/>
<path d="M1318 5813 c6 -2 18 -2 25 0 6 3 1 5 -13 5 -14 0 -19 -2 -12 -5z"/>
<path d="M1798 5813 c6 -2 18 -2 25 0 6 3 1 5 -13 5 -14 0 -19 -2 -12 -5z"/>
<path d="M2278 5813 c6 -2 18 -2 25 0 6 3 1 5 -13 5 -14 0 -19 -2 -12 -5z"/>
<path d="M2788 5813 c6 -2 18 -2 25 0 6 3 1 5 -13 5 -14 0 -19 -2 -12 -5z"/>
<path d="M3268 5813 c6 -2 18 -2 25 0 6 3 1 5 -13 5 -14 0 -19 -2 -12 -5z"/>
<path d="M3768 5813 c6 -2 18 -2 25 0 6 3 1 5 -13 5 -14 0 -19 -2 -12 -5z"/>
<path d="M4258 5813 c6 -2 18 -2 25 0 6 3 1 5 -13 5 -14 0 -19 -2 -12 -5z"/>
<path d="M4750 5816 c0 -2 11 -6 25 -8 13 -3 22 -1 19 3 -5 9 -44 13 -44 5z"/>
<path d="M5238 5813 c6 -2 18 -2 25 0 6 3 1 5 -13 5 -14 0 -19 -2 -12 -5z"/>
<path d="M5738 5813 c6 -2 18 -2 25 0 6 3 1 5 -13 5 -14 0 -19 -2 -12 -5z"/>
<path d="M6218 5813 c6 -2 18 -2 25 0 6 3 1 5 -13 5 -14 0 -19 -2 -12 -5z"/>
<path d="M6720 5816 c0 -2 11 -6 25 -8 13 -3 22 -1 19 3 -5 9 -44 13 -44 5z"/>
<path d="M7208 5813 c6 -2 18 -2 25 0 6 3 1 5 -13 5 -14 0 -19 -2 -12 -5z"/>
<path d="M7688 5813 c6 -2 18 -2 25 0 6 3 1 5 -13 5 -14 0 -19 -2 -12 -5z"/>
<path d="M8068 5813 c6 -2 18 -2 25 0 6 3 1 5 -13 5 -14 0 -19 -2 -12 -5z"/>
<path d="M8550 5816 c0 -2 11 -6 25 -8 13 -3 22 -1 19 3 -5 9 -44 13 -44 5z"/>
<path d="M9038 5813 c6 -2 18 -2 25 0 6 3 1 5 -13 5 -14 0 -19 -2 -12 -5z"/>
<path d="M9518 5813 c6 -2 18 -2 25 0 6 3 1 5 -13 5 -14 0 -19 -2 -12 -5z"/>
<path d="M9998 5813 c6 -2 18 -2 25 0 6 3 1 5 -13 5 -14 0 -19 -2 -12 -5z"/>
<path d="M10140 5360 c0 -16 5 -30 11 -30 6 0 9 7 5 15 -3 8 2 21 10 30 14 13
13 15 -5 15 -17 0 -21 -6 -21 -30z"/>
<path d="M10151 5304 c0 -11 3 -14 6 -6 3 7 2 16 -1 19 -3 4 -6 -2 -5 -13z"/>
<path d="M10149 5275 c-1 -6 -1 -131 0 -280 1 -148 1 -274 1 -279 0 -6 4 -6
10 0 14 14 16 542 1 557 -6 6 -11 7 -12 2z"/>
<path d="M548 5073 c-6 -22 1 -43 13 -43 5 0 9 14 9 30 0 33 -15 41 -22 13z"/>
<path d="M468 5053 c12 -2 30 -2 40 0 9 3 -1 5 -23 4 -22 0 -30 -2 -17 -4z"/>
<path d="M10151 4684 c0 -11 3 -14 6 -6 3 7 2 16 -1 19 -3 4 -6 -2 -5 -13z"/>
<path d="M10147 4617 c-8 -22 -9 -307 0 -307 4 0 7 62 5 137 -3 116 -1 139 13
149 13 10 13 13 1 23 -10 9 -15 8 -19 -2z"/>
<path d="M10151 4284 c0 -11 3 -14 6 -6 3 7 2 16 -1 19 -3 4 -6 -2 -5 -13z"/>
<path d="M10151 4214 c0 -11 3 -14 6 -6 3 7 2 16 -1 19 -3 4 -6 -2 -5 -13z"/>
<path d="M10151 4144 c0 -11 3 -14 6 -6 3 7 2 16 -1 19 -3 4 -6 -2 -5 -13z"/>
<path d="M8463 4113 c-19 -4 -23 -11 -23 -44 0 -35 3 -39 25 -39 23 0 25 4 25
45 0 25 -1 44 -2 44 -2 -1 -13 -4 -25 -6z m17 -38 c0 -16 -6 -25 -15 -25 -9 0
-15 9 -15 25 0 16 6 25 15 25 9 0 15 -9 15 -25z"/>
<path d="M552 4094 c-9 -17 -8 -25 3 -40 14 -18 14 -18 15 0 0 15 6 17 30 14
19 -3 30 0 30 7 0 7 -11 10 -29 7 -22 -3 -30 0 -33 15 -4 17 -5 16 -16 -3z"/>
<path d="M4492 4070 c0 -14 2 -19 5 -12 2 6 2 18 0 25 -3 6 -5 1 -5 -13z"/>
<path d="M4542 4070 c0 -14 2 -19 5 -12 2 6 2 18 0 25 -3 6 -5 1 -5 -13z"/>
<path d="M6462 4070 c0 -14 2 -19 5 -12 2 6 2 18 0 25 -3 6 -5 1 -5 -13z"/>
<path d="M6512 4070 c0 -14 2 -19 5 -12 2 6 2 18 0 25 -3 6 -5 1 -5 -13z"/>
<path d="M10151 4074 c0 -11 3 -14 6 -6 3 7 2 16 -1 19 -3 4 -6 -2 -5 -13z"/>
<path d="M468 4073 c12 -2 30 -2 40 0 9 3 -1 5 -23 4 -22 0 -30 -2 -17 -4z"/>
<path d="M10150 4050 c-4 -52 0 -574 4 -578 3 -3 7 1 7 9 1 8 4 1 8 -15 3 -17
5 104 4 268 -1 199 -5 302 -12 309 -6 6 -11 9 -11 7z"/>
<path d="M860 3901 c0 -5 -8 -12 -17 -14 -14 -4 -12 -5 5 -6 13 -1 22 5 22 14
0 8 -2 15 -5 15 -3 0 -5 -4 -5 -9z"/>
<path d="M1340 3901 c0 -5 -8 -12 -17 -14 -14 -4 -12 -5 5 -6 13 -1 22 5 22
14 0 8 -2 15 -5 15 -3 0 -5 -4 -5 -9z"/>
<path d="M1820 3901 c0 -5 -8 -12 -17 -14 -14 -4 -12 -5 5 -6 13 -1 22 5 22
14 0 8 -2 15 -5 15 -3 0 -5 -4 -5 -9z"/>
<path d="M2310 3901 c0 -5 -8 -12 -17 -14 -14 -4 -12 -5 5 -6 13 -1 22 5 22
14 0 8 -2 15 -5 15 -3 0 -5 -4 -5 -9z"/>
<path d="M2810 3901 c0 -5 -8 -12 -17 -14 -14 -4 -12 -5 5 -6 13 -1 22 5 22
14 0 8 -2 15 -5 15 -3 0 -5 -4 -5 -9z"/>
<path d="M3290 3901 c0 -5 -8 -12 -17 -14 -14 -4 -12 -5 5 -6 13 -1 22 5 22
14 0 8 -2 15 -5 15 -3 0 -5 -4 -5 -9z"/>
<path d="M3790 3901 c0 -5 -8 -12 -17 -14 -14 -4 -12 -5 5 -6 13 -1 22 5 22
14 0 8 -2 15 -5 15 -3 0 -5 -4 -5 -9z"/>
<path d="M4280 3901 c0 -5 -8 -12 -17 -14 -14 -4 -12 -5 5 -6 13 -1 22 5 22
14 0 8 -2 15 -5 15 -3 0 -5 -4 -5 -9z"/>
<path d="M4780 3901 c0 -5 -8 -12 -17 -14 -14 -4 -13 -5 3 -6 12 0 24 6 28 14
3 8 1 15 -4 15 -6 0 -10 -4 -10 -9z"/>
<path d="M5260 3901 c0 -5 -8 -12 -17 -14 -14 -4 -12 -5 5 -6 13 -1 22 5 22
14 0 8 -2 15 -5 15 -3 0 -5 -4 -5 -9z"/>
<path d="M5770 3901 c0 -5 -8 -12 -17 -14 -14 -4 -13 -5 3 -6 12 0 24 6 28 14
3 8 1 15 -4 15 -6 0 -10 -4 -10 -9z"/>
<path d="M6240 3901 c0 -5 -8 -12 -17 -14 -14 -4 -12 -5 5 -6 13 -1 22 5 22
14 0 8 -2 15 -5 15 -3 0 -5 -4 -5 -9z"/>
<path d="M6750 3901 c0 -5 -8 -12 -17 -14 -14 -4 -13 -5 3 -6 12 0 24 6 28 14
3 8 1 15 -4 15 -6 0 -10 -4 -10 -9z"/>
<path d="M7240 3901 c0 -5 -8 -12 -17 -14 -14 -4 -12 -5 5 -6 13 -1 22 5 22
14 0 8 -2 15 -5 15 -3 0 -5 -4 -5 -9z"/>
<path d="M7730 3901 c0 -5 -8 -12 -17 -14 -14 -4 -12 -5 5 -6 13 -1 22 5 22
14 0 8 -2 15 -5 15 -3 0 -5 -4 -5 -9z"/>
<path d="M8060 3901 c0 -5 -8 -12 -17 -14 -14 -4 -12 -5 5 -6 13 -1 22 5 22
14 0 8 -2 15 -5 15 -3 0 -5 -4 -5 -9z"/>
<path d="M8560 3901 c0 -5 -8 -12 -17 -14 -14 -4 -12 -5 5 -6 13 -1 22 5 22
14 0 8 -2 15 -5 15 -3 0 -5 -4 -5 -9z"/>
<path d="M9060 3901 c0 -5 -8 -12 -17 -14 -14 -4 -12 -5 5 -6 13 -1 22 5 22
14 0 8 -2 15 -5 15 -3 0 -5 -4 -5 -9z"/>
<path d="M9520 3901 c0 -5 -8 -12 -17 -14 -14 -4 -12 -5 5 -6 13 -1 22 5 22
14 0 8 -2 15 -5 15 -3 0 -5 -4 -5 -9z"/>
<path d="M10020 3901 c0 -5 -8 -12 -17 -14 -14 -4 -12 -5 5 -6 13 -1 22 5 22
14 0 8 -2 15 -5 15 -3 0 -5 -4 -5 -9z"/>
<path d="M836 3855 c-4 -11 -2 -21 6 -26 17 -11 28 -1 28 24 0 16 -3 18 -9 8
-7 -11 -9 -11 -13 0 -3 9 -7 7 -12 -6z"/>
<path d="M1316 3855 c-4 -11 -2 -21 6 -26 17 -11 28 -1 28 24 0 16 -3 18 -9 8
-7 -11 -9 -11 -13 0 -3 9 -7 7 -12 -6z"/>
<path d="M1796 3855 c-4 -11 -2 -21 6 -26 17 -11 28 -1 28 24 0 16 -3 18 -9 8
-7 -11 -9 -11 -13 0 -3 9 -7 7 -12 -6z"/>
<path d="M2286 3855 c-4 -11 -2 -21 6 -26 17 -11 28 -1 28 24 0 16 -3 18 -9 8
-7 -11 -9 -11 -13 0 -3 9 -7 7 -12 -6z"/>
<path d="M2786 3855 c-4 -11 -2 -21 6 -26 17 -11 28 -1 28 24 0 16 -3 18 -9 8
-7 -11 -9 -11 -13 0 -3 9 -7 7 -12 -6z"/>
<path d="M3266 3855 c-4 -11 -2 -21 6 -26 17 -11 28 -1 28 24 0 16 -3 18 -9 8
-7 -11 -9 -11 -13 0 -3 9 -7 7 -12 -6z"/>
<path d="M3766 3855 c-4 -11 -2 -21 6 -26 17 -11 28 -1 28 24 0 16 -3 18 -9 8
-7 -11 -9 -11 -13 0 -3 9 -7 7 -12 -6z"/>
<path d="M4256 3855 c-4 -11 -2 -21 6 -26 17 -11 28 -1 28 24 0 16 -3 18 -9 8
-7 -11 -9 -11 -13 0 -3 9 -7 7 -12 -6z"/>
<path d="M4756 3855 c-4 -11 -2 -21 6 -26 17 -11 28 -1 28 24 0 16 -3 18 -9 8
-7 -11 -9 -11 -13 0 -3 9 -7 7 -12 -6z"/>
<path d="M5236 3855 c-4 -11 -2 -21 6 -26 17 -11 28 -1 28 24 0 16 -3 18 -9 8
-7 -11 -9 -11 -13 0 -3 9 -7 7 -12 -6z"/>
<path d="M5746 3855 c-4 -11 -2 -21 6 -26 17 -11 28 -1 28 24 0 16 -3 18 -9 8
-7 -11 -9 -11 -13 0 -3 9 -7 7 -12 -6z"/>
<path d="M6216 3855 c-4 -11 -2 -21 6 -26 17 -11 28 -1 28 24 0 16 -3 18 -9 8
-7 -11 -9 -11 -13 0 -3 9 -7 7 -12 -6z"/>
<path d="M6726 3855 c-4 -11 -2 -21 6 -26 17 -11 28 -1 28 24 0 16 -3 18 -9 8
-7 -11 -9 -11 -13 0 -3 9 -7 7 -12 -6z"/>
<path d="M7216 3855 c-4 -11 -2 -21 6 -26 17 -11 28 -1 28 24 0 16 -3 18 -9 8
-7 -11 -9 -11 -13 0 -3 9 -7 7 -12 -6z"/>
<path d="M7706 3855 c-4 -11 -2 -21 6 -26 17 -11 28 -1 28 24 0 16 -3 18 -9 8
-7 -11 -9 -11 -13 0 -3 9 -7 7 -12 -6z"/>
<path d="M8036 3855 c-4 -11 -2 -21 6 -26 17 -11 28 -1 28 24 0 16 -3 18 -9 8
-7 -11 -9 -11 -13 0 -3 9 -7 7 -12 -6z"/>
<path d="M8536 3855 c-4 -11 -2 -21 6 -26 17 -11 28 -1 28 24 0 16 -3 18 -9 8
-7 -11 -9 -11 -13 0 -3 9 -7 7 -12 -6z"/>
<path d="M9036 3855 c-4 -11 -2 -21 6 -26 17 -11 28 -1 28 24 0 16 -3 18 -9 8
-7 -11 -9 -11 -13 0 -3 9 -7 7 -12 -6z"/>
<path d="M9496 3855 c-4 -11 -2 -21 6 -26 17 -11 28 -1 28 24 0 16 -3 18 -9 8
-7 -11 -9 -11 -13 0 -3 9 -7 7 -12 -6z"/>
<path d="M9996 3855 c-4 -11 -2 -21 6 -26 17 -11 28 -1 28 24 0 16 -3 18 -9 8
-7 -11 -9 -11 -13 0 -3 9 -7 7 -12 -6z"/>
<path d="M835 3810 c-4 -6 3 -10 14 -10 25 0 27 6 6 13 -8 4 -17 2 -20 -3z"/>
<path d="M1315 3810 c-4 -6 3 -10 14 -10 25 0 27 6 6 13 -8 4 -17 2 -20 -3z"/>
<path d="M1795 3810 c-4 -6 3 -10 14 -10 25 0 27 6 6 13 -8 4 -17 2 -20 -3z"/>
<path d="M2285 3810 c-4 -6 3 -10 14 -10 25 0 27 6 6 13 -8 4 -17 2 -20 -3z"/>
<path d="M2785 3810 c-4 -6 3 -10 14 -10 25 0 27 6 6 13 -8 4 -17 2 -20 -3z"/>
<path d="M3265 3810 c-4 -6 3 -10 14 -10 25 0 27 6 6 13 -8 4 -17 2 -20 -3z"/>
<path d="M3765 3810 c-4 -6 3 -10 14 -10 25 0 27 6 6 13 -8 4 -17 2 -20 -3z"/>
<path d="M4255 3810 c-4 -6 3 -10 14 -10 25 0 27 6 6 13 -8 4 -17 2 -20 -3z"/>
<path d="M4755 3810 c-4 -6 3 -10 14 -10 25 0 27 6 6 13 -8 4 -17 2 -20 -3z"/>
<path d="M5235 3810 c-4 -6 3 -10 14 -10 25 0 27 6 6 13 -8 4 -17 2 -20 -3z"/>
<path d="M5745 3810 c-4 -6 3 -10 14 -10 25 0 27 6 6 13 -8 4 -17 2 -20 -3z"/>
<path d="M6215 3810 c-4 -6 3 -10 14 -10 25 0 27 6 6 13 -8 4 -17 2 -20 -3z"/>
<path d="M6725 3810 c-4 -6 3 -10 14 -10 25 0 27 6 6 13 -8 4 -17 2 -20 -3z"/>
<path d="M7215 3810 c-4 -6 3 -10 14 -10 25 0 27 6 6 13 -8 4 -17 2 -20 -3z"/>
<path d="M7705 3810 c-4 -6 3 -10 14 -10 25 0 27 6 6 13 -8 4 -17 2 -20 -3z"/>
<path d="M8035 3810 c-4 -6 3 -10 14 -10 25 0 27 6 6 13 -8 4 -17 2 -20 -3z"/>
<path d="M8535 3810 c-4 -6 3 -10 14 -10 25 0 27 6 6 13 -8 4 -17 2 -20 -3z"/>
<path d="M9035 3810 c-4 -6 3 -10 14 -10 25 0 27 6 6 13 -8 4 -17 2 -20 -3z"/>
<path d="M9495 3810 c-4 -6 3 -10 14 -10 25 0 27 6 6 13 -8 4 -17 2 -20 -3z"/>
<path d="M9995 3810 c-4 -6 3 -10 14 -10 25 0 27 6 6 13 -8 4 -17 2 -20 -3z"/>
<path d="M838 3733 c6 -2 18 -2 25 0 6 3 1 5 -13 5 -14 0 -19 -2 -12 -5z"/>
<path d="M1318 3733 c6 -2 18 -2 25 0 6 3 1 5 -13 5 -14 0 -19 -2 -12 -5z"/>
<path d="M1798 3733 c6 -2 18 -2 25 0 6 3 1 5 -13 5 -14 0 -19 -2 -12 -5z"/>
<path d="M2288 3733 c6 -2 18 -2 25 0 6 3 1 5 -13 5 -14 0 -19 -2 -12 -5z"/>
<path d="M2788 3733 c6 -2 18 -2 25 0 6 3 1 5 -13 5 -14 0 -19 -2 -12 -5z"/>
<path d="M3268 3733 c6 -2 18 -2 25 0 6 3 1 5 -13 5 -14 0 -19 -2 -12 -5z"/>
<path d="M3768 3733 c6 -2 18 -2 25 0 6 3 1 5 -13 5 -14 0 -19 -2 -12 -5z"/>
<path d="M4258 3733 c6 -2 18 -2 25 0 6 3 1 5 -13 5 -14 0 -19 -2 -12 -5z"/>
<path d="M4758 3733 c6 -2 18 -2 25 0 6 3 1 5 -13 5 -14 0 -19 -2 -12 -5z"/>
<path d="M5238 3733 c6 -2 18 -2 25 0 6 3 1 5 -13 5 -14 0 -19 -2 -12 -5z"/>
<path d="M5748 3733 c6 -2 18 -2 25 0 6 3 1 5 -13 5 -14 0 -19 -2 -12 -5z"/>
<path d="M6218 3733 c6 -2 18 -2 25 0 6 3 1 5 -13 5 -14 0 -19 -2 -12 -5z"/>
<path d="M6728 3733 c6 -2 18 -2 25 0 6 3 1 5 -13 5 -14 0 -19 -2 -12 -5z"/>
<path d="M7218 3733 c6 -2 18 -2 25 0 6 3 1 5 -13 5 -14 0 -19 -2 -12 -5z"/>
<path d="M7708 3733 c6 -2 18 -2 25 0 6 3 1 5 -13 5 -14 0 -19 -2 -12 -5z"/>
<path d="M8038 3733 c6 -2 18 -2 25 0 6 3 1 5 -13 5 -14 0 -19 -2 -12 -5z"/>
<path d="M8538 3733 c6 -2 18 -2 25 0 6 3 1 5 -13 5 -14 0 -19 -2 -12 -5z"/>
<path d="M9038 3733 c6 -2 18 -2 25 0 6 3 1 5 -13 5 -14 0 -19 -2 -12 -5z"/>
<path d="M9498 3733 c6 -2 18 -2 25 0 6 3 1 5 -13 5 -14 0 -19 -2 -12 -5z"/>
<path d="M9998 3733 c6 -2 18 -2 25 0 6 3 1 5 -13 5 -14 0 -19 -2 -12 -5z"/>
<path d="M10151 3448 c0 -9 -4 -25 -7 -35 -5 -14 -4 -15 5 -7 7 7 11 22 8 35
-2 13 -5 16 -6 7z"/>
<path d="M10147 2428 c2 -398 7 -725 9 -727 9 -9 7 544 -2 573 -4 12 -2 16 5
12 8 -5 11 70 11 269 0 155 -4 274 -9 271 -5 -3 -9 67 -10 156 -1 89 -4 164
-6 166 -2 2 -1 -322 2 -720z"/>
<path d="M548 3103 c-6 -22 1 -43 13 -43 5 0 9 14 9 30 0 33 -15 41 -22 13z"/>
<path d="M100 2925 c-10 -12 -10 -15 2 -15 8 0 15 7 15 15 0 8 -1 15 -2 15 -2
0 -8 -7 -15 -15z"/>
<path d="M10162 2900 c0 -19 2 -27 5 -17 2 9 2 25 0 35 -3 9 -5 1 -5 -18z"/>
<path d="M552 2124 c-9 -17 -8 -25 3 -40 13 -17 14 -18 15 -1 0 20 45 24 53 5
3 -7 6 -4 6 8 1 17 -4 20 -28 16 -22 -3 -30 0 -33 15 -4 17 -5 16 -16 -3z"/>
<path d="M8448 2133 c6 -2 18 -2 25 0 6 3 1 5 -13 5 -14 0 -19 -2 -12 -5z"/>
<path d="M4492 2095 c0 -16 2 -22 5 -12 2 9 2 23 0 30 -3 6 -5 -1 -5 -18z"/>
<path d="M4542 2095 c0 -16 2 -22 5 -12 2 9 2 23 0 30 -3 6 -5 -1 -5 -18z"/>
<path d="M6462 2095 c0 -16 2 -22 5 -12 2 9 2 23 0 30 -3 6 -5 -1 -5 -18z"/>
<path d="M6512 2095 c0 -16 2 -22 5 -12 2 9 2 23 0 30 -3 6 -5 -1 -5 -18z"/>
<path d="M478 2103 c12 -2 30 -2 40 0 9 3 -1 5 -23 4 -22 0 -30 -2 -17 -4z"/>
<path d="M2522 2090 c0 -14 2 -19 5 -12 2 6 2 18 0 25 -3 6 -5 1 -5 -13z"/>
<path d="M570 1683 c0 -72 2 -83 18 -83 14 0 15 2 2 10 -11 7 -4 10 25 10 29
0 36 -3 25 -10 -13 -8 -13 -10 2 -10 9 0 20 5 23 10 3 6 25 10 48 9 33 0 38
-2 22 -9 -19 -8 -19 -9 3 -9 16 -1 22 5 22 20 0 15 -5 19 -15 15 -18 -7 -20
10 -2 17 9 4 9 8 -3 16 -19 13 -32 3 -25 -20 5 -14 2 -19 -12 -19 -21 0 -56
20 -35 20 6 0 12 5 12 10 0 6 -3 9 -7 9 -19 -3 -34 2 -29 9 2 4 -3 8 -13 8
-12 0 -18 -7 -17 -21 1 -12 8 -19 19 -19 9 1 17 -2 17 -7 0 -5 -16 -9 -35 -9
l-36 0 2 60 c1 33 6 60 10 60 5 0 9 4 9 8 0 5 -7 9 -15 9 -12 0 -15 -16 -15
-84z"/>
<path d="M630 1758 c0 -4 5 -8 10 -8 6 0 10 -4 10 -10 0 -5 -9 -10 -20 -10
-12 0 -20 -7 -20 -17 0 -15 2 -16 10 -3 9 13 11 13 20 0 6 -10 10 -11 10 -2 0
6 10 12 22 12 17 0 19 3 10 12 -9 9 -8 14 4 22 12 9 7 11 -21 12 -19 0 -35 -3
-35 -8z"/>
<path d="M730 1759 c0 -4 6 -9 13 -12 7 -3 2 -9 -13 -15 -18 -8 -20 -11 -7
-11 9 -1 17 -7 18 -13 1 -17 17 22 18 43 1 9 -6 16 -14 16 -8 0 -15 -4 -15 -8z"/>
<path d="M10146 1660 c-4 -19 -5 -93 -4 -165 l4 -130 2 137 c2 119 4 138 20
147 9 6 12 11 5 11 -6 0 -13 8 -16 18 -2 10 -6 4 -11 -18z"/>
<path d="M678 1603 c7 -3 16 -2 19 1 4 3 -2 6 -13 5 -11 0 -14 -3 -6 -6z"/>
<path d="M568 1583 c7 -3 16 -2 19 1 4 3 -2 6 -13 5 -11 0 -14 -3 -6 -6z"/>
<path d="M1038 1453 c28 -2 76 -2 105 0 28 2 5 3 -53 3 -58 0 -81 -1 -52 -3z"/>
<path d="M1523 1453 c32 -2 81 -2 110 0 29 2 3 3 -58 3 -60 0 -84 -1 -52 -3z"/>
<path d="M2008 1453 c28 -2 76 -2 105 0 28 2 5 3 -53 3 -58 0 -81 -1 -52 -3z"/>
<path d="M2493 1453 c31 -2 83 -2 115 0 31 2 5 3 -58 3 -63 0 -89 -1 -57 -3z"/>
<path d="M2998 1453 c28 -2 76 -2 105 0 28 2 5 3 -53 3 -58 0 -81 -1 -52 -3z"/>
<path d="M3478 1453 c34 -2 88 -2 120 0 31 2 3 3 -63 3 -66 0 -92 -1 -57 -3z"/>
<path d="M3978 1453 c28 -2 76 -2 105 0 28 2 5 3 -53 3 -58 0 -81 -1 -52 -3z"/>
<path d="M4463 1453 c31 -2 83 -2 115 0 31 2 5 3 -58 3 -63 0 -89 -1 -57 -3z"/>
<path d="M4958 1453 c28 -2 76 -2 105 0 28 2 5 3 -53 3 -58 0 -81 -1 -52 -3z"/>
<path d="M5448 1453 c34 -2 88 -2 120 0 31 2 3 3 -63 3 -66 0 -92 -1 -57 -3z"/>
<path d="M5948 1453 c28 -2 76 -2 105 0 28 2 5 3 -53 3 -58 0 -81 -1 -52 -3z"/>
<path d="M6433 1453 c31 -2 83 -2 115 0 31 2 5 3 -58 3 -63 0 -89 -1 -57 -3z"/>
<path d="M6928 1453 c28 -2 76 -2 105 0 28 2 5 3 -53 3 -58 0 -81 -1 -52 -3z"/>
<path d="M7408 1453 c28 -2 76 -2 105 0 28 2 5 3 -53 3 -58 0 -81 -1 -52 -3z"/>
<path d="M7873 1453 c15 -2 39 -2 55 0 15 2 2 4 -28 4 -30 0 -43 -2 -27 -4z"/>
<path d="M8278 1453 c28 -2 76 -2 105 0 28 2 5 3 -53 3 -58 0 -81 -1 -52 -3z"/>
<path d="M8758 1453 c28 -2 76 -2 105 0 28 2 5 3 -53 3 -58 0 -81 -1 -52 -3z"/>
<path d="M9238 1453 c28 -2 76 -2 105 0 28 2 5 3 -53 3 -58 0 -81 -1 -52 -3z"/>
<path d="M9723 1453 c32 -2 81 -2 110 0 29 2 3 3 -58 3 -60 0 -84 -1 -52 -3z"/>
<path d="M3860 1160 c-63 -3 -105 -7 -92 -8 12 -1 25 -9 28 -17 4 -8 19 -15
35 -15 21 0 27 4 23 15 -5 12 5 15 60 15 37 0 66 4 66 10 0 6 -1 9 -2 8 -2 -1
-55 -5 -118 -8z"/>
<path d="M4910 1164 c38 -8 90 -9 90 -2 0 4 -24 7 -52 7 -29 -1 -46 -3 -38 -5z"/>
<path d="M5718 1163 c39 -2 105 -2 145 0 39 1 7 3 -73 3 -80 0 -112 -2 -72 -3z"/>
<path d="M8278 1163 c39 -2 105 -2 145 0 39 1 7 3 -73 3 -80 0 -112 -2 -72 -3z"/>
<path d="M9612 1163 c37 -2 100 -2 140 0 40 1 10 3 -67 3 -77 0 -110 -1 -73
-3z"/>
<path d="M9918 1163 c-13 -3 -18 -15 -18 -39 0 -21 4 -33 10 -29 6 4 7 12 4
18 -5 8 -4 9 4 2 7 -6 12 -62 14 -143 2 -82 7 -131 13 -130 6 2 9 59 6 155
l-4 151 107 0 106 0 0 -149 0 -149 -65 0 c-37 0 -65 -4 -65 -10 0 -6 32 -10
75 -10 l75 0 0 170 0 170 -122 -1 c-68 -1 -131 -3 -140 -6z"/>
<path d="M4218 721 l4 -440 -39 -4 -38 -4 38 -1 37 -2 0 -80 0 -80 -285 0
-285 0 0 79 0 80 38 4 37 4 -37 1 -38 2 0 417 c0 229 -2 414 -5 411 -3 -2 -5
-228 -5 -501 l-1 -497 -87 -2 c-48 -2 154 -5 448 -8 554 -5 1016 -3 1008 5 -3
3 -106 6 -231 7 -207 1 -225 3 -224 18 1 10 7 16 14 13 7 -3 13 1 13 8 0 11 3
11 10 -1 8 -13 10 -12 10 4 0 14 -6 17 -25 14 -13 -3 -22 -1 -19 3 3 5 -8 9
-25 9 -16 0 -32 6 -34 13 -3 7 -6 5 -6 -5 -1 -11 -9 -18 -20 -18 -26 0 -37
-18 -16 -27 10 -3 21 0 26 8 6 10 9 7 9 -12 l0 -25 -127 0 -128 1 0 263 c0
223 2 264 15 272 10 7 11 10 3 10 -8 0 -13 13 -13 29 0 16 6 32 13 34 10 4 10
6 0 6 -9 1 -13 21 -13 65 0 42 4 66 13 69 8 4 6 6 -4 6 -13 1 -17 15 -18 76
l-2 75 33 1 33 2 -35 7 c-32 7 -33 7 -7 9 24 1 28 5 25 26 -2 14 -7 24 -13 23
-5 -2 -8 -11 -7 -20 2 -10 -1 -18 -6 -18 -6 0 -9 11 -7 25 1 14 -2 25 -6 25
-5 0 -9 11 -9 25 0 23 3 24 73 28 l72 3 -80 2 -80 2 3 -439z m312 -586 c0 -14
-4 -25 -10 -25 -5 0 -10 11 -10 25 0 14 5 25 10 25 6 0 10 -11 10 -25z"/>
<path d="M4443 1120 c0 -25 2 -35 4 -22 2 12 2 32 0 45 -2 12 -4 2 -4 -23z"/>
<path d="M5509 1148 c60 -5 108 -5 113 0 5 5 -39 9 -104 9 l-113 1 104 -10z"/>
<path d="M6460 1150 c0 -5 10 -10 23 -10 18 0 19 2 7 10 -19 13 -30 13 -30 0z"/>
<path d="M6530 1151 c0 -6 5 -13 10 -16 6 -3 10 1 10 9 0 9 -4 16 -10 16 -5 0
-10 -4 -10 -9z"/>
<path d="M549 1138 c-2 -22 3 -43 11 -48 5 -3 10 -26 13 -50 l4 -45 1 48 c2
43 4 47 27 47 19 0 25 5 25 22 0 21 -1 21 -14 3 -16 -23 -46 -14 -46 15 0 21
-19 28 -21 8z"/>
<path d="M6320 1140 c0 -5 5 -10 10 -10 6 0 10 5 10 10 0 6 -4 10 -10 10 -5 0
-10 -4 -10 -10z"/>
<path d="M6568 1120 c2 -16 6 -30 8 -30 2 0 4 14 4 30 0 17 -4 30 -8 30 -5 0
-7 -13 -4 -30z"/>
<path d="M2831 1136 c8 -8 88 -10 95 -3 4 4 -17 7 -46 7 -29 0 -51 -2 -49 -4z"/>
<path d="M3887 1120 c-6 -23 15 -43 40 -38 12 2 18 12 18 31 1 23 -3 27 -26
27 -18 0 -28 -6 -32 -20z m43 -20 c0 -5 -4 -10 -10 -10 -5 0 -10 5 -10 10 0 6
5 10 10 10 6 0 10 -4 10 -10z"/>
<path d="M4862 1112 c-1 -19 -6 -31 -12 -27 -5 3 -10 -2 -10 -12 0 -15 -2 -16
-10 -3 -7 11 -10 7 -10 -17 0 -27 4 -33 21 -33 20 0 21 -4 17 -71 -2 -47 -8
-73 -18 -79 -10 -7 -11 -10 -2 -10 7 0 12 -13 12 -29 0 -16 -6 -32 -12 -34
-10 -4 -10 -6 0 -6 7 -1 12 -14 12 -32 0 -26 -3 -31 -20 -26 -12 3 -20 0 -20
-8 0 -8 8 -11 20 -8 17 4 20 0 20 -25 0 -17 -6 -33 -12 -35 -10 -4 -10 -6 0
-6 6 -1 12 -8 12 -17 0 -11 -6 -15 -20 -11 -11 3 -23 0 -26 -5 -5 -7 4 -9 25
-6 25 4 31 1 31 -14 0 -16 8 -18 58 -16 l57 2 -52 3 c-53 4 -53 4 -53 39 l0
34 51 0 c27 0 48 4 45 9 -3 5 -26 8 -51 7 l-45 -2 0 42 0 42 45 -1 c45 -1 64
7 52 20 -4 3 -27 6 -52 6 l-45 -1 0 42 0 42 45 -2 c25 -1 48 2 51 7 3 5 -18 9
-45 9 l-51 0 0 35 0 35 51 0 c27 0 48 4 45 9 -3 5 -26 8 -51 7 l-45 -2 0 43
c0 43 0 43 33 40 18 -2 42 0 52 4 14 5 3 8 -32 8 l-52 1 -4 43 c-3 35 -4 37
-5 9z"/>
<path d="M6215 1130 c3 -5 8 -10 11 -10 2 0 4 5 4 10 0 6 -5 10 -11 10 -5 0
-7 -4 -4 -10z"/>
<path d="M2332 1048 c0 -76 1 -79 8 -33 11 68 12 115 1 115 -4 0 -8 -37 -9
-82z"/>
<path d="M2474 1121 c12 -4 15 -10 9 -14 -6 -4 -10 -39 -9 -81 1 -73 8 -97 23
-82 4 4 1 12 -7 17 -11 8 -12 12 -2 16 6 2 12 13 12 23 0 10 -6 21 -12 23 -10
4 -9 8 2 16 13 9 13 14 2 31 -18 30 4 48 64 53 35 2 28 4 -26 4 -43 1 -67 -2
-56 -6z"/>
<path d="M2640 1100 c0 -16 4 -30 9 -30 4 0 6 11 3 25 -4 22 -1 25 23 25 21 0
26 -4 21 -17 -4 -9 -1 -20 5 -24 6 -4 8 -12 4 -19 -6 -10 -11 -9 -22 5 -7 11
-13 14 -13 8 0 -6 7 -16 15 -23 13 -10 19 -10 35 5 11 10 20 28 20 41 0 17 7
24 28 27 15 2 -8 5 -50 6 l-78 1 0 -30z"/>
<path d="M3323 1123 l37 -4 1 -477 c1 -262 4 -467 7 -454 4 13 6 230 4 483
l-2 459 -43 -2 -42 -1 38 -4z"/>
<path d="M5424 1118 c-4 -6 -8 -21 -10 -33 -2 -19 3 -22 28 -21 37 2 53 26 33
52 -7 10 -17 15 -22 11 -4 -5 0 -13 10 -18 9 -6 15 -14 12 -20 -9 -14 -25 -11
-25 6 0 8 -5 15 -11 15 -5 0 -7 5 -4 10 3 6 4 10 1 10 -3 0 -8 -5 -12 -12z"/>
<path d="M5969 1119 c-10 -6 -2 -9 25 -9 40 0 45 8 9 14 -11 3 -26 0 -34 -5z"/>
<path d="M6070 1120 l-25 -6 28 -6 c15 -3 30 -2 32 3 8 12 -8 16 -35 9z"/>
<path d="M10030 1121 c0 -12 29 -23 41 -15 18 10 9 24 -16 24 -14 0 -25 -4
-25 -9z"/>
<path d="M2568 1102 c12 -8 12 -13 0 -31 -11 -18 -11 -23 2 -32 11 -8 12 -12
3 -16 -7 -2 -13 -13 -13 -23 0 -10 6 -21 13 -23 9 -4 8 -8 -3 -16 -8 -5 -11
-13 -7 -18 15 -14 22 15 22 88 -1 55 -5 74 -16 77 -11 3 -11 2 -1 -6z"/>
<path d="M3796 1096 c3 -8 12 -17 19 -20 17 -6 53 20 41 31 -5 4 -11 2 -13 -4
-5 -15 -33 -17 -33 -3 0 6 -4 10 -10 10 -5 0 -7 -6 -4 -14z"/>
<path d="M653 1050 c0 -30 2 -43 4 -27 2 15 2 39 0 55 -2 15 -4 2 -4 -28z"/>
<path d="M6660 1089 c0 -5 11 -9 25 -9 14 0 25 2 25 4 0 2 -11 6 -25 8 -14 3
-25 1 -25 -3z"/>
<path d="M5281 1055 c9 -8 75 -12 94 -4 13 5 -1 8 -39 8 -33 1 -57 -1 -55 -4z"/>
<path d="M4579 961 c5 -58 8 -55 13 15 2 23 -1 41 -7 41 -6 0 -8 -22 -6 -56z"/>
<path d="M4908 1003 c6 -2 18 -2 25 0 6 3 1 5 -13 5 -14 0 -19 -2 -12 -5z"/>
<path d="M5358 1003 c7 -3 16 -2 19 1 4 3 -2 6 -13 5 -11 0 -14 -3 -6 -6z"/>
<path d="M5446 995 c-3 -8 -1 -15 4 -15 6 0 10 7 10 15 0 8 -2 15 -4 15 -2 0
-6 -7 -10 -15z"/>
<path d="M9846 984 c-9 -24 -7 -27 9 -10 17 17 19 26 6 26 -5 0 -12 -7 -15
-16z"/>
<path d="M9896 981 c22 -21 27 -21 18 3 -3 9 -13 16 -22 16 -13 0 -12 -3 4
-19z"/>
<path d="M573 945 c0 -27 2 -38 4 -22 2 15 2 37 0 50 -2 12 -4 0 -4 -28z"/>
<path d="M653 945 c0 -27 2 -38 4 -22 2 15 2 37 0 50 -2 12 -4 0 -4 -28z"/>
<path d="M2641 735 c-2 -132 -7 -226 -11 -210 l-7 30 -5 -30 -5 -30 -2 28 c0
15 -7 27 -13 27 -9 0 -8 4 2 10 10 6 11 10 3 10 -18 0 -16 29 4 48 16 16 16
16 10 0 -3 -10 -2 -18 3 -18 6 0 10 15 10 33 0 24 -3 28 -10 17 -8 -12 -10
-12 -10 5 0 17 -2 17 -10 5 -7 -11 -10 -12 -10 -2 0 7 8 21 17 30 16 16 16 16
10 0 -3 -10 -2 -18 3 -18 6 0 10 15 10 33 0 24 -3 28 -10 17 -8 -12 -10 -12
-10 5 0 17 -2 17 -10 5 -8 -12 -10 -10 -10 9 l0 24 -21 -27 c-20 -25 -20 -28
-5 -45 14 -16 14 -19 -1 -34 -16 -15 -16 -18 0 -35 21 -23 21 -41 2 -66 -13
-17 -13 -22 0 -42 14 -21 13 -23 -8 -27 -12 -2 -1 -5 26 -6 l47 -1 0 -162 c0
-109 3 -159 10 -152 7 7 9 150 7 410 -2 320 -3 352 -6 159z m-61 -25 c0 -5 -4
-10 -10 -10 -5 0 -10 5 -10 10 0 6 5 10 10 10 6 0 10 -4 10 -10z m0 -70 c0 -5
-4 -10 -10 -10 -5 0 -10 5 -10 10 0 6 5 10 10 10 6 0 10 -4 10 -10z m0 -106
c0 -8 -5 -12 -10 -9 -6 4 -8 11 -5 16 9 14 15 11 15 -7z"/>
<path d="M5284 958 c-3 -5 20 -8 50 -8 31 0 56 4 56 9 0 11 -100 10 -106 -1z"/>
<path d="M5416 921 c2 -37 2 -37 29 -36 32 0 47 22 34 47 -6 12 -19 18 -37 16
-23 -2 -28 -6 -26 -27z m59 -12 c-10 -15 -22 -10 -28 11 -4 17 -2 18 14 9 11
-5 17 -14 14 -20z"/>
<path d="M612 920 c0 -14 2 -19 5 -12 2 6 2 18 0 25 -3 6 -5 1 -5 -13z"/>
<path d="M4908 913 c6 -2 18 -2 25 0 6 3 1 5 -13 5 -14 0 -19 -2 -12 -5z"/>
<path d="M5358 913 c7 -3 16 -2 19 1 4 3 -2 6 -13 5 -11 0 -14 -3 -6 -6z"/>
<path d="M1001 579 c0 -184 3 -326 7 -317 9 22 7 636 -2 645 -3 3 -6 -144 -5
-328z"/>
<path d="M1441 579 c0 -184 3 -326 7 -317 9 22 7 636 -2 645 -3 3 -6 -144 -5
-328z"/>
<path d="M1884 580 c0 -184 2 -260 3 -167 2 92 2 242 0 335 -1 92 -3 16 -3
-168z"/>
<path d="M923 850 c0 -30 2 -43 4 -27 2 15 2 39 0 55 -2 15 -4 2 -4 -28z"/>
<path d="M4524 875 c-4 -10 -13 -13 -25 -10 -13 5 -19 1 -19 -10 0 -10 7 -15
18 -13 9 1 23 -1 31 -6 7 -5 16 -5 20 1 3 5 17 9 30 8 13 0 26 6 29 14 3 10 0
12 -12 8 -10 -4 -24 -1 -32 8 -20 19 -33 19 -40 0z m13 -20 c0 -8 -4 -12 -9
-9 -5 3 -6 10 -3 15 9 13 12 11 12 -6z"/>
<path d="M573 835 c0 -27 2 -38 4 -22 2 15 2 37 0 50 -2 12 -4 0 -4 -28z"/>
<path d="M653 835 c0 -27 2 -38 4 -22 2 15 2 37 0 50 -2 12 -4 0 -4 -28z"/>
<path d="M4812 860 c0 -14 2 -19 5 -12 2 6 2 18 0 25 -3 6 -5 1 -5 -13z"/>
<path d="M5283 873 c4 -3 28 -7 53 -9 26 -1 51 -8 56 -16 7 -9 8 -8 4 5 -3 10
-6 21 -6 23 0 2 -25 4 -57 4 -31 0 -53 -3 -50 -7z"/>
<path d="M6680 870 c0 -5 5 -10 11 -10 5 0 7 5 4 10 -3 6 -8 10 -11 10 -2 0
-4 -4 -4 -10z"/>
<path d="M6725 845 c0 -19 3 -35 8 -35 4 0 7 16 7 35 0 19 -3 35 -7 35 -5 0
-8 -16 -8 -35z"/>
<path d="M2287 863 c40 -4 43 -6 48 -41 10 -57 13 -61 14 -16 1 51 -13 64 -63
62 l-41 -1 42 -4z"/>
<path d="M5430 850 c25 -8 167 -13 159 -6 -2 2 -44 6 -94 8 -49 3 -79 2 -65
-2z"/>
<path d="M2557 830 c-3 -12 3 -30 14 -43 11 -13 18 -17 19 -9 0 7 5 10 10 7 6
-3 10 0 11 7 0 7 4 4 9 -7 7 -16 9 -11 9 20 0 31 -2 36 -9 20 -7 -16 -9 -16
-9 -4 -1 15 -20 29 -41 29 -4 0 -10 -9 -13 -20z m33 -15 c0 -8 -4 -15 -9 -15
-13 0 -22 16 -14 24 11 11 23 6 23 -9z"/>
<path d="M612 815 c0 -16 2 -22 5 -12 2 9 2 23 0 30 -3 6 -5 -1 -5 -18z"/>
<path d="M4908 823 c6 -2 18 -2 25 0 6 3 1 5 -13 5 -14 0 -19 -2 -12 -5z"/>
<path d="M5358 823 c7 -3 16 -2 19 1 4 3 -2 6 -13 5 -11 0 -14 -3 -6 -6z"/>
<path d="M6680 819 c0 -5 5 -7 10 -4 6 3 10 8 10 11 0 2 -4 4 -10 4 -5 0 -10
-5 -10 -11z"/>
<path d="M5413 813 c-22 -8 -14 -23 12 -23 14 0 25 4 25 9 0 11 -21 19 -37 14z"/>
<path d="M4458 803 c6 -2 18 -2 25 0 6 3 1 5 -13 5 -14 0 -19 -2 -12 -5z"/>
<path d="M4608 803 c6 -2 18 -2 25 0 6 3 1 5 -13 5 -14 0 -19 -2 -12 -5z"/>
<path d="M4812 790 c0 -14 2 -19 5 -12 2 6 2 18 0 25 -3 6 -5 1 -5 -13z"/>
<path d="M5460 799 c0 -5 5 -7 10 -4 6 3 10 8 10 11 0 2 -4 4 -10 4 -5 0 -10
-5 -10 -11z"/>
<path d="M5497 803 c-10 -10 -8 -53 2 -53 5 0 9 14 9 30 -1 33 -1 33 -11 23z"/>
<path d="M6728 770 c-3 -16 -1 -30 4 -30 4 0 8 14 8 30 0 17 -2 30 -4 30 -2 0
-6 -13 -8 -30z"/>
<path d="M923 750 c0 -25 2 -35 4 -22 2 12 2 32 0 45 -2 12 -4 2 -4 -23z"/>
<path d="M4526 781 c-3 -5 -15 -7 -26 -4 -15 4 -20 0 -20 -13 0 -16 2 -17 10
-4 5 8 10 10 10 4 0 -17 43 -26 52 -11 5 8 8 8 8 1 0 -7 11 -9 25 -6 33 6 26
27 -8 27 -14 -1 -23 3 -21 7 3 4 -2 8 -10 8 -8 0 -17 -4 -20 -9z"/>
<path d="M5303 782 c-13 -2 -23 -8 -23 -13 0 -9 20 -12 74 -11 29 1 43 8 34
17 -7 7 -59 11 -85 7z"/>
<path d="M573 725 c0 -27 2 -38 4 -22 2 15 2 37 0 50 -2 12 -4 0 -4 -28z"/>
<path d="M612 745 c0 -16 2 -22 5 -12 2 9 2 23 0 30 -3 6 -5 -1 -5 -18z"/>
<path d="M653 725 c0 -27 2 -38 4 -22 2 15 2 37 0 50 -2 12 -4 0 -4 -28z"/>
<path d="M2332 695 c-2 -90 20 -120 68 -95 22 12 26 40 8 58 -9 9 -9 12 0 12
16 0 15 39 -1 46 -8 3 -25 0 -40 -5 -24 -9 -26 -8 -30 22 -2 18 -4 1 -5 -38z
m73 5 c3 -6 -1 -17 -9 -26 -15 -14 -16 -13 -16 10 0 26 13 35 25 16z m-58 -62
c-3 -7 -5 -2 -5 12 0 14 2 19 5 13 2 -7 2 -19 0 -25z m58 2 c3 -6 -1 -17 -9
-26 -15 -14 -16 -13 -16 10 0 26 13 35 25 16z"/>
<path d="M6680 749 c0 -5 5 -7 10 -4 6 3 10 8 10 11 0 2 -4 4 -10 4 -5 0 -10
-5 -10 -11z"/>
<path d="M4271 724 c0 -11 3 -14 6 -6 3 7 2 16 -1 19 -3 4 -6 -2 -5 -13z"/>
<path d="M4418 713 c12 -2 32 -2 45 0 12 2 2 4 -23 4 -25 0 -35 -2 -22 -4z"/>
<path d="M4618 713 c12 -2 32 -2 45 0 12 2 2 4 -23 4 -25 0 -35 -2 -22 -4z"/>
<path d="M4908 713 c6 -2 18 -2 25 0 6 3 1 5 -13 5 -14 0 -19 -2 -12 -5z"/>
<path d="M5358 713 c7 -3 16 -2 19 1 4 3 -2 6 -13 5 -11 0 -14 -3 -6 -6z"/>
<path d="M9936 703 c-3 -3 -6 -35 -6 -70 l0 -63 -37 -1 c-39 -1 -37 -3 9 -13
27 -6 27 -7 26 -91 l-1 -85 -103 0 c-67 0 -104 -4 -104 -11 0 -7 33 -8 105 -3
l105 7 0 -47 c0 -36 4 -46 16 -46 14 0 16 9 12 50 -3 28 -2 50 1 50 3 0 6 15
6 34 0 19 -3 32 -7 29 -5 -2 -8 1 -8 6 0 6 4 11 8 11 11 0 9 54 -3 63 -7 5 -7
10 0 15 11 8 15 62 4 62 -3 0 -4 22 -1 49 4 44 -6 70 -22 54z"/>
<path d="M10030 700 c0 -6 32 -10 75 -10 43 0 75 4 75 10 0 6 -32 10 -75 10
-43 0 -75 -4 -75 -10z"/>
<path d="M4518 686 c-10 -7 -15 -16 -11 -19 3 -4 1 -7 -4 -7 -6 0 -14 6 -16
13 -3 7 -6 5 -6 -6 -1 -15 7 -17 62 -15 46 2 62 7 62 17 0 8 -9 15 -20 16 -11
2 -27 5 -35 8 -8 4 -23 0 -32 -7z m22 -10 c0 -3 -4 -8 -10 -11 -5 -3 -10 -1
-10 4 0 6 5 11 10 11 6 0 10 -2 10 -4z m30 -6 c0 -5 -2 -10 -4 -10 -3 0 -8 5
-11 10 -3 6 -1 10 4 10 6 0 11 -4 11 -10z"/>
<path d="M923 635 c0 -27 2 -38 4 -22 2 15 2 37 0 50 -2 12 -4 0 -4 -28z"/>
<path d="M5284 668 c-3 -5 20 -8 50 -8 31 0 56 4 56 9 0 11 -100 10 -106 -1z"/>
<path d="M10115 670 c-3 -5 -1 -10 4 -10 6 0 11 5 11 10 0 6 -2 10 -4 10 -3 0
-8 -4 -11 -10z"/>
<path d="M10165 649 c0 -16 3 -29 8 -29 4 0 7 11 7 24 0 14 -3 27 -7 29 -5 3
-8 -8 -8 -24z"/>
<path d="M4271 654 c0 -11 3 -14 6 -6 3 7 2 16 -1 19 -3 4 -6 -2 -5 -13z"/>
<path d="M4811 654 c0 -11 3 -14 6 -6 3 7 2 16 -1 19 -3 4 -6 -2 -5 -13z"/>
<path d="M573 615 c0 -27 2 -38 4 -22 2 15 2 37 0 50 -2 12 -4 0 -4 -28z"/>
<path d="M612 640 c0 -14 2 -19 5 -12 2 6 2 18 0 25 -3 6 -5 1 -5 -13z"/>
<path d="M653 615 c0 -27 2 -38 4 -22 2 15 2 37 0 50 -2 12 -4 0 -4 -28z"/>
<path d="M962 610 c0 -14 2 -19 5 -12 2 6 2 18 0 25 -3 6 -5 1 -5 -13z"/>
<path d="M1052 610 c0 -14 2 -19 5 -12 2 6 2 18 0 25 -3 6 -5 1 -5 -13z"/>
<path d="M1092 610 c0 -14 2 -19 5 -12 2 6 2 18 0 25 -3 6 -5 1 -5 -13z"/>
<path d="M1402 610 c0 -14 2 -19 5 -12 2 6 2 18 0 25 -3 6 -5 1 -5 -13z"/>
<path d="M4406 622 c-2 -4 13 -6 35 -4 21 2 39 6 39 8 0 7 -69 4 -74 -4z"/>
<path d="M4628 623 c12 -2 30 -2 40 0 9 3 -1 5 -23 4 -22 0 -30 -2 -17 -4z"/>
<path d="M4908 623 c6 -2 18 -2 25 0 6 3 1 5 -13 5 -14 0 -19 -2 -12 -5z"/>
<path d="M5358 623 c7 -3 16 -2 19 1 4 3 -2 6 -13 5 -11 0 -14 -3 -6 -6z"/>
<path d="M10118 623 c7 -3 16 -2 19 1 4 3 -2 6 -13 5 -11 0 -14 -3 -6 -6z"/>
<path d="M4513 581 c-10 -16 -9 -20 10 -25 22 -5 40 11 30 28 -3 5 -1 6 5 2 6
-4 9 -13 5 -21 -4 -12 0 -13 15 -8 28 11 28 27 0 35 -40 11 -53 9 -65 -11z"/>
<path d="M9990 596 c0 -2 7 -7 16 -10 8 -3 12 -2 9 4 -6 10 -25 14 -25 6z"/>
<path d="M10110 590 c0 -5 7 -7 15 -4 8 4 15 8 15 10 0 2 -7 4 -15 4 -8 0 -15
-4 -15 -10z"/>
<path d="M10165 570 c0 -16 3 -30 8 -30 4 0 7 14 7 30 0 17 -3 30 -7 30 -5 0
-8 -13 -8 -30z"/>
<path d="M4480 573 c0 -10 4 -14 8 -8 4 6 11 13 16 18 5 4 2 7 -7 7 -10 0 -17
-8 -17 -17z"/>
<path d="M4839 590 c0 -3 -2 -13 -4 -22 -2 -10 3 -18 11 -18 8 0 14 -9 14 -20
0 -11 -5 -19 -11 -17 -6 1 -13 -6 -14 -15 -2 -10 2 -18 9 -18 6 0 12 -9 13
-20 1 -11 -4 -20 -11 -20 -7 0 -13 -7 -13 -15 0 -8 6 -15 12 -15 6 0 12 -7 12
-15 0 -8 -5 -15 -12 -15 -6 0 -11 -9 -11 -20 0 -12 5 -19 12 -16 7 3 12 -5 12
-19 0 -13 -5 -23 -10 -22 -6 1 -12 -6 -13 -15 -2 -10 3 -18 10 -18 10 0 13
-18 13 -70 0 -39 2 -74 6 -77 3 -3 6 12 6 35 l0 41 53 4 52 3 -52 2 -53 2 0
40 c0 40 1 40 33 37 18 -2 42 0 52 4 14 5 3 8 -32 8 l-53 1 0 40 c0 40 1 40
33 37 18 -2 42 0 52 4 14 5 3 8 -32 8 l-53 1 0 40 c0 40 1 40 33 37 18 -2 42
0 52 4 20 7 20 8 0 10 -11 1 -35 1 -52 1 -32 -2 -33 0 -33 38 l0 39 53 4 52 3
-55 2 c-31 1 -61 7 -68 14 -7 7 -12 10 -13 8z"/>
<path d="M5308 583 c18 -2 45 -2 60 0 15 2 0 4 -33 4 -33 0 -45 -2 -27 -4z"/>
<path d="M923 525 c0 -27 2 -38 4 -22 2 15 2 37 0 50 -2 12 -4 0 -4 -28z"/>
<path d="M2319 563 c-5 -35 -3 -73 3 -73 4 0 8 18 8 40 0 22 -2 40 -5 40 -3 0
-5 -3 -6 -7z"/>
<path d="M2384 559 c-3 -6 -12 -8 -19 -5 -7 2 -16 -1 -18 -9 -8 -19 3 -53 18
-59 19 -7 55 27 55 52 0 22 -26 37 -36 21z m20 -17 c2 -4 -2 -16 -10 -27 -13
-18 -14 -18 -14 8 0 25 13 36 24 19z"/>
<path d="M5308 563 c18 -2 45 -2 60 0 15 2 0 4 -33 4 -33 0 -45 -2 -27 -4z"/>
<path d="M963 515 c0 -22 2 -30 4 -17 2 12 2 30 0 40 -3 9 -5 -1 -4 -23z"/>
<path d="M1053 515 c0 -22 2 -30 4 -17 2 12 2 30 0 40 -3 9 -5 -1 -4 -23z"/>
<path d="M1093 515 c0 -22 2 -30 4 -17 2 12 2 30 0 40 -3 9 -5 -1 -4 -23z"/>
<path d="M1403 515 c0 -22 2 -30 4 -17 2 12 2 30 0 40 -3 9 -5 -1 -4 -23z"/>
<path d="M9998 543 c7 -3 16 -2 19 1 4 3 -2 6 -13 5 -11 0 -14 -3 -6 -6z"/>
<path d="M10118 543 c7 -3 16 -2 19 1 4 3 -2 6 -13 5 -11 0 -14 -3 -6 -6z"/>
<path d="M573 500 c0 -25 2 -35 4 -22 2 12 2 32 0 45 -2 12 -4 2 -4 -23z"/>
<path d="M653 500 c0 -25 2 -35 4 -22 2 12 2 32 0 45 -2 12 -4 2 -4 -23z"/>
<path d="M4418 523 c12 -2 32 -2 45 0 12 2 2 4 -23 4 -25 0 -35 -2 -22 -4z"/>
<path d="M4618 523 c12 -2 32 -2 45 0 12 2 2 4 -23 4 -25 0 -35 -2 -22 -4z"/>
<path d="M9998 513 c7 -3 16 -2 19 1 4 3 -2 6 -13 5 -11 0 -14 -3 -6 -6z"/>
<path d="M10118 513 c7 -3 16 -2 19 1 4 3 -2 6 -13 5 -11 0 -14 -3 -6 -6z"/>
<path d="M10165 490 c0 -16 3 -30 8 -30 4 0 7 14 7 30 0 17 -3 30 -7 30 -5 0
-8 -13 -8 -30z"/>
<path d="M4533 496 c4 -10 0 -12 -15 -8 -14 3 -19 1 -14 -6 4 -7 3 -12 -3 -12
-5 0 -12 5 -14 10 -3 6 -4 5 -3 -2 4 -20 121 -18 121 2 0 8 -7 14 -17 12 -9
-1 -19 2 -23 8 -10 15 -38 12 -32 -4z m37 -17 c0 -6 -4 -7 -10 -4 -5 3 -10 11
-10 16 0 6 5 7 10 4 6 -3 10 -11 10 -16z"/>
<path d="M5300 479 c-24 -7 -24 -7 -2 -9 48 -5 97 -2 90 5 -9 9 -62 12 -88 4z"/>
<path d="M10000 470 c-9 -6 -10 -10 -3 -10 6 0 15 5 18 10 8 12 4 12 -15 0z"/>
<path d="M10110 470 c0 -6 7 -10 15 -10 8 0 15 2 15 4 0 2 -7 6 -15 10 -8 3
-15 1 -15 -4z"/>
<path d="M923 415 c0 -27 2 -38 4 -22 2 15 2 37 0 50 -2 12 -4 0 -4 -28z"/>
<path d="M962 435 c0 -16 2 -22 5 -12 2 9 2 23 0 30 -3 6 -5 -1 -5 -18z"/>
<path d="M1052 435 c0 -16 2 -22 5 -12 2 9 2 23 0 30 -3 6 -5 -1 -5 -18z"/>
<path d="M1092 435 c0 -16 2 -22 5 -12 2 9 2 23 0 30 -3 6 -5 -1 -5 -18z"/>
<path d="M1402 435 c0 -16 2 -22 5 -12 2 9 2 23 0 30 -3 6 -5 -1 -5 -18z"/>
<path d="M574 345 c0 -60 1 -84 3 -52 2 32 2 81 0 110 -2 29 -3 3 -3 -58z"/>
<path d="M654 345 c0 -60 1 -84 3 -52 2 32 2 81 0 110 -2 29 -3 3 -3 -58z"/>
<path d="M9995 440 c-3 -5 1 -10 10 -10 9 0 13 5 10 10 -3 6 -8 10 -10 10 -2
0 -7 -4 -10 -10z"/>
<path d="M10115 440 c-3 -5 1 -10 10 -10 9 0 13 5 10 10 -3 6 -8 10 -10 10 -2
0 -7 -4 -10 -10z"/>
<path d="M10165 415 c0 -18 3 -31 8 -28 4 2 7 15 7 28 0 13 -3 26 -7 28 -5 3
-8 -10 -8 -28z"/>
<path d="M4407 433 c-4 -3 -7 -11 -7 -17 0 -7 3 -7 8 1 4 6 23 13 42 16 l35 4
-36 1 c-20 1 -39 -1 -42 -5z"/>
<path d="M4628 433 c12 -2 30 -2 40 0 9 3 -1 5 -23 4 -22 0 -30 -2 -17 -4z"/>
<path d="M4508 403 c-18 -3 -28 -10 -27 -21 0 -11 3 -12 6 -4 2 6 9 12 14 12
6 0 7 -5 3 -11 -4 -8 1 -9 16 -4 15 5 20 4 16 -4 -4 -6 -2 -11 3 -11 10 0 15
14 12 33 -1 5 3 5 9 2 6 -4 9 -13 6 -20 -5 -14 30 -9 39 6 10 16 -50 29 -97
22z"/>
<path d="M9995 390 c4 -6 11 -8 16 -5 14 9 11 15 -7 15 -8 0 -12 -5 -9 -10z"/>
<path d="M10115 390 c4 -6 11 -8 16 -5 14 9 11 15 -7 15 -8 0 -12 -5 -9 -10z"/>
<path d="M5281 385 c9 -8 75 -12 94 -4 13 5 -1 8 -39 8 -33 1 -57 -1 -55 -4z"/>
<path d="M6730 355 c0 -10 10 -15 33 -14 19 1 25 3 13 6 -15 4 -16 7 -5 14 10
6 6 9 -13 9 -18 0 -28 -5 -28 -15z"/>
<path d="M10115 360 c-3 -5 1 -10 10 -10 9 0 13 5 10 10 -3 6 -8 10 -10 10 -2
0 -7 -4 -10 -10z"/>
<path d="M10165 335 c0 -18 3 -31 8 -28 4 2 7 15 7 28 0 13 -3 26 -7 28 -5 3
-8 -10 -8 -28z"/>
<path d="M923 305 c0 -27 2 -38 4 -22 2 15 2 37 0 50 -2 12 -4 0 -4 -28z"/>
<path d="M962 330 c0 -14 2 -19 5 -12 2 6 2 18 0 25 -3 6 -5 1 -5 -13z"/>
<path d="M1052 330 c0 -14 2 -19 5 -12 2 6 2 18 0 25 -3 6 -5 1 -5 -13z"/>
<path d="M1092 330 c0 -14 2 -19 5 -12 2 6 2 18 0 25 -3 6 -5 1 -5 -13z"/>
<path d="M1402 330 c0 -14 2 -19 5 -12 2 6 2 18 0 25 -3 6 -5 1 -5 -13z"/>
<path d="M4458 333 c7 -3 16 -2 19 1 4 3 -2 6 -13 5 -11 0 -14 -3 -6 -6z"/>
<path d="M4608 333 c7 -3 16 -2 19 1 4 3 -2 6 -13 5 -11 0 -14 -3 -6 -6z"/>
<path d="M4908 333 c6 -2 18 -2 25 0 6 3 1 5 -13 5 -14 0 -19 -2 -12 -5z"/>
<path d="M5358 333 c7 -3 16 -2 19 1 4 3 -2 6 -13 5 -11 0 -14 -3 -6 -6z"/>
<path d="M6511 270 c2 -68 13 -93 21 -47 6 35 -3 117 -13 117 -6 0 -9 -31 -8
-70z"/>
<path d="M6622 300 c0 -19 2 -27 5 -17 2 9 2 25 0 35 -3 9 -5 1 -5 -18z"/>
<path d="M6748 306 c-6 -32 2 -86 13 -86 5 0 9 11 9 24 0 13 6 27 13 30 10 5
10 7 0 12 -7 3 -13 14 -13 25 0 27 -17 24 -22 -5z"/>
<path d="M6892 300 c0 -19 2 -27 5 -17 2 9 2 25 0 35 -3 9 -5 1 -5 -18z"/>
<path d="M4530 310 c0 -5 -7 -10 -16 -10 -8 0 -12 -4 -9 -10 3 -5 2 -10 -4
-10 -5 0 -12 5 -14 10 -3 6 -4 5 -3 -2 2 -8 17 -13 37 -13 28 0 34 3 31 20 -2
16 -1 17 7 5 5 -8 7 -18 4 -23 -3 -5 5 -7 18 -5 13 1 24 10 24 18 0 8 -7 14
-17 12 -9 -1 -19 2 -23 8 -8 13 -35 13 -35 0z"/>
<path d="M10115 310 c4 -6 11 -8 16 -5 14 9 11 15 -7 15 -8 0 -12 -5 -9 -10z"/>
<path d="M4763 275 c0 -22 2 -30 4 -17 2 12 2 30 0 40 -3 9 -5 -1 -4 -23z"/>
<path d="M5281 295 c9 -8 75 -12 94 -4 13 5 -1 8 -39 8 -33 1 -57 -1 -55 -4z"/>
<path d="M9728 284 c-5 -4 -8 -45 -8 -91 l0 -83 -272 -3 c-175 -1 -133 -2 117
-3 215 0 342 2 283 3 l-107 4 -3 90 c-2 50 -6 87 -10 83z"/>
<path d="M8000 250 c-12 -7 -12 -12 -2 -22 10 -10 15 -10 22 2 19 29 9 39 -20
20z"/>
<path d="M8768 253 c6 -2 18 -2 25 0 6 3 1 5 -13 5 -14 0 -19 -2 -12 -5z"/>
<path d="M4418 243 c12 -2 32 -2 45 0 12 2 2 4 -23 4 -25 0 -35 -2 -22 -4z"/>
<path d="M4623 243 c15 -2 39 -2 55 0 15 2 2 4 -28 4 -30 0 -43 -2 -27 -4z"/>
<path d="M5308 203 c18 -2 45 -2 60 0 15 2 0 4 -33 4 -33 0 -45 -2 -27 -4z"/>
<path d="M2544 181 c-2 -2 -4 -8 -4 -12 0 -12 35 -7 48 7 8 9 5 11 -14 10 -14
0 -28 -3 -30 -5z"/>
<path d="M550 161 c0 -15 -8 -21 -37 -24 l-38 -4 38 -1 c25 -1 37 -7 37 -17 0
-12 14 -15 73 -13 l72 2 -62 3 -63 4 0 34 c0 19 -4 35 -10 35 -5 0 -10 -9 -10
-19z"/>
<path d="M6745 170 c3 -6 -1 -7 -9 -4 -9 3 -23 3 -32 0 -13 -5 -14 -9 -4 -21
9 -10 17 -12 30 -5 13 7 20 6 23 -3 4 -9 8 -9 15 2 6 8 15 10 22 6 9 -5 11 -4
6 3 -4 7 -3 12 3 12 5 0 12 -6 14 -12 4 -8 6 -7 6 3 1 11 -10 19 -30 23 -43 8
-51 8 -44 -4z"/>
<path d="M8660 158 c0 -5 11 -8 25 -8 14 0 25 3 25 8 0 4 -11 7 -25 7 -14 0
-25 -3 -25 -7z"/>
<path d="M9773 163 c9 -2 23 -2 30 0 6 3 -1 5 -18 5 -16 0 -22 -2 -12 -5z"/>
<path d="M7415 130 c-3 -5 1 -10 10 -10 9 0 13 5 10 10 -3 6 -8 10 -10 10 -2
0 -7 -4 -10 -10z"/>
<path d="M8675 130 c-4 -6 3 -10 14 -10 25 0 27 6 6 13 -8 4 -17 2 -20 -3z"/>
<path d="M8770 130 c0 -5 5 -10 11 -10 5 0 7 5 4 10 -3 6 -8 10 -11 10 -2 0
-4 -4 -4 -10z"/>
<path d="M2520 115 c0 -19 5 -20 107 -15 l108 5 -100 3 c-64 2 -102 7 -107 15
-5 8 -8 5 -8 -8z"/>
<path d="M7570 121 c0 -7 -50 -11 -152 -14 -84 -1 227 -2 692 -2 726 0 750 0
166 2 -481 2 -683 6 -693 14 -9 8 -13 8 -13 0z"/>
<path d="M868 103 c6 -2 18 -2 25 0 6 3 1 5 -13 5 -14 0 -19 -2 -12 -5z"/>
<path d="M983 103 c32 -2 81 -2 110 0 29 2 3 3 -58 3 -60 0 -84 -1 -52 -3z"/>
<path d="M1298 103 c6 -2 18 -2 25 0 6 3 1 5 -13 5 -14 0 -19 -2 -12 -5z"/>
<path d="M1423 103 c31 -2 83 -2 115 0 31 2 5 3 -58 3 -63 0 -89 -1 -57 -3z"/>
<path d="M1698 103 c6 -2 18 -2 25 0 6 3 1 5 -13 5 -14 0 -19 -2 -12 -5z"/>
<path d="M1848 103 c18 -2 45 -2 60 0 15 2 0 4 -33 4 -33 0 -45 -2 -27 -4z"/>
<path d="M1988 103 c7 -3 16 -2 19 1 4 3 -2 6 -13 5 -11 0 -14 -3 -6 -6z"/>
<path d="M2198 103 c17 -2 47 -2 65 0 17 2 3 4 -33 4 -36 0 -50 -2 -32 -4z"/>
<path d="M2398 103 c6 -2 18 -2 25 0 6 3 1 5 -13 5 -14 0 -19 -2 -12 -5z"/>
<path d="M2998 103 c17 -2 47 -2 65 0 17 2 3 4 -33 4 -36 0 -50 -2 -32 -4z"/>
<path d="M3200 101 c0 -5 -8 -12 -17 -14 -11 -3 -8 -5 9 -6 20 -1 26 3 22 14
-7 17 -14 20 -14 6z"/>
<path d="M3355 100 c17 -4 23 -8 15 -9 -10 -1 -11 -4 -3 -9 6 -4 13 -21 16
-37 3 -22 4 -17 6 18 1 47 1 47 -31 46 l-33 -1 30 -8z"/>
<path d="M5118 103 c7 -3 16 -2 19 1 4 3 -2 6 -13 5 -11 0 -14 -3 -6 -6z"/>
<path d="M5358 103 c68 -2 176 -2 240 0 64 1 9 3 -123 3 -132 0 -185 -2 -117
-3z"/>
<path d="M6223 103 c153 -2 401 -2 550 0 150 1 25 2 -278 2 -302 0 -425 -1
-272 -2z"/>
</g>
</svg>
