<?xml version="1.0" encoding="UTF-8"?>
<!-- Do not edit this file with editors other than draw.io -->
<!DOCTYPE svg PUBLIC "-//W3C//DTD SVG 1.1//EN" "http://www.w3.org/Graphics/SVG/1.1/DTD/svg11.dtd">
<svg xmlns="http://www.w3.org/2000/svg" style="background: transparent; background-color: transparent; color-scheme: light dark;" xmlns:xlink="http://www.w3.org/1999/xlink" version="1.1" width="51px" height="51px" viewBox="0 0 51 51" content="&lt;mxfile host=&quot;Electron&quot; agent=&quot;Mozilla/5.0 (Windows NT 10.0; Win64; x64) AppleWebKit/537.36 (KHTML, like Gecko) draw.io/29.6.6 Chrome/144.0.7559.236 Electron/40.8.4 Safari/537.36&quot; version=&quot;29.6.6&quot; scale=&quot;1&quot; border=&quot;0&quot;&gt;&#10;  &lt;diagram name=&quot;Página-1&quot; id=&quot;58Q4iLej74Yhcoqce5W3&quot;&gt;&#10;    &lt;mxGraphModel dx=&quot;218&quot; dy=&quot;-7&quot; grid=&quot;0&quot; gridSize=&quot;10&quot; guides=&quot;1&quot; tooltips=&quot;1&quot; connect=&quot;1&quot; arrows=&quot;1&quot; fold=&quot;1&quot; page=&quot;1&quot; pageScale=&quot;1&quot; pageWidth=&quot;50&quot; pageHeight=&quot;50&quot; background=&quot;none&quot; math=&quot;0&quot; shadow=&quot;0&quot;&gt;&#10;      &lt;root&gt;&#10;        &lt;mxCell id=&quot;0&quot; /&gt;&#10;        &lt;mxCell id=&quot;1&quot; parent=&quot;0&quot; /&gt;&#10;        &lt;mxCell id=&quot;J2U26iJZSZcQpzP_sjHZ-1&quot; parent=&quot;1&quot; style=&quot;sketch=0;points=[[0.5,0,0],[1,0.5,0],[0.5,1,0],[0,0.5,0],[0.145,0.145,0],[0.8555,0.145,0],[0.855,0.8555,0],[0.145,0.855,0]];verticalLabelPosition=bottom;html=1;verticalAlign=top;aspect=fixed;align=center;pointerEvents=1;shape=mxgraph.cisco19.rect;prIcon=router;fillColor=#FAFAFA;strokeColor=#005073;&quot; value=&quot;&quot; vertex=&quot;1&quot;&gt;&#10;          &lt;mxGeometry height=&quot;50&quot; width=&quot;50&quot; y=&quot;150&quot; as=&quot;geometry&quot; /&gt;&#10;        &lt;/mxCell&gt;&#10;      &lt;/root&gt;&#10;    &lt;/mxGraphModel&gt;&#10;  &lt;/diagram&gt;&#10;&lt;/mxfile&gt;&#10;"><defs/><g><g data-cell-id="0"><g data-cell-id="1"><g data-cell-id="J2U26iJZSZcQpzP_sjHZ-1"><g id="cell-J2U26iJZSZcQpzP_sjHZ-1"><g><ellipse cx="25" cy="25" rx="25" ry="25" fill="#fafafa" stroke="none" pointer-events="all" style="fill: rgb(250, 250, 250);"/><rect x="0" y="0" width="50" height="50" fill="none" stroke="none" pointer-events="all"/><path d="M 38.08 40.38 L 31.77 34.19 L 29.2 36.81 L 27.24 27.37 L 36.75 29.12 L 34.2 31.72 L 40.51 37.9 Z M 23.92 28.37 L 17.74 34.68 L 20.36 37.25 L 10.92 39.21 L 12.67 29.71 L 15.26 32.25 L 21.45 25.95 Z M 12.02 9.57 L 18.33 15.76 L 20.89 13.14 L 22.86 22.58 L 13.35 20.83 L 15.9 18.24 L 9.59 12.05 Z M 25.91 21.51 L 32.1 15.2 L 29.48 12.63 L 38.92 10.67 L 37.17 20.17 L 34.58 17.62 L 28.39 23.94 Z M 25 0 C 11.2 0 0 11.2 0 25 C 0 38.8 11.2 50 25 50 C 38.8 50 50 38.8 50 25 C 50 11.2 38.8 0 25 0 Z M 25 0.63 C 38.46 0.63 49.37 11.54 49.37 25 C 49.37 38.46 38.46 49.37 25 49.37 C 11.54 49.37 0.63 38.46 0.63 25 C 0.63 11.54 11.54 0.63 25 0.63 Z" fill="#005073" stroke="none" pointer-events="all" style="fill: rgb(0, 80, 115);"/></g></g></g></g></g></g></svg>