<?xml version="1.0" encoding="UTF-8"?>
<!-- Do not edit this file with editors other than draw.io -->
<!DOCTYPE svg PUBLIC "-//W3C//DTD SVG 1.1//EN" "http://www.w3.org/Graphics/SVG/1.1/DTD/svg11.dtd">
<svg xmlns="http://www.w3.org/2000/svg" style="background: transparent; background-color: transparent; color-scheme: light dark;" xmlns:xlink="http://www.w3.org/1999/xlink" version="1.1" width="51px" height="51px" viewBox="0 0 51 51" content="&lt;mxfile host=&quot;Electron&quot; agent=&quot;Mozilla/5.0 (Windows NT 10.0; Win64; x64) AppleWebKit/537.36 (KHTML, like Gecko) draw.io/29.6.6 Chrome/144.0.7559.236 Electron/40.8.4 Safari/537.36&quot; version=&quot;29.6.6&quot; scale=&quot;1&quot; border=&quot;0&quot;&gt;&#10;  &lt;diagram name=&quot;Página-1&quot; id=&quot;58Q4iLej74Yhcoqce5W3&quot;&gt;&#10;    &lt;mxGraphModel dx=&quot;636&quot; dy=&quot;466&quot; grid=&quot;0&quot; gridSize=&quot;10&quot; guides=&quot;1&quot; tooltips=&quot;1&quot; connect=&quot;1&quot; arrows=&quot;1&quot; fold=&quot;1&quot; page=&quot;1&quot; pageScale=&quot;1&quot; pageWidth=&quot;50&quot; pageHeight=&quot;50&quot; background=&quot;none&quot; math=&quot;0&quot; shadow=&quot;0&quot;&gt;&#10;      &lt;root&gt;&#10;        &lt;mxCell id=&quot;0&quot; /&gt;&#10;        &lt;mxCell id=&quot;1&quot; parent=&quot;0&quot; /&gt;&#10;        &lt;mxCell id=&quot;XoGOKUBx0CQJ7Ejg3S-e-3&quot; parent=&quot;1&quot; style=&quot;sketch=0;points=[[0.015,0.015,0],[0.985,0.015,0],[0.985,0.985,0],[0.015,0.985,0],[0.25,0,0],[0.5,0,0],[0.75,0,0],[1,0.25,0],[1,0.5,0],[1,0.75,0],[0.75,1,0],[0.5,1,0],[0.25,1,0],[0,0.75,0],[0,0.5,0],[0,0.25,0]];verticalLabelPosition=bottom;html=1;verticalAlign=top;aspect=fixed;align=center;pointerEvents=1;shape=mxgraph.cisco19.rect;prIcon=ups;fillColor=#FAFAFA;strokeColor=#005073;&quot; value=&quot;&quot; vertex=&quot;1&quot;&gt;&#10;          &lt;mxGeometry height=&quot;50&quot; width=&quot;50&quot; x=&quot;150&quot; y=&quot;50&quot; as=&quot;geometry&quot; /&gt;&#10;        &lt;/mxCell&gt;&#10;      &lt;/root&gt;&#10;    &lt;/mxGraphModel&gt;&#10;  &lt;/diagram&gt;&#10;&lt;/mxfile&gt;&#10;"><defs/><g><g data-cell-id="0"><g data-cell-id="1"><g data-cell-id="XoGOKUBx0CQJ7Ejg3S-e-3"><g id="cell-XoGOKUBx0CQJ7Ejg3S-e-3"><g transform="translate(0.5,0.5)"><rect x="0" y="0" width="50" height="50" fill="none" stroke="none" pointer-events="all"/><path d="M 3.07 0 C 1.38 0 0 1.37 0 3.05 L 0 46.95 C 0 48.63 1.38 50 3.07 50 L 46.93 50 C 48.62 50 50 48.63 50 46.95 L 50 3.05 C 50 1.37 48.62 0 46.93 0 Z" fill="#fafafa" stroke="none" pointer-events="all" style="fill: rgb(250, 250, 250);"/><rect x="0" y="0" width="50" height="50" fill="none" stroke="none" pointer-events="all"/><path d="M 35.4 7.56 C 34.68 7.56 34.04 7.68 33.45 7.92 C 32.87 8.16 32.43 8.51 32.13 8.97 C 31.82 9.43 31.67 9.93 31.67 10.46 C 31.67 10.94 31.79 11.38 32.04 11.77 C 32.29 12.16 32.67 12.49 33.17 12.75 C 33.56 12.96 34.24 13.18 35.21 13.41 C 36.19 13.64 36.81 13.81 37.1 13.92 C 37.54 14.09 37.86 14.3 38.05 14.55 C 38.24 14.79 38.34 15.08 38.34 15.41 C 38.34 15.73 38.24 16.03 38.04 16.31 C 37.84 16.59 37.54 16.8 37.13 16.96 C 36.72 17.12 36.25 17.2 35.71 17.2 C 35.11 17.2 34.57 17.09 34.09 16.89 C 33.61 16.68 33.25 16.4 33.02 16.07 C 32.79 15.73 32.65 15.3 32.59 14.77 L 31.27 14.88 C 31.29 15.59 31.48 16.22 31.85 16.78 C 32.22 17.34 32.72 17.75 33.37 18.03 C 34.02 18.31 34.82 18.45 35.78 18.45 C 36.53 18.45 37.21 18.31 37.81 18.04 C 38.42 17.76 38.88 17.37 39.2 16.88 C 39.53 16.38 39.69 15.85 39.69 15.29 C 39.69 14.73 39.54 14.23 39.25 13.8 C 38.95 13.36 38.5 13 37.88 12.72 C 37.46 12.53 36.68 12.31 35.54 12.05 C 34.4 11.8 33.7 11.54 33.43 11.3 C 33.16 11.06 33.02 10.75 33.02 10.37 C 33.02 9.93 33.21 9.56 33.6 9.25 C 33.99 8.94 34.61 8.79 35.45 8.79 C 36.27 8.79 36.88 8.96 37.29 9.3 C 37.71 9.64 37.96 10.14 38.03 10.8 L 39.37 10.7 C 39.35 10.09 39.17 9.53 38.85 9.05 C 38.53 8.56 38.07 8.19 37.47 7.94 C 36.87 7.69 36.18 7.56 35.4 7.56 Z M 11.22 7.74 L 11.22 13.82 C 11.22 14.42 11.26 14.95 11.33 15.42 L 8.35 14.06 L 11.5 16.14 C 11.54 16.25 11.58 16.36 11.62 16.46 C 11.89 17.1 12.34 17.6 12.97 17.94 C 13.51 18.23 14.18 18.39 14.99 18.43 L 22.32 23.27 L 9.82 23.25 L 24.26 31.78 L 13.3 33.23 L 41.74 43.97 L 25.31 34.71 L 34.81 34.73 L 19.08 25.49 L 33.24 25.39 L 17.31 18.14 C 17.51 18.06 17.7 17.97 17.87 17.86 C 18.5 17.47 18.93 16.96 19.18 16.34 C 19.42 15.72 19.54 14.88 19.54 13.82 L 19.54 7.74 L 18.14 7.74 L 18.14 13.81 C 18.14 15.14 17.92 16.03 17.48 16.49 C 17.04 16.96 16.31 17.19 15.28 17.19 C 15.26 17.19 15.24 17.19 15.22 17.19 L 13.06 16.2 C 12.98 16.09 12.92 15.97 12.87 15.84 C 12.7 15.4 12.62 14.73 12.62 13.81 L 12.62 7.74 Z M 21.87 7.74 L 21.87 18.27 L 23.27 18.27 L 23.27 13.99 L 25.99 13.99 C 27.48 13.99 28.52 13.68 29.09 13.06 C 29.66 12.44 29.95 11.68 29.95 10.78 C 29.95 10.26 29.84 9.78 29.62 9.35 C 29.41 8.91 29.13 8.57 28.78 8.33 C 28.43 8.09 27.99 7.93 27.47 7.84 C 27.1 7.77 26.57 7.74 25.86 7.74 Z M 23.27 8.98 L 25.98 8.98 C 26.61 8.98 27.05 9.01 27.28 9.07 C 27.65 9.17 27.94 9.38 28.17 9.7 C 28.39 10.01 28.5 10.39 28.5 10.83 C 28.5 11.43 28.31 11.91 27.93 12.24 C 27.55 12.58 26.91 12.74 26.01 12.74 L 23.27 12.74 Z M 3.07 1.38 L 46.93 1.38 C 47.88 1.38 48.62 2.11 48.62 3.05 L 48.62 46.95 C 48.62 47.89 47.88 48.62 46.93 48.62 L 3.07 48.62 C 2.12 48.62 1.39 47.89 1.39 46.95 L 1.39 3.05 C 1.39 2.11 2.12 1.38 3.07 1.38 Z M 3.07 0 C 1.38 0 0 1.37 0 3.05 L 0 46.95 C 0 48.63 1.38 50 3.07 50 L 46.93 50 C 48.62 50 50 48.63 50 46.95 L 50 3.05 C 50 1.37 48.62 0 46.93 0 Z" fill="#005073" stroke="none" pointer-events="all" style="fill: rgb(0, 80, 115);"/></g></g></g></g></g></g></svg>