<?xml version="1.0" encoding="UTF-8"?>
<!-- Do not edit this file with editors other than draw.io -->
<!DOCTYPE svg PUBLIC "-//W3C//DTD SVG 1.1//EN" "http://www.w3.org/Graphics/SVG/1.1/DTD/svg11.dtd">
<svg xmlns="http://www.w3.org/2000/svg" style="background: transparent; background-color: transparent; color-scheme: light dark;" xmlns:xlink="http://www.w3.org/1999/xlink" version="1.1" width="44px" height="44px" viewBox="0 0 44 44" content="&lt;mxfile host=&quot;Electron&quot; agent=&quot;Mozilla/5.0 (Windows NT 10.0; Win64; x64) AppleWebKit/537.36 (KHTML, like Gecko) draw.io/29.6.6 Chrome/144.0.7559.236 Electron/40.8.4 Safari/537.36&quot; version=&quot;29.6.6&quot; scale=&quot;1&quot; border=&quot;0&quot;&gt;&#10;  &lt;diagram name=&quot;Página-1&quot; id=&quot;58Q4iLej74Yhcoqce5W3&quot;&gt;&#10;    &lt;mxGraphModel dx=&quot;218&quot; dy=&quot;143&quot; grid=&quot;0&quot; gridSize=&quot;10&quot; guides=&quot;1&quot; tooltips=&quot;1&quot; connect=&quot;1&quot; arrows=&quot;1&quot; fold=&quot;1&quot; page=&quot;1&quot; pageScale=&quot;1&quot; pageWidth=&quot;50&quot; pageHeight=&quot;50&quot; background=&quot;none&quot; math=&quot;0&quot; shadow=&quot;0&quot;&gt;&#10;      &lt;root&gt;&#10;        &lt;mxCell id=&quot;0&quot; /&gt;&#10;        &lt;mxCell id=&quot;1&quot; parent=&quot;0&quot; /&gt;&#10;        &lt;mxCell id=&quot;J2U26iJZSZcQpzP_sjHZ-4&quot; parent=&quot;1&quot; style=&quot;shadow=0;dashed=0;html=1;strokeColor=none;fillColor=#4495D1;labelPosition=center;verticalLabelPosition=bottom;verticalAlign=top;align=center;outlineConnect=0;shape=mxgraph.veeam.vm_linux;&quot; value=&quot;&quot; vertex=&quot;1&quot;&gt;&#10;          &lt;mxGeometry height=&quot;44&quot; width=&quot;43&quot; x=&quot;4&quot; y=&quot;3&quot; as=&quot;geometry&quot; /&gt;&#10;        &lt;/mxCell&gt;&#10;      &lt;/root&gt;&#10;    &lt;/mxGraphModel&gt;&#10;  &lt;/diagram&gt;&#10;&lt;/mxfile&gt;&#10;"><defs/><g><g data-cell-id="0"><g data-cell-id="1"><g data-cell-id="J2U26iJZSZcQpzP_sjHZ-4"><g id="cell-J2U26iJZSZcQpzP_sjHZ-4"><g><path d="M 0 35.28 L 0 0 L 33.24 0 L 33.24 25.41 L 25.8 25.41 L 25.8 35.3 L 0.02 35.3 Z" fill="#4495d1" stroke="none" pointer-events="all" style="fill: rgb(68, 149, 209);"/><path d="M 26.69 44 L 26.69 26.33 L 43 26.33 L 43 44 Z" fill="#f6921e" stroke="none" pointer-events="all" style="fill: rgb(246, 146, 30);"/><path d="M 33.25 30.88 C 33.05 30.67 32.87 30.46 32.78 30.26 C 32.72 30.1 32.77 29.86 32.93 29.7 C 33.12 29.56 33.47 29.75 33.6 29.92 C 33.74 30.1 33.84 30.38 33.78 30.62 C 33.52 30.63 33.42 30.73 33.25 30.88 Z M 38.67 36.94 C 38.89 36.92 39.02 36.8 39.1 36.63 C 39.14 36.53 39.23 36.31 39.14 36.09 C 39.04 35.82 38.88 35.66 38.76 35.22 C 38.6 34.8 38.37 34.36 38.01 33.84 C 37.45 33.02 36.93 32.24 36.71 31.35 C 36.58 30.87 36.52 30.3 36.57 29.69 C 36.57 29.02 36.43 28.5 35.77 27.95 C 35.36 27.57 34.7 27.36 34.07 27.43 C 33.32 27.51 32.92 27.93 32.69 28.44 C 32.5 28.78 32.46 29.96 32.49 30.5 C 32.51 30.89 32.52 31.48 32.59 31.67 C 32.66 31.94 32.69 32.15 32.52 32.37 L 31.25 34.39 C 30.82 35.09 30.53 35.83 30.35 36.65 C 30.6 36.57 30.82 36.56 31.03 36.62 C 31.24 36.69 31.44 36.84 31.64 37.11 C 31.65 36.53 31.89 35.73 32.07 35.2 C 32.22 34.8 32.46 34.21 32.77 34.13 C 32.79 33.96 32.65 33.84 32.47 33.74 C 32.3 33.67 32.41 33.46 32.47 33.37 C 32.68 33.09 32.81 32.87 32.9 32.68 C 32.95 32.57 32.99 32.39 32.94 32.23 C 32.9 32.09 32.78 32.03 32.76 31.8 C 32.77 31.62 32.8 31.52 32.89 31.4 C 32.83 31.53 32.83 31.56 32.93 31.72 C 33.25 32.25 33.69 32.39 33.9 32.43 C 34.48 32.52 34.76 32.37 35.14 32.13 C 35.36 31.99 35.5 31.82 35.61 31.65 C 35.67 31.42 35.65 31.35 35.65 31.24 C 35.53 31.09 35.44 30.99 35.35 30.92 C 35.14 30.71 34.65 30.58 34.28 30.6 C 34.27 30.35 34.27 30.15 34.3 30.01 C 34.42 29.51 34.75 29.4 34.99 29.44 C 35.33 29.51 35.59 29.7 35.64 30.21 C 35.64 30.33 35.61 30.53 35.46 30.72 L 35.47 30.83 C 35.72 30.91 35.79 31.07 35.9 31.25 C 35.96 31.38 35.98 31.56 35.94 31.61 C 35.76 31.78 35.71 32.04 35.82 32.27 C 35.94 32.52 36.02 33.06 36.14 33.4 C 36.31 33.83 36.69 34.4 36.84 34.8 C 37.11 35.38 37.17 36.13 37.13 36.78 C 37.42 36.82 37.41 37.11 37.41 37.51 C 37.5 37.69 37.68 37.73 37.9 37.72 C 38.11 37.7 38.44 37.29 38.67 36.94 Z M 37.09 41.73 C 37.5 41.74 37.84 41.57 38.17 41.32 C 38.62 41 38.18 41.1 39.21 40.47 C 39.57 40.26 39.96 39.98 40.12 39.63 C 40.27 39.31 40.25 39.03 40.04 38.8 C 39.85 38.66 39.64 38.67 39.52 38.48 C 39.48 38.26 39.45 37.99 39.26 37.75 C 39.14 37.57 38.98 37.54 38.75 37.59 C 38.52 37.83 38.38 38.13 38.01 38.32 C 37.86 38.4 37.58 38.4 37.4 38.32 C 37.28 38.19 37.12 37.87 37.1 37.53 C 37.09 37.34 36.97 37.15 36.77 37.21 C 36.47 37.29 36.43 37.47 36.41 37.75 C 36.36 38.18 36.34 38.76 36.32 39.3 C 36.29 39.98 36.22 40.04 36.15 40.41 C 36.09 40.84 36.11 41.04 36.23 41.35 C 36.39 41.73 36.67 41.71 37.09 41.73 Z M 33.68 41.08 C 34.68 40.91 35.19 41.05 35.74 41.17 C 35.69 40.68 35.77 40.08 35.88 39.53 C 35.37 40.11 34.51 40.5 33.63 40.26 C 33.69 40.64 33.7 40.89 33.68 41.08 Z M 33.08 41.3 C 33.43 40.88 33.2 40.26 32.88 39.94 C 32.43 39.32 32.14 38.84 31.81 38.13 C 31.6 37.71 31.35 37.34 30.85 37.24 C 30.5 37.2 30.27 37.3 30.27 37.55 C 30.26 37.68 30.23 37.81 29.99 37.96 C 29.8 38.1 29.24 38.32 29.05 38.38 C 28.78 38.47 28.67 38.66 28.8 38.89 C 28.96 39.2 28.99 39.65 28.91 39.87 C 28.81 40.11 28.68 40.57 28.94 40.73 C 29.35 40.94 29.6 40.91 30.14 41.02 C 30.72 41.15 31.08 41.28 31.41 41.47 C 31.87 41.71 32.62 41.8 33.08 41.3 Z M 15.73 22.76 L 16.32 13.12 L 19.09 13.12 L 20.78 19.64 L 22.63 13.12 L 25.38 13.12 L 25.86 22.76 L 23.76 22.76 L 23.56 15.24 L 21.45 22.76 L 19.77 22.76 L 17.99 15.4 L 17.68 22.76 Z M 9.52 22.76 L 6.56 13.12 L 8.84 13.12 L 10.79 20.35 L 12.79 13.12 L 15.01 13.12 L 11.92 22.76 Z" fill="#ffffff" stroke="none" pointer-events="all" style="fill: rgb(255, 255, 255);"/></g></g></g></g></g></g></svg>