<?xml version="1.0" encoding="UTF-8"?>
<!-- Do not edit this file with editors other than draw.io -->
<!DOCTYPE svg PUBLIC "-//W3C//DTD SVG 1.1//EN" "http://www.w3.org/Graphics/SVG/1.1/DTD/svg11.dtd">
<svg xmlns="http://www.w3.org/2000/svg" style="background: transparent; background-color: transparent; color-scheme: light dark;" xmlns:xlink="http://www.w3.org/1999/xlink" version="1.1" width="44px" height="51px" viewBox="0 0 44 51" content="&lt;mxfile host=&quot;Electron&quot; agent=&quot;Mozilla/5.0 (Windows NT 10.0; Win64; x64) AppleWebKit/537.36 (KHTML, like Gecko) draw.io/29.6.6 Chrome/144.0.7559.236 Electron/40.8.4 Safari/537.36&quot; version=&quot;29.6.6&quot; scale=&quot;1&quot; border=&quot;0&quot;&gt;&#10;  &lt;diagram name=&quot;Página-1&quot; id=&quot;58Q4iLej74Yhcoqce5W3&quot;&gt;&#10;    &lt;mxGraphModel dx=&quot;218&quot; dy=&quot;143&quot; grid=&quot;0&quot; gridSize=&quot;10&quot; guides=&quot;1&quot; tooltips=&quot;1&quot; connect=&quot;1&quot; arrows=&quot;1&quot; fold=&quot;1&quot; page=&quot;1&quot; pageScale=&quot;1&quot; pageWidth=&quot;50&quot; pageHeight=&quot;50&quot; background=&quot;none&quot; math=&quot;0&quot; shadow=&quot;0&quot;&gt;&#10;      &lt;root&gt;&#10;        &lt;mxCell id=&quot;0&quot; /&gt;&#10;        &lt;mxCell id=&quot;1&quot; parent=&quot;0&quot; /&gt;&#10;        &lt;mxCell id=&quot;J2U26iJZSZcQpzP_sjHZ-9&quot; parent=&quot;1&quot; style=&quot;verticalLabelPosition=bottom;sketch=0;html=1;fillColor=#008a00;strokeColor=#005700;verticalAlign=top;pointerEvents=1;align=center;shape=mxgraph.cisco_safe.security_icons.vpn;fontColor=#ffffff;&quot; value=&quot;&quot; vertex=&quot;1&quot;&gt;&#10;          &lt;mxGeometry height=&quot;50&quot; width=&quot;43&quot; x=&quot;4&quot; as=&quot;geometry&quot; /&gt;&#10;        &lt;/mxCell&gt;&#10;      &lt;/root&gt;&#10;    &lt;/mxGraphModel&gt;&#10;  &lt;/diagram&gt;&#10;&lt;/mxfile&gt;&#10;"><defs/><g><g data-cell-id="0"><g data-cell-id="1"><g data-cell-id="J2U26iJZSZcQpzP_sjHZ-9"><g id="cell-J2U26iJZSZcQpzP_sjHZ-9"><g><rect x="0" y="0" width="43" height="50" fill="none" stroke="none" pointer-events="all"/><path d="M 9.21 0 C 6.82 0 4.98 1.01 3.85 2.4 C 2.72 3.79 2.25 5.48 2.25 6.98 L 2.25 10.24 L 0.57 10.24 C 0.25 10.24 0 10.49 0 10.81 L 0 24.71 C 0 25.03 0.25 25.28 0.57 25.28 L 17.43 25.28 C 17.74 25.28 17.99 25.03 17.99 24.71 L 17.99 10.81 C 17.99 10.49 17.74 10.24 17.43 10.24 L 15.74 10.24 L 15.74 6.45 C 15.74 4.85 15 3.29 13.85 2.08 C 12.69 0.88 11.06 0 9.21 0 Z M 9.21 2.26 C 10.34 2.26 11.42 2.81 12.22 3.65 C 13.02 4.48 13.48 5.59 13.48 6.45 L 13.48 10.24 L 4.51 10.24 L 4.51 6.98 C 4.51 5.98 4.86 4.74 5.6 3.83 C 6.34 2.92 7.42 2.26 9.21 2.26 Z M 22.39 8.69 C 20.72 8.69 19.1 8.88 17.55 9.26 C 18.25 9.27 18.71 9.87 18.71 10.28 L 18.71 10.81 C 19.76 10.6 20.83 10.48 21.94 10.46 C 21.01 11.13 19.88 12.02 18.71 13.03 L 18.71 13.71 C 20.25 12.35 21.73 11.21 22.8 10.46 C 25.29 10.51 27.66 11.04 29.82 11.97 C 29.9 12.92 29.93 13.85 29.93 14.76 C 28.18 14.82 26.79 16.26 26.79 18.01 C 26.79 18.02 26.79 18.04 26.79 18.05 C 24.83 17.34 22.79 16.82 20.75 16.62 C 20.07 16.55 19.39 16.53 18.71 16.54 L 18.71 17.04 C 21.4 17 24.19 17.64 26.85 18.61 C 27.08 19.86 28.02 20.86 29.25 21.17 C 29.18 21.46 29.12 21.76 29.05 22.05 C 28.86 22.01 28.66 22 28.47 21.99 C 26.67 21.99 25.21 23.45 25.21 25.26 C 25.21 26.53 25.96 27.68 27.11 28.21 C 26.57 29.58 25.98 30.94 25.34 32.3 L 25.34 32.3 L 25.34 32.31 C 24.58 34.09 23.51 36.04 22.31 37.97 C 22.3 37.97 22.29 37.98 22.28 37.98 C 22.2 37.76 22.1 37.55 21.98 37.35 C 21.91 35.94 21.72 34.43 21.42 32.9 C 22.54 32.36 23.25 31.22 23.25 29.98 C 23.25 28.18 21.8 26.72 20 26.72 C 19.9 26.72 19.81 26.72 19.71 26.73 C 19.4 25.88 19.06 25.07 18.71 24.32 L 18.71 25.57 C 18.88 25.97 19.05 26.39 19.21 26.82 C 17.76 27.18 16.74 28.49 16.74 29.98 C 16.74 31.78 18.2 33.24 20 33.24 C 20.32 33.24 20.64 33.19 20.95 33.1 C 21.18 34.32 21.35 35.53 21.43 36.68 C 20.83 36.11 20.04 35.79 19.21 35.79 C 18.14 35.8 17.15 36.32 16.54 37.19 C 14.35 36.03 12.46 34.77 10.84 33.46 C 11.11 32.97 11.25 32.43 11.25 31.88 C 11.25 30.67 10.58 29.57 9.53 29 C 9.8 27.99 10.09 26.98 10.41 25.99 L 9.89 25.99 C 9.59 26.92 9.31 27.86 9.06 28.8 C 8.72 28.68 8.36 28.62 8 28.62 C 7.43 28.62 6.87 28.77 6.38 29.05 C 5.52 28.01 4.79 26.98 4.17 25.99 L 2.05 25.99 C 1.87 27.08 1.77 28.2 1.77 29.34 C 1.77 40.74 11.02 50 22.39 50 C 33.76 50 43 40.74 43 29.34 C 43 17.94 33.76 8.69 22.39 8.69 Z M 30.35 12.2 C 32.64 13.28 34.69 14.8 36.37 16.65 C 36.14 18.54 35.69 20.48 35.03 22.39 C 34.22 21.74 33.44 21.18 32.74 20.76 L 32.74 20.76 L 32.73 20.76 C 32.56 20.66 32.37 20.56 32.18 20.47 C 32.89 19.85 33.3 18.95 33.3 18.01 C 33.3 16.36 32.06 14.97 30.42 14.78 C 30.43 13.94 30.41 13.08 30.35 12.2 Z M 8.98 15.15 C 9.28 15.15 9.58 15.26 9.79 15.48 C 10.01 15.7 10.13 15.99 10.12 16.3 L 10.12 19.22 C 10.12 19.85 9.62 20.35 9 20.35 C 8.37 20.35 7.87 19.85 7.87 19.22 L 7.87 16.3 C 7.86 15.67 8.36 15.16 8.98 15.15 Z M 28.84 16.26 L 28.84 16.26 C 28.94 16.26 29.03 16.31 29.1 16.38 L 30.07 17.41 L 31.04 16.38 C 31.11 16.31 31.2 16.27 31.3 16.26 C 31.64 16.24 31.83 16.65 31.59 16.9 L 30.59 17.96 L 31.59 19.02 C 31.93 19.39 31.39 19.9 31.04 19.54 L 30.07 18.51 L 29.1 19.54 C 28.76 19.91 28.21 19.39 28.56 19.02 L 29.55 17.96 L 28.56 16.9 C 28.33 16.67 28.48 16.28 28.8 16.26 C 28.81 16.26 28.82 16.26 28.84 16.26 Z M 36.81 17.16 C 39.35 20.18 40.97 24.02 41.21 28.22 C 41.11 28.28 41.02 28.33 40.92 28.39 C 39.39 26.38 37.35 24.33 35.44 22.74 C 36.09 20.89 36.56 19 36.81 17.16 Z M 31.74 20.8 C 31.99 20.93 32.24 21.06 32.49 21.19 C 33.19 21.62 34 22.21 34.85 22.91 C 33.39 26.91 31.03 30.78 28 33.76 L 28 33.76 C 26.53 35.22 24.91 36.43 23.22 37.44 C 24.23 35.76 25.13 34.07 25.8 32.51 C 26.44 31.15 27.03 29.78 27.57 28.39 C 27.86 28.47 28.17 28.52 28.47 28.52 C 30.26 28.52 31.72 27.05 31.72 25.26 C 31.72 23.87 30.84 22.63 29.54 22.18 C 29.61 21.87 29.67 21.56 29.73 21.26 C 29.84 21.27 29.94 21.27 30.04 21.27 C 30.64 21.27 31.23 21.11 31.74 20.8 Z M 35.26 23.25 C 37.08 24.78 39.02 26.74 40.47 28.64 C 40.43 28.67 40.39 28.69 40.34 28.71 C 39.73 28.01 38.84 27.61 37.9 27.61 C 36.11 27.61 34.65 29.06 34.65 30.87 C 34.65 31.35 34.76 31.83 34.97 32.27 C 32.85 33.89 30.89 35.69 29.12 37.65 C 28.62 37.35 28.05 37.2 27.47 37.2 C 26.04 37.2 24.78 38.14 24.36 39.51 C 23.69 39.44 23.04 39.37 22.45 39.29 C 22.46 39.21 22.46 39.13 22.46 39.06 C 22.46 38.94 22.46 38.82 22.44 38.71 C 22.52 38.58 22.59 38.47 22.67 38.35 C 24.67 37.23 26.62 35.85 28.35 34.12 C 31.4 31.12 33.77 27.26 35.26 23.25 Z M 29.98 23.74 C 30.31 23.72 30.5 24.1 30.3 24.35 C 29.63 25.21 28.85 26.24 28.39 27 C 28.26 27.21 27.96 27.24 27.79 27.06 L 26.43 25.61 C 26.09 25.25 26.64 24.73 26.98 25.1 L 28.03 26.21 C 28.52 25.47 29.13 24.62 29.7 23.89 C 29.77 23.8 29.87 23.74 29.98 23.74 Z M 3.78 26.3 C 4.4 27.28 5.12 28.3 5.96 29.33 C 5.19 29.95 4.75 30.89 4.74 31.88 C 4.75 33.57 6.04 34.98 7.72 35.12 C 7.43 37.05 7.27 38.91 7.24 40.61 C 4.91 37.46 3.53 33.57 3.53 29.34 C 3.53 28.3 3.62 27.29 3.78 26.3 Z M 18.78 28.22 C 18.78 28.22 18.78 28.22 18.78 28.22 C 18.89 28.23 18.98 28.27 19.05 28.35 L 20.02 29.38 L 20.99 28.35 C 21.06 28.27 21.15 28.23 21.25 28.23 C 21.6 28.2 21.78 28.62 21.54 28.87 L 20.54 29.93 L 21.54 30.99 C 21.89 31.35 21.34 31.87 20.99 31.5 L 20.02 30.47 L 19.05 31.5 C 18.71 31.87 18.16 31.35 18.5 30.99 L 19.51 29.93 L 18.5 28.87 C 18.28 28.64 18.43 28.25 18.75 28.23 C 18.76 28.22 18.77 28.22 18.78 28.22 Z M 41.23 28.79 C 41.23 28.8 41.23 28.81 41.23 28.82 C 41.23 28.81 41.22 28.8 41.22 28.8 C 41.22 28.79 41.23 28.79 41.23 28.79 Z M 40.77 29.04 C 40.94 29.27 41.09 29.49 41.24 29.71 C 41.18 32.6 40.48 35.33 39.27 37.77 C 36.79 38.89 33.67 39.43 30.61 39.61 C 30.44 38.95 30.05 38.36 29.53 37.93 C 31.25 36.03 33.15 34.29 35.22 32.71 C 35.83 33.6 36.83 34.13 37.9 34.13 C 39.7 34.13 41.16 32.66 41.16 30.87 C 41.16 30.25 40.98 29.64 40.64 29.12 C 40.69 29.09 40.73 29.07 40.77 29.04 Z M 36.69 29.11 L 36.69 29.11 C 36.8 29.11 36.89 29.16 36.96 29.23 L 37.93 30.26 L 38.9 29.23 C 38.97 29.16 39.06 29.12 39.16 29.11 C 39.5 29.09 39.69 29.5 39.45 29.75 L 38.45 30.81 L 39.45 31.87 C 39.79 32.24 39.25 32.75 38.9 32.39 L 37.93 31.36 L 36.96 32.39 C 36.62 32.75 36.07 32.24 36.41 31.87 L 37.41 30.81 L 36.41 29.75 C 36.19 29.52 36.33 29.13 36.66 29.11 C 36.67 29.11 36.68 29.11 36.69 29.11 Z M 9.52 30.36 C 9.84 30.34 10.03 30.72 9.83 30.97 C 9.17 31.83 8.38 32.86 7.92 33.62 C 7.79 33.83 7.49 33.86 7.32 33.68 L 5.96 32.23 C 5.62 31.87 6.17 31.35 6.51 31.71 L 7.56 32.83 C 8.05 32.09 8.67 31.24 9.24 30.51 C 9.3 30.42 9.41 30.36 9.52 30.36 Z M 10.56 33.87 C 12.2 35.19 14.09 36.46 16.29 37.63 C 16.07 38.07 15.96 38.56 15.96 39.06 C 15.96 39.55 16.07 40.04 16.29 40.48 C 13.23 41.4 10.36 41.78 8.21 41.81 C 8.05 41.62 7.89 41.44 7.74 41.25 C 7.73 39.38 7.9 37.3 8.23 35.12 C 9.15 35.06 10 34.6 10.56 33.87 Z M 18 37.3 L 18 37.3 C 18.1 37.3 18.2 37.35 18.26 37.42 L 19.23 38.45 L 20.21 37.42 C 20.27 37.35 20.36 37.31 20.46 37.3 C 20.8 37.28 20.99 37.7 20.75 37.94 L 19.75 39 L 20.75 40.06 C 21.1 40.43 20.55 40.95 20.21 40.58 L 19.23 39.55 L 18.26 40.58 C 17.92 40.95 17.37 40.43 17.72 40.06 L 18.72 39 L 17.72 37.94 C 17.49 37.71 17.64 37.32 17.96 37.3 C 17.97 37.3 17.99 37.3 18 37.3 Z M 38.91 38.47 C 35.74 44.22 29.67 48.13 22.66 48.23 C 23.53 46.42 24.5 44.71 25.56 43.09 C 26.12 43.5 26.78 43.72 27.47 43.72 C 29.27 43.72 30.73 42.26 30.73 40.46 C 30.73 40.34 30.72 40.23 30.71 40.11 C 33.56 39.94 36.46 39.46 38.91 38.47 Z M 28.99 38.94 C 29.32 38.93 29.51 39.3 29.3 39.55 C 28.64 40.41 27.85 41.45 27.39 42.2 C 27.26 42.41 26.97 42.44 26.8 42.26 L 25.44 40.81 C 25.09 40.45 25.64 39.93 25.99 40.3 L 27.04 41.41 C 27.53 40.67 28.14 39.83 28.71 39.09 C 28.78 39 28.88 38.95 28.99 38.94 Z M 22.38 39.78 C 22.96 39.87 23.58 39.94 24.26 40 C 24.23 40.15 24.22 40.3 24.22 40.46 C 24.22 41.32 24.56 42.15 25.17 42.76 C 24.05 44.48 23.02 46.3 22.11 48.23 C 19.95 48.2 17.87 47.81 15.94 47.11 C 17.21 45.83 18.64 44.11 20.04 42.2 C 21.21 41.89 22.11 40.96 22.38 39.78 Z M 16.55 40.94 C 17.16 41.8 18.15 42.32 19.21 42.32 C 19.24 42.32 19.28 42.31 19.32 42.31 C 17.97 44.11 16.62 45.73 15.43 46.91 C 12.84 45.88 10.54 44.3 8.67 42.31 C 10.84 42.24 13.61 41.83 16.55 40.94 Z" fill="#008a00" stroke="none" pointer-events="all" style="fill: rgb(0, 138, 0);"/></g></g></g></g></g></g></svg>