<?xml version="1.0" encoding="UTF-8"?>
<!-- Do not edit this file with editors other than draw.io -->
<!DOCTYPE svg PUBLIC "-//W3C//DTD SVG 1.1//EN" "http://www.w3.org/Graphics/SVG/1.1/DTD/svg11.dtd">
<svg xmlns="http://www.w3.org/2000/svg" style="background: transparent; background-color: transparent; color-scheme: light dark;" xmlns:xlink="http://www.w3.org/1999/xlink" version="1.1" width="50px" height="42px" viewBox="0 0 50 42" content="&lt;mxfile host=&quot;Electron&quot; agent=&quot;Mozilla/5.0 (Windows NT 10.0; Win64; x64) AppleWebKit/537.36 (KHTML, like Gecko) draw.io/29.6.6 Chrome/144.0.7559.236 Electron/40.8.4 Safari/537.36&quot; version=&quot;29.6.6&quot; scale=&quot;1&quot; border=&quot;0&quot;&gt;&#10;  &lt;diagram name=&quot;Página-1&quot; id=&quot;58Q4iLej74Yhcoqce5W3&quot;&gt;&#10;    &lt;mxGraphModel dx=&quot;636&quot; dy=&quot;466&quot; grid=&quot;0&quot; gridSize=&quot;10&quot; guides=&quot;1&quot; tooltips=&quot;1&quot; connect=&quot;1&quot; arrows=&quot;1&quot; fold=&quot;1&quot; page=&quot;1&quot; pageScale=&quot;1&quot; pageWidth=&quot;50&quot; pageHeight=&quot;50&quot; background=&quot;none&quot; math=&quot;0&quot; shadow=&quot;0&quot;&gt;&#10;      &lt;root&gt;&#10;        &lt;mxCell id=&quot;0&quot; /&gt;&#10;        &lt;mxCell id=&quot;1&quot; parent=&quot;0&quot; /&gt;&#10;        &lt;mxCell id=&quot;J2U26iJZSZcQpzP_sjHZ-13&quot; parent=&quot;1&quot; style=&quot;outlineConnect=0;dashed=0;verticalLabelPosition=bottom;verticalAlign=top;align=center;html=1;shape=mxgraph.aws3.vpn_connection;fillColor=#F58534;gradientColor=none;&quot; value=&quot;&quot; vertex=&quot;1&quot;&gt;&#10;          &lt;mxGeometry height=&quot;41&quot; width=&quot;49&quot; x=&quot;150&quot; y=&quot;53&quot; as=&quot;geometry&quot; /&gt;&#10;        &lt;/mxCell&gt;&#10;      &lt;/root&gt;&#10;    &lt;/mxGraphModel&gt;&#10;  &lt;/diagram&gt;&#10;&lt;/mxfile&gt;&#10;"><defs/><g><g data-cell-id="0"><g data-cell-id="1"><g data-cell-id="J2U26iJZSZcQpzP_sjHZ-13"><g id="cell-J2U26iJZSZcQpzP_sjHZ-13"><g transform="translate(0.5,0.5)"><path d="M 28.84 10.94 C 27.98 8.99 26.16 8.29 24.34 8.24 C 22.4 8.24 20.39 8.66 19.35 10.93 Z M 18.88 22.36 L 29.45 22.35 L 29.45 18.42 L 18.88 18.42 Z M 9.72 41 L 9.72 22.45 L 13.39 22.44 L 13.37 18.42 L 8.34 18.42 L 8.33 21.77 L 0 15.92 L 0 13.62 L 8.33 7.75 L 8.33 10.93 L 13.37 10.93 C 13.81 6.97 15.91 4.07 18.87 2.42 C 23.35 0 29.32 0.92 32.58 3.8 C 35.16 6.11 35.55 8.76 35.53 10.93 L 40.67 10.93 L 40.69 7.76 L 48.99 13.62 L 49 15.82 L 40.57 21.77 L 40.57 18.42 L 35.44 18.43 L 35.44 22.36 L 39.08 22.36 L 39.08 41 Z" fill="#f58534" stroke="none" pointer-events="all" style="fill: rgb(245, 133, 52);"/><path d="M 18.88 10.93 C 18.92 8.99 19.62 7.58 20.72 6.79 C 22.61 5.35 26.4 5.58 27.78 7.07 C 28.92 8.09 29.34 9.58 29.45 10.93 L 28.84 10.94 C 27.98 8.99 26.18 8.29 24.34 8.24 C 22.41 8.24 20.39 8.65 19.35 10.93 Z M 40.57 19.48 L 48.99 13.62 L 49 15.82 L 40.57 21.77 Z M 35.44 18.43 L 35.44 16.11 L 40.57 16.13 L 40.57 18.42 Z M 18.88 18.42 L 18.88 16.11 L 29.45 16.11 L 29.45 18.42 Z M 8.34 18.42 L 8.33 16.11 L 13.39 16.11 L 13.37 18.42 Z M 8.33 21.77 L 0 15.92 L 0 13.62 L 8.34 19.48 Z M 9.72 41 L 9.72 38.68 L 39.08 38.68 L 39.08 41 Z" fill-opacity="0.3" fill="#000000" stroke="none" pointer-events="all" style="fill: rgb(0, 0, 0);"/></g></g></g></g></g></g></svg>