<?xml version="1.0" encoding="UTF-8"?>
<!-- Do not edit this file with editors other than draw.io -->
<!DOCTYPE svg PUBLIC "-//W3C//DTD SVG 1.1//EN" "http://www.w3.org/Graphics/SVG/1.1/DTD/svg11.dtd">
<svg xmlns="http://www.w3.org/2000/svg" style="background: transparent; background-color: transparent; color-scheme: light dark;" xmlns:xlink="http://www.w3.org/1999/xlink" version="1.1" width="45px" height="45px" viewBox="0 0 45 45" content="&lt;mxfile host=&quot;Electron&quot; agent=&quot;Mozilla/5.0 (Windows NT 10.0; Win64; x64) AppleWebKit/537.36 (KHTML, like Gecko) draw.io/29.6.6 Chrome/144.0.7559.236 Electron/40.8.4 Safari/537.36&quot; version=&quot;29.6.6&quot; scale=&quot;1&quot; border=&quot;0&quot;&gt;&#10;  &lt;diagram name=&quot;Página-1&quot; id=&quot;58Q4iLej74Yhcoqce5W3&quot;&gt;&#10;    &lt;mxGraphModel dx=&quot;636&quot; dy=&quot;466&quot; grid=&quot;0&quot; gridSize=&quot;10&quot; guides=&quot;1&quot; tooltips=&quot;1&quot; connect=&quot;1&quot; arrows=&quot;1&quot; fold=&quot;1&quot; page=&quot;1&quot; pageScale=&quot;1&quot; pageWidth=&quot;50&quot; pageHeight=&quot;50&quot; background=&quot;none&quot; math=&quot;0&quot; shadow=&quot;0&quot;&gt;&#10;      &lt;root&gt;&#10;        &lt;mxCell id=&quot;0&quot; /&gt;&#10;        &lt;mxCell id=&quot;1&quot; parent=&quot;0&quot; /&gt;&#10;        &lt;mxCell id=&quot;J2U26iJZSZcQpzP_sjHZ-17&quot; parent=&quot;1&quot; style=&quot;shadow=0;dashed=0;html=1;strokeColor=none;fillColor=#004C99;labelPosition=center;verticalLabelPosition=bottom;verticalAlign=top;align=center;outlineConnect=0;shape=mxgraph.veeam.linux;&quot; value=&quot;&quot; vertex=&quot;1&quot;&gt;&#10;          &lt;mxGeometry height=&quot;44.8&quot; width=&quot;44.8&quot; x=&quot;153&quot; y=&quot;53&quot; as=&quot;geometry&quot; /&gt;&#10;        &lt;/mxCell&gt;&#10;      &lt;/root&gt;&#10;    &lt;/mxGraphModel&gt;&#10;  &lt;/diagram&gt;&#10;&lt;/mxfile&gt;&#10;"><defs/><g><g data-cell-id="0"><g data-cell-id="1"><g data-cell-id="J2U26iJZSZcQpzP_sjHZ-17"><g id="cell-J2U26iJZSZcQpzP_sjHZ-17"><g transform="translate(0.5,0.5)"><path d="M 0 44.8 L 0 0 L 44.8 0 L 44.8 44.8 Z" fill="#004c99" stroke="none" pointer-events="all" style="fill: rgb(0, 76, 153);"/><path d="M 18.76 12.33 C 18.22 11.75 17.73 11.18 17.49 10.64 C 17.3 10.21 17.46 9.54 17.88 9.11 C 18.4 8.74 19.37 9.24 19.72 9.71 C 20.1 10.21 20.35 10.98 20.2 11.61 C 19.5 11.66 19.22 11.93 18.76 12.33 Z M 33.54 28.85 C 34.15 28.8 34.51 28.47 34.71 28.01 C 34.83 27.72 35.06 27.11 34.83 26.52 C 34.54 25.78 34.1 25.35 33.79 24.17 C 33.34 23.02 32.73 21.8 31.73 20.4 C 30.21 18.16 28.78 16.04 28.19 13.64 C 27.83 12.31 27.67 10.76 27.82 9.1 C 27.82 7.27 27.43 5.85 25.62 4.36 C 24.52 3.32 22.7 2.75 20.99 2.94 C 18.95 3.16 17.86 4.29 17.24 5.69 C 16.71 6.62 16.61 9.81 16.68 11.3 C 16.73 12.36 16.76 13.98 16.97 14.5 C 17.15 15.21 17.22 15.81 16.76 16.4 L 13.29 21.89 C 12.12 23.81 11.34 25.82 10.84 28.04 C 11.53 27.83 12.12 27.81 12.7 27.97 C 13.27 28.17 13.83 28.58 14.37 29.32 C 14.41 27.74 15.03 25.53 15.54 24.08 C 15.97 23.02 16.61 21.42 17.46 21.19 C 17.51 20.72 17.12 20.42 16.63 20.11 C 16.17 19.92 16.46 19.36 16.63 19.13 C 17.19 18.35 17.56 17.74 17.79 17.24 C 17.95 16.95 18.05 16.43 17.91 16 C 17.81 15.63 17.49 15.45 17.41 14.86 C 17.46 14.34 17.52 14.08 17.78 13.74 C 17.59 14.1 17.63 14.19 17.88 14.6 C 18.74 16.06 19.94 16.45 20.54 16.56 C 22.11 16.79 22.87 16.38 23.91 15.75 C 24.5 15.36 24.89 14.89 25.19 14.44 C 25.35 13.8 25.3 13.62 25.31 13.29 C 24.99 12.9 24.72 12.63 24.5 12.45 C 23.91 11.88 22.57 11.54 21.57 11.55 C 21.54 10.89 21.55 10.35 21.6 9.96 C 21.94 8.61 22.86 8.32 23.5 8.41 C 24.41 8.59 25.13 9.13 25.3 10.51 C 25.26 10.85 25.21 11.39 24.79 11.9 L 24.8 12.22 C 25.5 12.42 25.68 12.85 25.97 13.35 C 26.14 13.69 26.23 14.17 26.09 14.32 C 25.6 14.78 25.46 15.48 25.77 16.11 C 26.09 16.81 26.31 18.28 26.65 19.2 C 27.09 20.38 28.14 21.92 28.56 23 C 29.29 24.6 29.46 26.64 29.36 28.42 C 30.12 28.53 30.1 29.32 30.1 30.39 C 30.36 30.88 30.85 31 31.42 30.97 C 32 30.9 32.91 29.8 33.54 28.85 Z M 29.24 41.91 C 30.34 41.91 31.29 41.46 32.17 40.78 C 33.41 39.88 32.2 40.17 35.01 38.45 C 36 37.89 37.06 37.12 37.49 36.17 C 37.91 35.29 37.84 34.52 37.27 33.91 C 36.76 33.53 36.2 33.55 35.86 33.03 C 35.74 32.42 35.67 31.7 35.17 31.04 C 34.83 30.57 34.4 30.46 33.74 30.61 C 33.13 31.27 32.74 32.08 31.75 32.6 C 31.32 32.82 30.56 32.8 30.07 32.62 C 29.75 32.24 29.31 31.38 29.26 30.45 C 29.22 29.93 28.92 29.41 28.34 29.59 C 27.55 29.8 27.43 30.29 27.36 31.04 C 27.24 32.22 27.19 33.8 27.11 35.27 C 27.04 37.12 26.85 37.26 26.67 38.29 C 26.5 39.47 26.55 40.01 26.89 40.83 C 27.33 41.88 28.09 41.84 29.24 41.91 Z M 19.93 40.1 C 22.64 39.65 24.06 40.03 25.55 40.35 C 25.41 39.04 25.63 37.39 25.92 35.9 C 24.53 37.48 22.2 38.54 19.79 37.87 C 19.96 38.92 19.96 39.6 19.93 40.1 Z M 18.3 40.71 C 19.23 39.58 18.61 37.89 17.76 37.01 C 16.51 35.33 15.71 34 14.81 32.1 C 14.26 30.95 13.56 29.94 12.22 29.64 C 11.26 29.55 10.63 29.82 10.63 30.5 C 10.6 30.84 10.51 31.2 9.89 31.63 C 9.35 32.03 7.84 32.6 7.3 32.78 C 6.57 33.01 6.28 33.51 6.62 34.16 C 7.06 35 7.14 36.22 6.91 36.83 C 6.64 37.48 6.3 38.72 6.99 39.15 C 8.13 39.76 8.8 39.65 10.29 39.96 C 11.85 40.31 12.83 40.66 13.75 41.19 C 14.98 41.82 17.03 42.07 18.3 40.71 Z" fill="#ffffff" stroke="none" pointer-events="all" style="fill: rgb(255, 255, 255);"/></g></g></g></g></g></g></svg>